<?xml version="1.0" standalone="no"?>
<!DOCTYPE svg PUBLIC "-//W3C//DTD SVG 1.1//EN" "http://www.w3.org/Graphics/SVG/1.1/DTD/svg11.dtd" >
<svg xmlns="http://www.w3.org/2000/svg" xmlns:xlink="http://www.w3.org/1999/xlink" version="1.1">
<metadata>
Created by FontForge 20170731 at Tue Feb 11 03:26:24 2020
 By Aleksey,,,
Copyright (c) 2020 by Fontastica. All rights reserved.
</metadata>
<defs>
<font id="Ripple-Heavy" horiz-adv-x="0" >
  <font-face 
    font-family="Ripple Heavy"
    font-weight="900"
    font-stretch="normal"
    units-per-em="1000"
    panose-1="0 0 10 0 0 0 0 0 0 0"
    ascent="800"
    descent="-200"
    x-height="488"
    cap-height="698"
    bbox="-707 -201 1016 783"
    underline-thickness="50"
    underline-position="-200"
    unicode-range="U+0020-2212"
  />
<missing-glyph horiz-adv-x="556" 
d="M76 -191v955h403v-955h-403zM115 -163h325v900h-325v-900zM157 -114l104 404l-103 392h38l87 -327l83 327h38l-101 -393l102 -403h-38l-85 334l-87 -334h-38z" />
    <glyph glyph-name=".notdef" horiz-adv-x="556" 
d="M76 -191v955h403v-955h-403zM115 -163h325v900h-325v-900zM157 -114l104 404l-103 392h38l87 -327l83 327h38l-101 -393l102 -403h-38l-85 334l-87 -334h-38z" />
    <glyph glyph-name=".null" 
 />
    <glyph glyph-name="nonmarkingreturn" horiz-adv-x="333" 
 />
    <glyph glyph-name="space" unicode=" " horiz-adv-x="157" 
 />
    <glyph glyph-name="exclam" unicode="!" horiz-adv-x="310" 
d="M181 125q41 -11 41 -65q0 -71 -66 -71q-67 0 -67 71q0 54 41 65h-26v545h103v-545h-26z" />
    <glyph glyph-name="quotedbl" unicode="&#x22;" horiz-adv-x="385" 
d="M72 361l-7 347h107l-4 -347h-96zM187 361l-6 347h106l-2 -347h-98z" />
    <glyph glyph-name="numbersign" unicode="#" horiz-adv-x="757" 
d="M100 0l31 144h-89l23 100h88l40 177h-93l17 100h98l32 149h105l-33 -149h199l34 149h104l-34 -149h92l-16 -100h-97l-40 -177h101l-21 -100h-101l-33 -144h-105l33 144h-200l-32 -144h-103zM258 244h199l39 177h-199z" />
    <glyph glyph-name="dollar" unicode="$" horiz-adv-x="641" 
d="M276 -32v68q-151 22 -224 169l83 61q62 -131 197 -131q61 0 97 19.5t36 52.5q0 51 -93 72l-118 29q-170 42 -170 173q0 144 192 160v62h104v-65q63 -8 111.5 -41.5t96.5 -103.5l-74 -71q-41 62 -87.5 90.5t-113.5 28.5q-124 0 -124 -59q0 -53 90 -72l124 -30
q84 -20 125.5 -61.5t41.5 -111.5q0 -77 -54 -119.5t-136 -51.5v-68h-104z" />
    <glyph glyph-name="percent" unicode="%" horiz-adv-x="772" 
d="M522 316q71 0 116 -34t45 -111v-39q0 -75 -45.5 -109.5t-115.5 -34.5q-73 0 -118.5 34.5t-45.5 109.5v39q0 30 8 56l-179 -228h-130l298 379q-42 -25 -105 -25q-71 0 -116.5 33.5t-45.5 107.5v44q0 74 45 107.5t117 33.5t118.5 -33.5t46.5 -107.5v-44q0 -28 -7 -49
l177 225h129l-298 -379q40 25 106 25zM313 497v40q0 46 -63 46q-26 0 -45 -11t-19 -35v-40q0 -46 64 -46h3q60 0 60 46zM587 134v37q0 48 -65 48q-66 0 -66 -48v-37q0 -44 66 -48q65 0 65 48z" />
    <glyph glyph-name="ampersand" unicode="&#x26;" horiz-adv-x="627" 
d="M295 -12q-107 0 -173.5 49t-66.5 156q0 109 67 155q-54 54 -54 137q0 98 64.5 146.5t170.5 48.5q82 0 146.5 -33t122.5 -118l-80 -63q-72 112 -187 112q-130 0 -130 -95q0 -41 23.5 -65.5t70.5 -24.5h349v-100h-51v-69q0 -60 -16 -104t-41 -69t-62.5 -39.5t-72.5 -19
t-80 -4.5zM295 92h1q83 0 125 28.5t42 105.5v67h-194q-49 0 -79.5 -25t-30.5 -73q0 -45 37.5 -72.5t98.5 -30.5z" />
    <glyph glyph-name="quotesingle" unicode="'" horiz-adv-x="268" 
d="M88 361l-7 347h107l-4 -347h-96z" />
    <glyph glyph-name="parenleft" unicode="(" horiz-adv-x="362" 
d="M314 -126q-268 0 -268 324v266q0 316 307 316v-101q-203 0 -203 -217v-264q0 -221 203 -221v-103h-39z" />
    <glyph glyph-name="parenright" unicode=")" horiz-adv-x="362" 
d="M8 -126v103h39q165 0 165 221v264q0 217 -204 217v101q69 0 122.5 -15.5t96 -50.5t65.5 -98t23 -152v-266q0 -91 -23 -155.5t-65.5 -100.5t-96 -52t-122.5 -16z" />
    <glyph glyph-name="asterisk" unicode="*" horiz-adv-x="487" 
d="M321 254l-77 135l-78 -135l-92 61l90 134l-133 29l26 105l136 -38l-6 159h111l-6 -160l138 39l25 -105l-133 -28l88 -134z" />
    <glyph glyph-name="plus" unicode="+" horiz-adv-x="611" 
d="M256 84v186h-194v98h195v186h99v-186h192v-98h-193v-186h-99z" />
    <glyph glyph-name="comma" unicode="," horiz-adv-x="210" 
d="M103 128q44 0 71 -36t27 -98q0 -66 -35 -104.5t-108 -38.5l-59 3l7 95l50 -1q43 2 46 40h-3q-29 0 -46.5 20t-17.5 49q0 34 19 52.5t49 18.5z" />
    <glyph glyph-name="hyphen" unicode="-" horiz-adv-x="475" 
d="M50 252v99h375v-99h-375z" />
    <glyph glyph-name="period" unicode="." horiz-adv-x="194" 
d="M96 -11q-66 0 -66 71q0 69 66 69q67 0 67 -69q0 -34 -17.5 -52.5t-49.5 -18.5z" />
    <glyph glyph-name="slash" unicode="/" horiz-adv-x="347" 
d="M23 -121l194 886h107l-195 -886h-106z" />
    <glyph glyph-name="zero" unicode="0" horiz-adv-x="682" 
d="M339 -12q-57 0 -104.5 14t-86.5 44.5t-61 86t-22 132.5v139q0 76 22 131.5t61 86t86.5 44.5t104.5 14q59 0 107 -14t87.5 -44.5t61.5 -86t22 -131.5v-139q0 -148 -76.5 -212.5t-201.5 -64.5zM339 91q174 0 174 174v139q0 87 -44.5 131t-129.5 44q-82 0 -126 -44t-44 -131
v-139q0 -87 44 -130.5t126 -43.5z" />
    <glyph glyph-name="one" unicode="1" horiz-adv-x="382" 
d="M157 0v544l-74 -34l-37 95l143 65h70v-670h-102z" />
    <glyph glyph-name="two" unicode="2" horiz-adv-x="585" 
d="M67 0v80l227 214q112 114 112 193q0 44 -29.5 67.5t-83.5 23.5q-120 0 -168 -141l-92 50q74 193 262 193q98 0 157.5 -47.5t59.5 -143.5q0 -68 -35.5 -130.5t-109.5 -135.5l-127 -121h328v-102h-501z" />
    <glyph glyph-name="three" unicode="3" horiz-adv-x="600" 
d="M471 347q77 -51 77 -144q0 -112 -68.5 -163.5t-180.5 -51.5q-93 0 -154.5 49.5t-96.5 165.5l93 47q22 -80 60 -119t98 -39q145 0 145 111q0 43 -35.5 66t-90.5 23h-143v100h143q56 0 84 26.5t28 71.5q0 43 -30.5 65.5t-86.5 22.5q-122 0 -173 -141l-89 50q71 193 263 193
q101 0 162 -46t61 -141q0 -93 -66 -146z" />
    <glyph glyph-name="four" unicode="4" horiz-adv-x="569" 
d="M350 0v113h-337v73l286 484h123l-272 -455h200v224h104v-224h94v-102h-94v-113h-104z" />
    <glyph glyph-name="five" unicode="5" horiz-adv-x="588" 
d="M288 -12q-192 0 -246 218l93 47q39 -162 153 -162q149 0 149 112q0 52 -37 74.5t-110 22.5h-210v370h449v-104h-346v-165h111q134 0 191 -50t57 -148q0 -58 -20 -100.5t-55.5 -67t-80 -36t-98.5 -11.5z" />
    <glyph glyph-name="six" unicode="6" horiz-adv-x="640" 
d="M336 412q247 0 247 -201q0 -112 -70 -167.5t-183 -55.5q-262 0 -262 277v138q0 149 72.5 213t191.5 64q188 0 255 -189l-88 -59q-52 147 -167 147q-161 0 -161 -175v-40q76 48 165 48zM331 92q70 0 108 30.5t38 88.5q0 99 -144 99q-65 0 -109 -26.5t-44 -71.5
q0 -48 34.5 -84t116.5 -36z" />
    <glyph glyph-name="seven" unicode="7" horiz-adv-x="516" 
d="M86 0l263 566h-352v104h482v-70l-275 -600h-118z" />
    <glyph glyph-name="eight" unicode="8" horiz-adv-x="631" 
d="M503 342q83 -50 83 -150q0 -204 -272 -204q-126 0 -197.5 49.5t-71.5 154.5q0 101 79 152q-64 51 -64 139q0 197 254 197q256 0 256 -197q0 -92 -67 -141zM314 578q-149 0 -149 -97q0 -90 149 -90q152 0 152 90q0 97 -152 97zM314 92q168 0 168 103q0 93 -168 93
q-165 0 -165 -93q0 -103 165 -103z" />
    <glyph glyph-name="nine" unicode="9" horiz-adv-x="630" 
d="M308 680q58 0 102.5 -13.5t81.5 -44.5t57 -88.5t20 -139.5v-126q0 -280 -266 -280q-190 0 -257 204l94 48q44 -149 162 -149q162 0 162 177v25q-70 -46 -164 -46q-128 0 -187.5 53t-59.5 158q0 113 70.5 167.5t184.5 54.5zM303 348q66 0 109 28t43 77q0 50 -34 88
t-113 38q-71 0 -110 -31.5t-39 -89.5q0 -110 144 -110z" />
    <glyph glyph-name="colon" unicode=":" horiz-adv-x="194" 
d="M96 318q-66 0 -66 70q0 68 66 68q31 0 49 -17.5t18 -50.5q0 -34 -17.5 -52t-49.5 -18zM96 44q-66 0 -66 69t66 69q31 0 49 -17.5t18 -51.5q0 -69 -67 -69z" />
    <glyph glyph-name="semicolon" unicode=";" horiz-adv-x="211" 
d="M103 320q-31 0 -49.5 18.5t-18.5 51.5q0 32 19 50t49 18q31 0 49.5 -18t18.5 -50q0 -34 -18 -52t-50 -18zM103 128q44 0 71 -36t27 -98q0 -66 -35 -104.5t-108 -38.5l-59 3l7 95l50 -1q43 2 46 40h-3q-29 0 -46.5 20t-17.5 49q0 34 19 52.5t49 18.5z" />
    <glyph glyph-name="less" unicode="&#x3c;" horiz-adv-x="567" 
d="M451 56l-396 228v65l395 226l54 -83l-305 -175l304 -174z" />
    <glyph glyph-name="equal" unicode="=" horiz-adv-x="609" 
d="M62 346v98h485v-98h-485zM62 180v101h485v-101h-485z" />
    <glyph glyph-name="greater" unicode="&#x3e;" horiz-adv-x="564" 
d="M115 56l-53 87l305 174l-305 175l53 83l397 -226v-65z" />
    <glyph glyph-name="question" unicode="?" horiz-adv-x="588" 
d="M201 144v52q0 36 9 63.5t29.5 49.5t37 34.5t48.5 32.5q44 28 67.5 54.5t23.5 60.5q0 42 -29.5 64.5t-86.5 22.5t-99.5 -35t-63.5 -104l-93 46q61 195 256 195q101 0 161 -46.5t60 -141.5q0 -67 -37 -114.5t-103 -86.5q-75 -44 -80 -96l5 -51h-105zM248 -4q-61 0 -61 63
t61 63q63 0 63 -63t-63 -63z" />
    <glyph glyph-name="at" unicode="@" horiz-adv-x="804" 
d="M414 -109q-356 0 -356 358v66q0 91 28.5 157.5t80 104.5t114 55.5t138.5 17.5q341 0 341 -334v-73q0 -54 -14 -92.5t-38.5 -58.5t-49.5 -28.5t-54 -8.5q-53 0 -84 30q-56 -37 -131 -37q-82 0 -134.5 44.5t-52.5 151.5v23q0 105 52.5 149.5t134.5 44.5q48 0 90 -16v9h99
v-247q0 -52 28 -52q49 0 51 87l2 76q-8 104 -70 168t-170 64q-114 0 -182 -65t-77 -166v-71q8 -117 72 -187.5t182 -70.5q64 0 139.5 16t119.5 34l21 -105q-157 -44 -280 -44zM392 147q56 0 86 30q-1 1 0 16v15v125q-25 25 -86 28h-3q-37 -2 -61 -25t-24 -71v-17
q0 -101 88 -101z" />
    <glyph glyph-name="A" unicode="A" horiz-adv-x="748" 
d="M37 0l306 700h69l299 -700h-115l-62 152h-319l-63 -152h-115zM259 250h234l-116 277z" />
    <glyph glyph-name="B" unicode="B" horiz-adv-x="798" 
d="M645 348q74 -49 74 -148q0 -200 -259 -200h-320v700h320q259 0 259 -200q0 -98 -74 -152zM244 600v-200h218q156 0 156 99q0 101 -156 101h-218zM462 100q156 0 156 101q0 99 -156 99h-218v-200h218z" />
    <glyph glyph-name="C" unicode="C" horiz-adv-x="797" 
d="M418 -15q-154 0 -244.5 72t-90.5 225v136q0 153 90.5 223.5t244.5 70.5q137 0 229.5 -67.5t116.5 -210.5h-102q-40 175 -244 175q-93 0 -157.5 -51.5t-74.5 -143.5v-129q10 -92 74.5 -144t157.5 -52q200 0 242 170h105q-27 -141 -119.5 -207.5t-227.5 -66.5z" />
    <glyph glyph-name="D" unicode="D" horiz-adv-x="858" 
d="M140 0v695h286q76 0 134.5 -13.5t107 -44t74.5 -87t26 -136.5v-130q0 -82 -25.5 -139t-73.5 -88t-107 -44t-136 -13h-286zM245 102h179q111 0 176.5 40.5t65.5 141.5v130q0 180 -242 180h-179v-492z" />
    <glyph glyph-name="E" unicode="E" horiz-adv-x="819" 
d="M140 0v698h564v-102h-459v-190h459v-99l-459 1v-206h460v-102h-565z" />
    <glyph glyph-name="F" unicode="F" horiz-adv-x="754" 
d="M140 0v698h564v-102h-459v-190h459v-99l-459 1v-308h-105z" />
    <glyph glyph-name="G" unicode="G" horiz-adv-x="840" 
d="M438 -15q-75 0 -137.5 16.5t-112 51t-77.5 93t-28 136.5v136q0 153 90.5 223.5t244.5 70.5q137 0 229.5 -67.5t116.5 -210.5h-102q-40 175 -244 175q-93 0 -157.5 -51.5t-74.5 -143.5v-129q11 -88 79 -142t175 -54q141 0 215 39v175h-257v101h361v-335q-125 -84 -312 -84
h-9z" />
    <glyph glyph-name="H" unicode="H" horiz-adv-x="869" 
d="M140 0v695h105v-289h379v289h105v-695h-105v303h-379v-303h-105z" />
    <glyph glyph-name="I" unicode="I" horiz-adv-x="385" 
d="M140 0v698h105v-698h-105z" />
    <glyph glyph-name="J" unicode="J" horiz-adv-x="775" 
d="M364 -17q-318 0 -318 355h105q0 -249 213 -249q194 0 194 210v396h105v-396q0 -316 -299 -316z" />
    <glyph glyph-name="K" unicode="K" horiz-adv-x="856" 
d="M140 0v698h105v-336l400 336h153l-329 -281l307 -417h-123l-261 354l-147 -125v-229h-105z" />
    <glyph glyph-name="L" unicode="L" horiz-adv-x="707" 
d="M140 0v695h105v-592l426 -1v-102h-531z" />
    <glyph glyph-name="M" unicode="M" horiz-adv-x="1035" 
d="M140 0v695h93l282 -539l287 539h93v-695h-104v455l-244 -455h-67l-236 451v-451h-104z" />
    <glyph glyph-name="N" unicode="N" horiz-adv-x="891" 
d="M140 0v698h86l419 -510v510h106v-698h-89l-419 512l1 -512h-104z" />
    <glyph glyph-name="O" unicode="O" horiz-adv-x="845" 
d="M418 -15q-154 0 -244.5 72t-90.5 225v136q0 153 90.5 223.5t244.5 70.5q102 0 176 -27.5t120.5 -95t46.5 -171.5v-136q0 -153 -93.5 -225t-249.5 -72zM418 89q97 0 163.5 51.5t79.5 145.5v127q-13 93 -79.5 144.5t-163.5 51.5q-93 0 -157.5 -51.5t-74.5 -143.5v-129
q10 -92 74 -144t158 -52z" />
    <glyph glyph-name="P" unicode="P" horiz-adv-x="757" 
d="M140 0v695h302q126 0 186 -55.5t60 -179.5q0 -261 -247 -261h-196v-199h-105zM245 299h196q70 0 105.5 43t35.5 117q0 70 -34.5 103t-106.5 33h-196v-296z" />
    <glyph glyph-name="Q" unicode="Q" horiz-adv-x="845" 
d="M643 -120l-189 106q-11 -1 -36 -1q-154 0 -244.5 72t-90.5 225v136q0 153 90.5 223.5t244.5 70.5q102 0 176 -27.5t120.5 -95t46.5 -171.5v-136q0 -196 -160 -263l111 -63zM418 89q108 0 171.5 46t63.5 147v136q0 191 -235 191q-104 0 -165.5 -45.5t-61.5 -145.5v-136
q0 -100 61 -146.5t166 -46.5z" />
    <glyph glyph-name="R" unicode="R" horiz-adv-x="831" 
d="M735 0h-127l-153 229q-18 -2 -33 -2h-178v-227h-104v698h298q252 0 255 -229q-2 -158 -127 -215zM424 326q75 0 119 35.5t44 107.5q0 126 -153 126h-190v-269h180z" />
    <glyph glyph-name="S" unicode="S" horiz-adv-x="831" 
d="M419 -17q-106 0 -184 37t-157 129l69 77q64 -77 127 -108t145 -31q40 0 80 9.5t73 36t33 65.5q0 24 -11 41.5t-32.5 28.5t-41 17.5t-47.5 11.5l-75 13q-46 7 -76.5 13.5t-72 22t-66.5 36t-43.5 56t-18.5 82.5q0 56 27.5 96t73.5 59.5t92 28t96 8.5q196 0 322 -162
l-71 -72q-58 71 -118.5 101.5t-133.5 30.5q-183 0 -183 -90q0 -43 32 -66.5t81 -30.5l121 -19q41 -6 71.5 -13.5t66.5 -23t58.5 -36t38 -55t15.5 -78.5q0 -56 -27.5 -99.5t-72 -67.5t-93 -36t-98.5 -12z" />
    <glyph glyph-name="T" unicode="T" horiz-adv-x="702" 
d="M299 0v594h-248v101h601v-101h-248v-594h-105z" />
    <glyph glyph-name="U" unicode="U" horiz-adv-x="838" 
d="M428 -17q-317 0 -317 316v396h105v-396q0 -210 212 -210q194 0 194 210v396h106v-396q0 -316 -300 -316z" />
    <glyph glyph-name="V" unicode="V" horiz-adv-x="833" 
d="M355 -3l-300 701h117l233 -548l254 548h119l-327 -701h-96z" />
    <glyph glyph-name="W" unicode="W" horiz-adv-x="1086" 
d="M270 0l-200 695h111l142 -500l172 487h89l162 -491l157 504h113l-221 -695h-96l-160 489l-173 -489h-96z" />
    <glyph glyph-name="X" unicode="X" horiz-adv-x="808" 
d="M46 0l289 353l-285 342h133l225 -270l222 270h130l-279 -343l283 -352h-130l-229 277l-226 -277h-133z" />
    <glyph glyph-name="Y" unicode="Y" horiz-adv-x="827" 
d="M364 0v264l-312 431h128l236 -325l233 325h127l-306 -429v-266h-106z" />
    <glyph glyph-name="Z" unicode="Z" horiz-adv-x="715" 
d="M78 0v80l423 516h-457v102h615v-79l-428 -517h446v-102h-599z" />
    <glyph glyph-name="bracketleft" unicode="[" horiz-adv-x="373" 
d="M76 -122v887h285v-102h-181v-683h181v-102h-285z" />
    <glyph glyph-name="backslash" unicode="\" horiz-adv-x="347" 
d="M217 -121l-194 886h106l195 -886h-107z" />
    <glyph glyph-name="bracketright" unicode="]" horiz-adv-x="373" 
d="M12 -122v102h180v683h-180v102h285v-887h-285z" />
    <glyph glyph-name="underscore" unicode="_" horiz-adv-x="488" 
d="M29 -43v100h432v-100h-432z" />
    <glyph glyph-name="a" unicode="a" horiz-adv-x="588" 
d="M408 488h98v-488h-97v7q-57 -19 -130 -19q-50 0 -88.5 11.5t-71.5 39t-50.5 79.5t-17.5 126t18 126.5t51 80t72 39t89 11.5q70 0 127 -17v4zM408 117v257q-32 29 -127 29q-131 0 -131 -159q0 -87 37.5 -122.5t91.5 -35.5q89 0 129 31z" />
    <glyph glyph-name="b" unicode="b" horiz-adv-x="605" 
d="M328 -12q-73 0 -133 20v-8h-97v670h100v-186q59 17 129 17q227 0 227 -258q0 -255 -226 -255zM328 86q53 0 90 35.5t37 122.5q0 88 -37 123.5t-91 35.5q-97 0 -129 -29v-257q39 -31 130 -31z" />
    <glyph glyph-name="c" unicode="c" horiz-adv-x="584" 
d="M287 -12h-3q-107 1 -170 58t-63 197q0 74 18 126t52 79.5t73.5 40t90.5 12.5h2q180 -2 234 -210l-102 2q-19 57 -55.5 82.5t-77.5 27.5q-56 -3 -95.5 -39.5t-39.5 -119.5q0 -87 39 -122.5t96 -35.5q95 0 132 106h104q-59 -202 -235 -204z" />
    <glyph glyph-name="d" unicode="d" horiz-adv-x="598" 
d="M410 670h98v-670h-97v7q-57 -19 -129 -19q-50 0 -88.5 11.5t-71.5 39t-51 79t-18 126.5q0 74 18 126.5t51 80t72 39t89 11.5q70 0 127 -17v186zM410 117v257q-32 29 -127 29q-131 0 -131 -159q0 -87 37.5 -122.5t92.5 -35.5q88 0 128 31z" />
    <glyph glyph-name="e" unicode="e" horiz-adv-x="548" 
d="M287 -12h-3q-107 1 -170 58t-63 197q0 74 18 126t51.5 79.5t73 40t90.5 12.5h3q230 -2 230 -268v-29l-364 1q11 -63 48.5 -91t84.5 -28q95 0 132 106h104q-59 -202 -235 -204zM157 304h256q-20 93 -127 99q-110 -6 -129 -99z" />
    <glyph glyph-name="f" unicode="f" horiz-adv-x="437" 
d="M122 0v402h-69v96h71q7 92 54.5 129.5t135.5 42.5h4q53 0 119 -34v-121q-80 52 -116 52q-84 -4 -98 -69h178v-96h-182v-402h-97z" />
    <glyph glyph-name="g" unicode="g" horiz-adv-x="570" 
d="M504 450l1 -431q0 -111 -57 -155t-162 -44q-132 0 -213 108l68 78q64 -87 145 -87q113 0 120 89q-60 -20 -127 -20q-50 0 -88.5 11.5t-71 39t-50.5 79t-18 125.5q0 75 18 127.5t51 80t72 39t89 11.5q70 0 127 -17v4h96v-38zM150 244q0 -87 37.5 -122.5t91.5 -35.5
q87 0 128 32l1 256q-33 29 -127 29q-131 0 -131 -159z" />
    <glyph glyph-name="h" unicode="h" horiz-adv-x="589" 
d="M98 0v670h100v-186q59 17 129 17q227 0 227 -258v-243h-99v243q0 160 -128 160q-96 0 -130 -30l-2 -373h-97z" />
    <glyph glyph-name="i" unicode="i" horiz-adv-x="283" 
d="M141 540q-30 0 -47 17t-17 45t17.5 46t46.5 18t46 -18t17 -46t-16.5 -45t-46.5 -17zM90 0v488h98v-488h-98z" />
    <glyph glyph-name="j" unicode="j" horiz-adv-x="310" 
d="M139 540q-27 0 -44.5 17.5t-17.5 44.5q0 28 18 46t44 18q29 0 46.5 -18t17.5 -46t-17 -45t-47 -17zM-9 -178q-54 0 -118 34v121q84 -55 115 -55q102 11 102 108v458h98v-457q0 -110 -50 -157.5t-145 -51.5h-2z" />
    <glyph glyph-name="k" unicode="k" horiz-adv-x="612" 
d="M93 0v670h98v-330l217 148h167l-355 -244l355 -244h-167l-217 147v-147h-98z" />
    <glyph glyph-name="l" unicode="l" horiz-adv-x="283" 
d="M92 0v670h98v-670h-98z" />
    <glyph glyph-name="m" unicode="m" horiz-adv-x="911" 
d="M622 501q209 0 209 -258v-243h-98v243q0 159 -110 159q-111 0 -111 -161v-243h-98v245q0 160 -112 160q-84 0 -112 -27l-1 -376h-96v488h97v-3q55 16 112 16q109 0 161 -74q59 74 159 74z" />
    <glyph glyph-name="n" unicode="n" horiz-adv-x="628" 
d="M322 501q227 0 227 -258v-243h-99v243q0 160 -128 160q-97 0 -130 -29l-2 -374h-97v488h99v-5q63 18 130 18z" />
    <glyph glyph-name="o" unicode="o" horiz-adv-x="575" 
d="M287 -12h-2q-108 1 -171 58t-63 197q0 74 18 126t51.5 79.5t73 40t90.5 12.5h3q230 -2 230 -258q0 -253 -230 -255zM286 86q55 0 94 36t39 122q0 83 -39 119.5t-94 39.5q-56 -3 -95.5 -39.5t-39.5 -119.5q0 -87 39 -122.5t96 -35.5z" />
    <glyph glyph-name="p" unicode="p" horiz-adv-x="598" 
d="M314 501q226 0 226 -257q0 -256 -227 -256q-70 0 -129 17v-172h-100v655h98v-6q58 19 132 19zM313 86q54 0 91 35.5t37 122.5q0 88 -36.5 123.5t-90.5 35.5q-92 0 -130 -32v-256q34 -29 129 -29z" />
    <glyph glyph-name="q" unicode="q" horiz-adv-x="602" 
d="M418 -167v172q-57 -17 -127 -17q-50 0 -88.5 11.5t-72 39t-51.5 79.5t-18 127q0 74 18 126t51 79.5t71.5 39t88.5 11.5q74 0 130 -19v6h97v-655h-99zM291 86q93 0 127 29v256q-38 32 -128 32q-129 0 -129 -159q0 -87 37 -122.5t93 -35.5z" />
    <glyph glyph-name="r" unicode="r" horiz-adv-x="465" 
d="M322 501q62 0 122 -28v-115q-81 45 -122 45q-100 0 -130 -26l-2 -377h-97v488h99v-5q63 18 130 18z" />
    <glyph glyph-name="s" unicode="s" horiz-adv-x="535" 
d="M279 -12q-146 0 -225 135l77 64q60 -99 147 -99q38 0 66 11t28 33q0 28 -57 45l-109 24q-72 14 -104.5 49t-32.5 99q0 79 57.5 115.5t149.5 36.5q133 0 231 -130l-75 -68q-73 99 -156 99q-103 0 -103 -52q0 -37 57 -53l110 -24q136 -32 136 -140q0 -70 -56.5 -107.5
t-140.5 -37.5z" />
    <glyph glyph-name="t" unicode="t" horiz-adv-x="491" 
d="M313 -13h-3q-95 4 -145 52.5t-50 158.5v201h-61v99h61v172h99v-172h229v-99h-229v-202q0 -99 101 -108q35 2 115 53v-123q-69 -32 -117 -32z" />
    <glyph glyph-name="u" unicode="u" horiz-adv-x="628" 
d="M442 488h97v-488h-99v6q-63 -18 -127 -18q-50 0 -88.5 11.5t-72 39t-51.5 79.5t-18 127v243h100v-243q0 -88 37 -123.5t93 -35.5q37 0 74.5 8t53.5 21z" />
    <glyph glyph-name="v" unicode="v" horiz-adv-x="545" 
d="M229 0l-217 488h111l146 -330l152 330h113l-227 -488h-78z" />
    <glyph glyph-name="w" unicode="w" horiz-adv-x="739" 
d="M174 0l-161 488h110l96 -300l107 300h85l103 -300l101 300h109l-171 -488h-82l-104 303l-109 -303h-84z" />
    <glyph glyph-name="x" unicode="x" horiz-adv-x="542" 
d="M393 -1l-123 171l-122 -170h-128l183 248l-181 240h125l124 -161l121 161h129l-185 -240l183 -249h-126z" />
    <glyph glyph-name="y" unicode="y" horiz-adv-x="560" 
d="M135 -167l89 196l-206 459h116l147 -333l147 333h115l-295 -655h-113z" />
    <glyph glyph-name="z" unicode="z" horiz-adv-x="475" 
d="M51 0v72l235 318h-247v98h396v-69l-237 -320h252v-99h-399z" />
    <glyph glyph-name="braceleft" unicode="{" horiz-adv-x="351" 
d="M183 -138q-143 0 -143 109q0 28 12 60t23.5 51t33.5 50q46 69 46 92q0 33 -130 33v102h42q88 3 88 32q0 26 -46 93q-69 99 -69 161q0 108 143 108q68 0 142 -24l-20 -98q-68 21 -120 21q-39 0 -39 -10q0 -25 44 -94l5 -6q65 -89 65 -150q0 -54 -33 -85q33 -31 33 -83
q0 -60 -65 -150q-49 -70 -49 -100q0 -10 39 -10q58 0 120 29l19 -107q-74 -24 -141 -24z" />
    <glyph glyph-name="bar" unicode="|" horiz-adv-x="293" 
d="M94 -107v890h104v-890h-104z" />
    <glyph glyph-name="braceright" unicode="}" horiz-adv-x="357" 
d="M171 -138q-70 0 -144 24l23 106q60 -28 118 -28q38 0 38 10q0 33 -49 100q-65 94 -66 150q1 50 34 83q-34 32 -34 85q0 59 66 150q49 69 49 100q0 10 -38 10q-49 0 -118 -21l-23 97q72 25 144 25q139 0 139 -109q-1 -62 -67 -160q-45 -69 -45 -93q0 -29 88 -32h42v-102
h-40q-90 0 -90 -33q0 -22 38 -82l7 -10q67 -96 67 -161q0 -109 -139 -109z" />
    <glyph glyph-name="exclamdown" unicode="&#xa1;" horiz-adv-x="310" 
d="M222 434q0 -59 -50 -65h35v-536h-103v536h36q-51 6 -51 65q0 70 67 70q66 0 66 -70z" />
    <glyph glyph-name="cent" unicode="&#xa2;" horiz-adv-x="578" 
d="M243 1v86q-80 13 -130.5 65.5t-50.5 152.5v73q0 97 50.5 150t130.5 66v76h104v-78q111 -19 172 -130l-82 -61q-39 73 -90 88v-297q52 18 94 85l82 -59l-17 -29q-49 -82 -159 -101v-87h-104zM243 191v300q-78 -24 -78 -113v-74q0 -91 78 -113z" />
    <glyph glyph-name="sterling" unicode="&#xa3;" horiz-adv-x="609" 
d="M288 198q0 -53 -30 -96h302v-102h-522v95q57 10 100.5 37.5t43.5 64.5q0 38 -17 75h-128v98h81q-34 70 -34 131q0 90 60 134.5t156 44.5q173 0 261 -169l-85 -59q-66 127 -174 127q-56 0 -84.5 -22t-28.5 -59q0 -42 42 -122l3 -6h247v-98h-204q11 -38 11 -74z" />
    <glyph glyph-name="yen" unicode="&#xa5;" horiz-adv-x="637" 
d="M266 0v127h-160v99h160v49h-160v98h114l-208 297h124l184 -265l181 265h125l-209 -297h115v-98h-161v-49h161v-99h-161v-127h-105z" />
    <glyph glyph-name="brokenbar" unicode="&#xa6;" horiz-adv-x="293" 
d="M94 783h104v-890h-104v890z" />
    <glyph glyph-name="copyright" unicode="&#xa9;" horiz-adv-x="688" 
d="M342 -12q-294 0 -294 283v129q0 78 23 134t65 87t92.5 45t113.5 14t115 -14t94.5 -45t66.5 -87.5t24 -133.5v-129q0 -79 -24 -136t-67 -88t-94 -45t-115 -14zM342 82q97 0 149 47.5t52 139.5v131q0 94 -51.5 141t-149.5 47q-96 0 -146.5 -47.5t-50.5 -140.5v-131
q0 -93 50.5 -140t146.5 -47zM344 157q-83 0 -128 39t-45 112v64q0 73 45 111.5t128 38.5q78 0 125 -39t55 -112h-78q-13 82 -102 82q-40 0 -65.5 -22t-29.5 -61v-60q4 -39 30 -61.5t65 -22.5q87 0 101 81h80q-10 -72 -57 -111t-124 -39z" />
    <glyph glyph-name="guillemotleft" unicode="&#xab;" horiz-adv-x="511" 
d="M227 10l-208 224v46l208 224l72 -65l-165 -179l164 -183zM400 10l-208 224v46l208 224l72 -64l-165 -180l164 -183z" />
    <glyph glyph-name="registered" unicode="&#xae;" horiz-adv-x="672" 
d="M333 684q124 0 200.5 -56.5t76.5 -183.5v-46q0 -68 -22 -117.5t-61 -77t-87 -40.5t-107 -13q-56 0 -102.5 13t-85 40.5t-60.5 77t-22 117.5v46q0 87 39 142.5t97 76.5t134 21zM531 402v35q0 90 -54.5 129.5t-142.5 39.5q-85 0 -138 -40t-53 -129v-35q0 -92 53 -133
t138 -41q97 0 147 45h-85l-58 83h-36v-83h-83v306h136q56 0 82 -24.5t26 -76.5v-13q0 -60 -40 -89l65 -97q43 45 43 123zM381 478q0 20 -25 20h-54v-58h54q25 0 25 25v13z" />
    <glyph glyph-name="degree" unicode="&#xb0;" horiz-adv-x="439" 
d="M218 317q-75 0 -124.5 37.5t-49.5 120.5v47q0 83 49.5 120.5t124.5 37.5q78 0 127 -37t49 -121v-47q0 -84 -49 -121t-127 -37zM218 416h4q73 0 73 60v46q0 61 -77 61q-30 0 -52 -14t-22 -47v-46q0 -32 22 -46t52 -14z" />
    <glyph glyph-name="periodcentered" unicode="&#xb7;" horiz-adv-x="194" 
d="M96 263q-66 0 -66 68q0 69 66 69q67 0 67 -69q0 -33 -17.5 -50.5t-49.5 -17.5z" />
    <glyph glyph-name="guillemotright" unicode="&#xbb;" horiz-adv-x="511" 
d="M111 11l-72 65l165 184l-165 180l73 64l207 -224v-46zM284 11l-71 66l165 183l-166 180l72 64l209 -224v-46z" />
    <glyph glyph-name="questiondown" unicode="&#xbf;" horiz-adv-x="561" 
d="M321 374q-24 0 -40.5 15.5t-16.5 42.5q0 28 16.5 42.5t40.5 14.5q58 0 58 -57q0 -58 -58 -58zM270 -177q-99 0 -159 46.5t-60 138.5q0 119 138 199q77 47 80 93l-2 54h105v-53q0 -37 -7.5 -63.5t-28 -48t-37.5 -34t-54 -34.5q-47 -27 -68.5 -51t-21.5 -61
q0 -40 30.5 -62.5t85.5 -22.5q57 0 100.5 35.5t65.5 104.5l89 -46q-62 -195 -256 -195z" />
    <glyph glyph-name="multiply" unicode="&#xd7;" horiz-adv-x="679" 
d="M164 107l-70 73l157 141l-156 140l70 69l158 -145l159 145l73 -69l-157 -141l157 -143l-73 -68l-159 144z" />
    <glyph glyph-name="divide" unicode="&#xf7;" horiz-adv-x="609" 
d="M310 389q-33 0 -50.5 18t-17.5 50q0 67 68 67q69 0 69 -67q0 -68 -69 -68zM62 270v98h485v-98h-485zM310 119q-69 0 -69 69q0 66 69 66t69 -66q0 -69 -69 -69z" />
    <glyph glyph-name="uni0302" unicode="&#x302;" 
d="M-270 456l-79 51l134 203h68l135 -205l-78 -45l-90 123z" />
    <glyph glyph-name="uni0304" unicode="&#x304;" 
d="M-386 549v100h359v-100h-359z" />
    <glyph glyph-name="uni0306" unicode="&#x306;" 
d="M-169 470q-150 0 -150 188v48h103l-3 -52q2 -37 15 -60.5t35 -23.5q53 0 53 87v49h97l2 -48q0 -91 -38.5 -139.5t-113.5 -48.5z" />
    <glyph glyph-name="uni0307" unicode="&#x307;" 
d="M-85 533q-29 0 -45 17.5t-16 47.5q0 61 61 61q63 0 63 -61q0 -30 -16.5 -47.5t-46.5 -17.5z" />
    <glyph glyph-name="uni0308" unicode="&#x308;" 
d="M-257 516q-30 0 -46 17.5t-16 47.5q0 61 62 61t62 -61q0 -30 -16 -47.5t-46 -17.5zM-84 516q-29 0 -45.5 17.5t-16.5 47.5t16.5 45.5t45.5 15.5q62 0 62 -61q0 -30 -16 -47.5t-46 -17.5z" />
    <glyph glyph-name="uni030A" unicode="&#x30a;" 
d="M-171 474q-70 0 -108 31t-38 91v13q0 59 38 89.5t108 30.5q73 0 111.5 -30.5t38.5 -89.5v-13q0 -122 -150 -122zM-171 569q53 0 53 28v11q0 27 -53 27q-49 0 -49 -27v-11q0 -28 49 -28z" />
    <glyph glyph-name="uni030B" unicode="&#x30b;" 
d="M-283 462l-83 35l111 240l99 -44zM-179 454l-70 57l160 210l79 -66z" />
    <glyph glyph-name="uni030C" unicode="&#x30c;" 
d="M-212 470l-137 207l79 45l90 -124l91 127l77 -51l-134 -204h-66z" />
    <glyph glyph-name="uni0312" unicode="&#x312;" 
d="M-91 636q30 0 46.5 -18.5t16.5 -45.5q0 -31 -19 -50t-52 -19q-50 0 -80 33.5t-30 82.5q0 51 32 85t101 35q9 0 27 -3q2 0 32 -3l11 -95q-51 6 -66 6q-26 0 -35 -9q5 1 16 1z" />
    <glyph glyph-name="uni0326" unicode="&#x326;" 
d="M-118 33q50 0 79 -32t29 -82q0 -53 -30.5 -86.5t-100.5 -33.5q-10 0 -26 2l-35 3l-9 98q60 -9 65 -9q20 1 30 9q-4 -1 -12 -1q-29 0 -46 19t-17 45q0 68 73 68z" />
    <glyph glyph-name="uni0327" unicode="&#x327;" 
d="M-94 19q81 -23 81 -93q0 -46 -33.5 -69t-86.5 -23q-26 0 -61 7l-49 11l28 98q1 0 4.5 -1.5t5.5 -2.5l24 134h98zM-134 -72q24 0 24 -2q0 10 -47 10h-20q26 -8 43 -8z" />
    <glyph glyph-name="uni0328" unicode="&#x328;" 
d="M-173 -165q-52 0 -78 24.5t-26 66.5q0 50 49 96t119 69l90 -59q-68 -27 -114 -55t-46 -49q0 5 8 5q36 0 92 26l17 -93q-62 -31 -111 -31z" />
    <glyph glyph-name="uni0335" unicode="&#x335;" 
d="M-429 242v101h406v-101h-406z" />
    <glyph glyph-name="uni0336" unicode="&#x336;" 
d="M-707 252v98h633v-98h-633z" />
    <glyph glyph-name="uni0337" unicode="&#x337;" 
d="M-387 144l-42 91l357 197l48 -87z" />
    <glyph glyph-name="endash" unicode="&#x2013;" horiz-adv-x="585" 
d="M50 252v99h485v-99h-485z" />
    <glyph glyph-name="emdash" unicode="&#x2014;" horiz-adv-x="721" 
d="M50 252v99h621v-99h-621z" />
    <glyph glyph-name="quoteleft" unicode="&#x2018;" horiz-adv-x="220" 
d="M116 572q31 0 47.5 -19t16.5 -47q0 -32 -18.5 -51.5t-49.5 -19.5q-43 0 -69.5 34.5t-26.5 91.5q0 67 35 108t107 41h33l19 -92q-40 0 -66 -12.5t-31 -33.5h3z" />
    <glyph glyph-name="quoteright" unicode="&#x2019;" horiz-adv-x="226" 
d="M109 712q43 0 70.5 -35t27.5 -91q0 -66 -36 -107.5t-108 -41.5h-34l-15 94h45q19 2 32.5 14.5t16.5 30.5h-3q-28 0 -46 20t-18 46q0 32 19 51t49 19z" />
    <glyph glyph-name="quotesinglbase" unicode="&#x201a;" horiz-adv-x="691" 
d="M103 128q44 0 71 -36t27 -98q0 -66 -35 -104.5t-108 -38.5l-59 3l7 95l50 -1q43 2 46 40h-3q-29 0 -46.5 20t-17.5 49q0 34 19 52.5t49 18.5z" />
    <glyph glyph-name="quotedblleft" unicode="&#x201c;" horiz-adv-x="333" 
d="M230 572q30 0 46 -19t16 -47q0 -32 -17.5 -51.5t-48.5 -19.5q-36 0 -61 23q-18 -23 -53 -23q-43 0 -69.5 34.5t-26.5 91.5q0 67 35 108t107 41h33l4 -18q30 18 77 18h31l21 -92q-86 0 -98 -46h4zM113 572h3q8 0 12 -1q2 21 6 39q-18 -12 -21 -38z" />
    <glyph glyph-name="quotedblright" unicode="&#x201d;" horiz-adv-x="330" 
d="M219 712q43 0 69 -34.5t26 -91.5q0 -66 -35.5 -107.5t-106.5 -41.5h-35l-3 17q-31 -17 -74 -17h-35l-15 93q84 0 94 46h-4q-31 0 -47 19t-16 47q0 32 19 51t49 19q35 0 61 -24q18 24 53 24zM198 548q16 10 21 28h-4q-10 0 -14 1z" />
    <glyph glyph-name="quotedblbase" unicode="&#x201e;" horiz-adv-x="210" 
d="M103 128q44 0 71 -36t27 -98q0 -66 -35 -104.5t-108 -38.5l-59 3l7 95l50 -1q43 2 46 40h-3q-29 0 -46.5 20t-17.5 49q0 34 19 52.5t49 18.5z" />
    <glyph glyph-name="bullet" unicode="&#x2022;" horiz-adv-x="238" 
d="M118 253q-40 0 -62.5 23t-22.5 67q0 87 85 87q88 0 88 -87q0 -44 -23 -67t-65 -23z" />
    <glyph glyph-name="guilsinglleft" unicode="&#x2039;" horiz-adv-x="338" 
d="M228 10l-209 224v46l209 224l71 -65l-164 -179l164 -183z" />
    <glyph glyph-name="guilsinglright" unicode="&#x203a;" horiz-adv-x="337" 
d="M111 11l-72 65l166 184l-166 180l73 64l208 -224v-46z" />
    <glyph glyph-name="fraction" unicode="&#x2044;" horiz-adv-x="672" 
d="M180 -58l-104 24l418 806l102 -26z" />
    <glyph glyph-name="Euro" unicode="&#x20ac;" horiz-adv-x="656" 
d="M483 458v-94h-458v94h58q13 256 275 256q200 0 271 -200l-95 -57q-47 151 -176 151q-150 0 -168 -150h293zM537 263l94 -50l-10 -31q-63 -196 -268 -196q-259 0 -271 270l1 1h-58v96l458 1v-97h-294q9 -165 164 -165q70 0 114.5 43t69.5 128z" />
    <glyph glyph-name="trademark" unicode="&#x2122;" horiz-adv-x="975" 
d="M776 670h90v-430h-103v203l-90 -154h-64l-87 152v-201h-101v326h-132v-326h-105v326h-152v104h476l133 -234z" />
    <glyph glyph-name="minus" unicode="&#x2212;" horiz-adv-x="609" 
d="M62 270v98h485v-98h-485z" />
    <glyph glyph-name="_FSHallmark" horiz-adv-x="848" 
d="M45 586v91h767v-91h-767zM647 157q-35 0 -63 8q-32 10 -54 26q-24 17 -38 43q-15 25 -15 61l89 -2q0 -2 5 -14q1 -12 13 -24q11 -11 23 -15q15 -9 43 -9q32 0 49 10q18 11 18 25q0 29 -73 42q-79 23 -112 42q-46 22 -46 76q0 42 31 69q25 21 67 37q44 7 63 7q40 0 86 -18
q45 -18 62 -60q10 -27 10 -45h-92q0 9 -7 21q-5 7 -17 16q-3 1 -10.5 4.5t-11.5 4.5q-3 0 -10.5 2t-11.5 2q-21 0 -44 -13q-18 -11 -18 -27q0 -28 17 -37q24 -12 40 -15l34 -9l28 -6q24 -6 27 -6q17 -4 22 -7q14 -6 19 -9q21 -13 29 -25q11 -18 12 -41q1 -24 -10 -45
q-22 -40 -68 -55q-41 -14 -86 -14zM45 157v381h323v-86h-222v-87h185v-84h-185v-124h-101zM405 159q-16 0 -30 14q-16 13 -16 30q0 20 14 33q13 12 32 12q20 0 37 -14q16 -13 16 -31t-16 -32q-17 -12 -37 -12zM44 19v91h767v-91h-767z" />
    <glyph glyph-name="_Fontastica" horiz-adv-x="660" 
d="M41 115q-1 2 -1 4v559h419v-85h-322v-230h322v-86h-322v-162h-96zM197 117v86h324v230h-324v87h324v158h95v-561h-419zM528 25q-1 0 -3.5 1t-6 2t-6.5 2q-7 12 -8 19q0 12 7 19q9 9 17 9q11 0 22 -9l-5 -7l-4 4q-1 1 -9 1h-4h-2q-1 -1 -2.5 -2t-2.5 -3q-5 -5 -5 -9
q0 -5 3 -11q6 -6 9 -6q11 0 17 6l5 -6q-8 -10 -22 -10zM41 27v47h35v-8h-23v-13h22v-7h-22v-19h-12zM119 24q-6 0 -10 3q-15 5 -15 21q0 13 7 20q6 6 19 6q17 0 24 -11q8 -11 2 -22q-4 -13 -21 -16zM207 25q-1 0 -2 1t-2.5 2t-2.5 2l-6 8q0 1 -5 6l-8 12v-29h-12v47h9
q4 -1 5 -5l11 -13q2 -3 6 -7.5t4 -5.5v31h10v-47h-4q-2 -2 -3 -2zM249 27v39h-16v8h41v-8h-15v-39h-10zM376 25q-14 0 -22 9v1l1 2q0 1 2 4l15 -6h7l4 3q0 8 -11 10q-3 0 -3 1h-5q-7 3 -7 12q-3 6 7 12q1 0 4 0.5t6 0.5q11 0 20 -3l-4 -8l-4 2h-5q-1 0 -2 1h-7l-3 -1
q-1 -2 3 -9q3 0 7.5 -2t5.5 -2q9 0 9 -11q0 -12 -8 -14q-1 -2 -10 -2zM426 27v39h-17v8h43v-8h-15v-39h-11zM472 27v47h11v-47h-11zM566 27q12 20 19 47h13l11 -22q1 -2 2.5 -7t2.5 -7q0 -1 2 -5.5t4 -5.5h-11l-5 10h-23l-5 -10h-10zM286 27l20 46h12q0 -4 4 -10l6 -12
q4 -12 4 -13t5 -11h-12q-1 1 -1 3l-2 7h-24v-8l-2 -2h-10zM120 35h5q9 4 9 14v2q0 8 -4 12q-3 3 -11 3q-1 -1 -4 -1l-1 -1q-1 -1 -3 -3.5t-4 -4.5q-6 -5 -1 -10q3 -11 14 -11zM302 46h17l-1 3q-2 1 -3 3q0 1 -1 1q-1 3 -1 6q-1 1 -1 3t-1 3zM585 46h15l-2 3q0 3 -1 4
q-3 3 -3 6q0 4 -2 6z" />
    </font>
</defs>
</svg>
