<?xml version="1.0" standalone="no"?>
<!DOCTYPE svg PUBLIC "-//W3C//DTD SVG 1.1//EN" "http://www.w3.org/Graphics/SVG/1.1/DTD/svg11.dtd" >
<svg xmlns="http://www.w3.org/2000/svg" xmlns:xlink="http://www.w3.org/1999/xlink" version="1.1">
<metadata>
Created by FontForge 20170731 at Tue Feb 11 14:02:27 2020
 By Aleksey,,,
Copyright (c) 2020 by Fontastica. All rights reserved.
</metadata>
<defs>
<font id="Ripple-MediumItalic" horiz-adv-x="0" >
  <font-face 
    font-family="Ripple Medium Italic"
    font-weight="500"
    font-style="italic"
    font-stretch="normal"
    units-per-em="1000"
    panose-1="0 0 6 0 0 0 0 0 0 0"
    ascent="800"
    descent="-200"
    x-height="488"
    cap-height="698"
    bbox="-664 -218 1126 807"
    underline-thickness="50"
    underline-position="-200"
    unicode-range="U+0020-2212"
  />
<missing-glyph horiz-adv-x="556" 
d="M46 -191l151 955h403l-151 -955h-403zM89 -163h325l143 900h-325zM139 -114l168 404l-41 392h38l35 -327l135 327h38l-163 -393l38 -403h-38l-32 334l-140 -334h-38z" />
    <glyph glyph-name=".notdef" horiz-adv-x="556" 
d="M46 -191l151 955h403l-151 -955h-403zM89 -163h325l143 900h-325zM139 -114l168 404l-41 392h38l35 -327l135 327h38l-163 -393l38 -403h-38l-32 334l-140 -334h-38z" />
    <glyph glyph-name=".null" 
 />
    <glyph glyph-name="nonmarkingreturn" horiz-adv-x="333" 
 />
    <glyph glyph-name="space" unicode=" " horiz-adv-x="171" 
 />
    <glyph glyph-name="exclam" unicode="!" horiz-adv-x="279" 
d="M127 135l87 549h68l-87 -549h-68zM138 -11q-51 0 -42 55q8 52 59 52t43 -52q-8 -55 -60 -55z" />
    <glyph glyph-name="quotedbl" unicode="&#x22;" horiz-adv-x="361" 
d="M134 392l46 334h72l-55 -334h-63zM260 392l46 334h72l-55 -334h-63z" />
    <glyph glyph-name="numbersign" unicode="#" horiz-adv-x="763" 
d="M104 0l60 156h-97l25 66h96l90 235h-102l22 66h105l60 161h70l-61 -161h260l61 161h70l-62 -161h102l-22 -66h-104l-90 -235h110l-24 -66h-110l-60 -156h-70l60 156h-260l-60 -156h-69zM258 222h260l89 235h-260z" />
    <glyph glyph-name="dollar" unicode="$" horiz-adv-x="631" 
d="M284 -34l11 71q-163 14 -212 158l62 40q21 -65 67.5 -98t132.5 -33q76 0 125 27t56 72q6 36 -17.5 60.5t-82.5 38.5l-124 32q-162 40 -142 167q24 147 233 152l10 67h71l-11 -68q69 -6 115 -37t82 -99l-56 -47q-30 62 -77 90.5t-126 28.5q-155 0 -169 -86
q-11 -76 98 -100l129 -32q80 -20 114.5 -60t24.5 -107q-13 -80 -77.5 -120.5t-155.5 -45.5l-11 -71h-70z" />
    <glyph glyph-name="percent" unicode="%" horiz-adv-x="740" 
d="M284 383q-69 0 -107 31.5t-27 100.5l7 47q11 70 59 101t117 31q68 0 107.5 -31t28.5 -101l-8 -47q-10 -69 -59.5 -100.5t-117.5 -31.5zM57 -1l648 685h85l-646 -685h-87zM294 447h3q37 0 65 16.5t33 54.5l7 43q6 37 -17.5 54t-61.5 17t-68 -17t-35 -54l-7 -43
q-6 -38 18 -54.5t63 -16.5zM515 -14q-69 0 -107 32.5t-27 103.5l7 43q11 71 59.5 103t117.5 32q68 0 106 -32t27 -103l-7 -43q-11 -71 -59.5 -103.5t-116.5 -32.5zM526 51q90 0 102 73l7 41q6 38 -18 55.5t-62 17.5t-67.5 -17.5t-35.5 -55.5l-7 -41q-6 -38 18 -54.5
t63 -18.5z" />
    <glyph glyph-name="ampersand" unicode="&#x26;" horiz-adv-x="633" 
d="M293 -14q-107 0 -166 48.5t-42 154.5q19 124 114 165q-66 51 -49 151q15 96 86 143t177 47q84 0 141.5 -30t99.5 -108l-59 -42q-55 112 -191 112q-78 0 -125.5 -31.5t-56.5 -92.5q-9 -55 16.5 -87t88.5 -32h358l-11 -66h-56l-15 -96q-12 -74 -42.5 -123.5t-76.5 -72.5
t-90 -31.5t-101 -8.5zM302 57h3q99 0 156.5 36t72.5 131l15 94h-233q-62 0 -106 -32.5t-53 -94.5q-10 -61 29 -96.5t116 -37.5z" />
    <glyph glyph-name="quotesingle" unicode="'" horiz-adv-x="234" 
d="M150 392l46 334h72l-55 -334h-63z" />
    <glyph glyph-name="parenleft" unicode="(" horiz-adv-x="346" 
d="M295 -136q-271 0 -218 330l45 288q52 322 342 322l-10 -68q-221 0 -262 -256l-45 -286q-41 -262 179 -262l-11 -68h-20z" />
    <glyph glyph-name="parenright" unicode=")" horiz-adv-x="346" 
d="M-14 -136l11 68h21q101 0 160.5 64.5t80.5 197.5l46 286q20 130 -24.5 193t-155.5 63l10 68q52 0 92.5 -9.5t75 -32t53 -60t26 -92t-6.5 -128.5l-45 -288q-29 -180 -118 -255t-226 -75z" />
    <glyph glyph-name="asterisk" unicode="*" horiz-adv-x="471" 
d="M372 285l-66 159l-117 -159l-55 42l126 153l-148 33l30 72l147 -44l22 181h77l-37 -182l164 45l5 -72l-159 -32l78 -154z" />
    <glyph glyph-name="plus" unicode="+" horiz-adv-x="609" 
d="M287 92l31 201h-210l11 64h210l32 201h66l-32 -201h208l-10 -64h-209l-32 -201h-65z" />
    <glyph glyph-name="comma" unicode="," horiz-adv-x="183" 
d="M14 -161l-40 1l15 62l33 -1q34 1 56 19.5t27 50.5q2 16 2 23q-11 -6 -24 -6q-22 0 -33 15.5t-7 37.5q4 27 21 41.5t40 14.5q38 0 56.5 -34t9.5 -91q-10 -62 -49 -97.5t-107 -35.5z" />
    <glyph glyph-name="hyphen" unicode="-" horiz-adv-x="465" 
d="M93 274l11 65h365l-11 -65h-365z" />
    <glyph glyph-name="period" unicode="." horiz-adv-x="163" 
d="M78 -11q-50 0 -41 55q9 54 58 54q53 0 44 -54q-8 -55 -61 -55z" />
    <glyph glyph-name="slash" unicode="/" horiz-adv-x="320" 
d="M2 -131l348 919h72l-349 -919h-71z" />
    <glyph glyph-name="zero" unicode="0" horiz-adv-x="686" 
d="M339 -14q-58 0 -103.5 14.5t-80 45.5t-47.5 87.5t-1 133.5l24 150q16 102 66 166.5t113 88.5t142 24q60 0 106 -14t80.5 -45t47.5 -87t1 -133l-23 -150q-24 -150 -111.5 -215.5t-213.5 -65.5zM350 56q210 0 243 211l24 150q16 105 -29 158t-147 53q-100 0 -161 -53
t-78 -158l-23 -150q-34 -211 171 -211z" />
    <glyph glyph-name="one" unicode="1" horiz-adv-x="352" 
d="M161 0l95 603l-97 -42l-14 63l142 60h50l-108 -684h-68z" />
    <glyph glyph-name="two" unicode="2" horiz-adv-x="583" 
d="M65 0l9 56l275 226q148 128 164 225q9 58 -23.5 89t-101.5 31q-146 0 -217 -143l-56 33q95 178 286 178q96 0 147.5 -46t36.5 -140q-11 -69 -58 -133.5t-136 -139.5l-203 -168h389l-11 -68h-501z" />
    <glyph glyph-name="three" unicode="3" horiz-adv-x="596" 
d="M612 514q-17 -109 -110 -160q91 -45 74 -155q-18 -111 -94.5 -162t-188.5 -51q-92 0 -146.5 46.5t-68.5 155.5l67 31q10 -82 47.5 -122t111.5 -40q178 0 201 142q9 58 -30.5 88t-108.5 30h-135l10 66h136q71 0 111.5 34t49.5 93q9 57 -24 87t-104 30q-147 0 -223 -143
l-53 33q95 178 288 178q100 0 152.5 -44.5t37.5 -136.5z" />
    <glyph glyph-name="four" unicode="4" horiz-adv-x="571" 
d="M379 0l20 123h-366l8 51l382 510h83l-372 -493h276l38 242h69l-38 -242h101l-11 -68h-101l-19 -123h-70z" />
    <glyph glyph-name="five" unicode="5" horiz-adv-x="584" 
d="M282 -14q-190 0 -210 205l68 31q12 -166 153 -166q183 0 206 143q10 68 -30.5 97.5t-130.5 29.5h-206l56 358h445l-11 -69h-375l-35 -222h140q134 0 183.5 -48.5t34.5 -145.5q-18 -111 -96 -162t-192 -51z" />
    <glyph glyph-name="six" unicode="6" horiz-adv-x="638" 
d="M402 404q127 0 178.5 -50t36.5 -147q-17 -111 -96 -166t-192 -55q-263 0 -219 281l24 149q44 280 310 280q186 0 223 -176l-65 -39q-30 147 -169 147q-196 0 -230 -211q-9 -54 -12 -80q84 67 211 67zM545 207q10 63 -27.5 96t-129.5 33q-80 0 -139 -35t-69 -93
q-4 -27 0.5 -51t20.5 -48t52 -38t89 -14q86 0 139 39t64 111z" />
    <glyph glyph-name="seven" unicode="7" horiz-adv-x="514" 
d="M106 0l382 615h-394l11 69h480l-8 -49l-390 -635h-81z" />
    <glyph glyph-name="eight" unicode="8" horiz-adv-x="635" 
d="M652 503q-17 -108 -115 -153q100 -45 82 -162q-31 -202 -305 -202q-127 0 -191.5 49t-47.5 153q18 117 133 162q-84 45 -67 153q31 192 286 192q122 0 181.5 -45t43.5 -147zM581 501q10 62 -30.5 94t-134.5 32q-184 0 -204 -126q-9 -58 31 -89t134 -31q185 0 204 120z
M550 191q9 59 -35 90.5t-149 31.5q-201 0 -220 -122q-11 -66 33.5 -100t145.5 -34q203 0 225 134z" />
    <glyph glyph-name="nine" unicode="9" horiz-adv-x="628" 
d="M415 696q46 0 81.5 -8t67 -28t48.5 -53t24.5 -83t-5.5 -118l-21 -136q-13 -79 -43 -136t-73 -88.5t-91.5 -45.5t-105.5 -14q-192 0 -223 190l68 33q21 -153 165 -153q197 0 230 214l10 63l1 5q-80 -70 -210 -70q-127 0 -178.5 52t-34.5 156q18 112 97 166t193 54z
M559 470q7 26 0.5 53.5t-20.5 51t-49 38.5t-86 15q-87 0 -141 -39.5t-66 -112.5q-11 -68 26 -104.5t129 -36.5q80 0 139 36t68 99zM553 342z" />
    <glyph glyph-name="colon" unicode=":" horiz-adv-x="163" 
d="M134 345q-49 0 -41 55q9 52 58 52q53 0 45 -52q-9 -55 -62 -55zM87 48q-50 0 -41 53q9 54 58 54q53 0 44 -54q-7 -53 -61 -53z" />
    <glyph glyph-name="semicolon" unicode=";" horiz-adv-x="184" 
d="M144 347q-24 0 -35.5 14.5t-7.5 40.5q4 25 20.5 38.5t39.5 13.5q25 0 36.5 -13.5t7.5 -38.5q-8 -55 -61 -55zM14 -161l-40 1l15 62l33 -1q34 1 56 19.5t27 50.5q2 16 2 23q-11 -6 -24 -6q-22 0 -33 15.5t-7 37.5q4 27 21 41.5t40 14.5q38 0 56.5 -34t9.5 -91
q-10 -62 -49 -97.5t-107 -35.5z" />
    <glyph glyph-name="less" unicode="&#x3c;" horiz-adv-x="554" 
d="M467 68l-365 231l8 46l437 230l26 -55l-374 -197l312 -197z" />
    <glyph glyph-name="equal" unicode="=" horiz-adv-x="607" 
d="M121 375l11 65h483l-10 -65h-484zM93 196l10 66h484l-10 -66h-484z" />
    <glyph glyph-name="greater" unicode="&#x3e;" horiz-adv-x="551" 
d="M107 68l-25 58l375 197l-313 197l44 55l365 -230l-7 -46z" />
    <glyph glyph-name="question" unicode="?" horiz-adv-x="582" 
d="M234 156l4 20l1 16q6 35 19 62t37.5 48t43 33.5t54.5 32.5q60 35 91.5 66.5t39.5 76.5q9 56 -24 86t-104 30q-69 0 -124.5 -35t-88.5 -106l-57 30q84 179 281 179q99 0 151.5 -45t38.5 -137q-10 -66 -55.5 -113.5t-119.5 -86.5q-49 -27 -78 -54.5t-38 -67.5l-3 -35h-69z
M239 -4q-45 0 -37 47q7 47 52 47q47 0 40 -47q-8 -47 -55 -47z" />
    <glyph glyph-name="at" unicode="@" horiz-adv-x="821" 
d="M404 -119q-365 0 -307 368l12 72q14 92 54.5 160.5t99 107t126 56.5t145.5 18q348 0 294 -341l-13 -79q-16 -100 -66.5 -142t-110.5 -42q-56 0 -81 41q-63 -48 -153 -48q-37 0 -66.5 9.5t-53 30t-32.5 59.5t0 93l4 25q17 103 75 145.5t137 42.5q74 0 114 -30l4 23h66
l-39 -247q-12 -77 38 -77q35 0 60.5 30t34.5 84l15 84q15 125 -46 199t-192 74q-138 0 -229 -75t-116 -197l-12 -77q-16 -140 44.5 -220.5t203.5 -80.5q71 0 150 14.5t123 31.5l3 -70q-166 -42 -286 -42zM418 117q77 0 123 46q0 15 4 41l23 145q-24 38 -106 43h-5
q-50 -2 -86.5 -32t-46.5 -93l-3 -19q-21 -131 97 -131z" />
    <glyph glyph-name="A" unicode="A" horiz-adv-x="725" 
d="M37 0l417 700h46l188 -700h-76l-41 161h-366l-92 -161h-76zM244 223h311l-96 369z" />
    <glyph glyph-name="B" unicode="B" horiz-adv-x="790" 
d="M791 509q-18 -113 -120 -159q87 -45 70 -159q-31 -191 -283 -191h-318l111 700h318q118 0 178 -45t44 -146zM726 508q10 64 -31 96t-135 32h-251l-41 -254h252q186 0 206 126zM676 192q11 69 -37 97.5t-129 28.5h-252l-40 -254h252q185 0 206 128z" />
    <glyph glyph-name="C" unicode="C" horiz-adv-x="792" 
d="M416 -15q-154 0 -233.5 70.5t-55.5 222.5l23 144q12 77 46 134t85.5 90.5t113.5 49.5t136 16q137 0 219 -61t83 -191h-68q-14 185 -245 185q-113 0 -195 -58t-109 -169l-22 -138q-8 -111 56 -169t177 -58q227 0 300 180h69q-45 -128 -145 -188t-235 -60z" />
    <glyph glyph-name="D" unicode="D" horiz-adv-x="854" 
d="M140 0l110 695h282q76 0 132.5 -13t100 -43.5t60.5 -86t5 -134.5l-22 -138q-13 -80 -47 -136.5t-87 -87t-114 -43.5t-138 -13h-282zM220 66h211q60 0 108.5 9.5t92 32.5t71.5 66.5t38 105.5l22 138q10 61 -5 103.5t-51.5 65.5t-82 32.5t-104.5 9.5h-210z" />
    <glyph glyph-name="E" unicode="E" horiz-adv-x="811" 
d="M140 0l111 698h555l-10 -66h-486l-39 -244h486l-10 -63l-485 1l-42 -260h487l-10 -66h-557z" />
    <glyph glyph-name="F" unicode="F" horiz-adv-x="746" 
d="M140 0l111 698h555l-10 -66h-486l-39 -244h486l-10 -63l-485 1l-52 -326h-70z" />
    <glyph glyph-name="G" unicode="G" horiz-adv-x="836" 
d="M436 -15q-75 0 -135 16.5t-104.5 50t-63 91.5t-6.5 135l23 144q12 77 46 134t85.5 90.5t113.5 49.5t136 16q137 0 219 -61t83 -191h-68q-14 185 -245 185q-113 0 -195 -58t-109 -169l-22 -138q-8 -105 60 -166t194 -61q164 0 257 49l35 219h-272l10 65h340l-51 -323
q-129 -78 -323 -78h-8z" />
    <glyph glyph-name="H" unicode="H" horiz-adv-x="863" 
d="M140 0l110 695h70l-49 -307h443l49 307h70l-110 -695h-70l50 321h-442l-51 -321h-70z" />
    <glyph glyph-name="I" unicode="I" horiz-adv-x="350" 
d="M140 0l111 698h69l-110 -698h-70z" />
    <glyph glyph-name="J" unicode="J" horiz-adv-x="770" 
d="M359 -17q-316 0 -263 333h70q-42 -264 204 -264q225 0 265 243l63 400h70l-63 -400q-50 -312 -346 -312z" />
    <glyph glyph-name="K" unicode="K" horiz-adv-x="818" 
d="M140 0l111 698h69l-60 -380l512 380h98l-364 -273l246 -425h-79l-222 385l-205 -154l-36 -231h-70z" />
    <glyph glyph-name="L" unicode="L" horiz-adv-x="697" 
d="M140 0l110 695h70l-100 -628l451 -1l-10 -66h-521z" />
    <glyph glyph-name="M" unicode="M" horiz-adv-x="1039" 
d="M140 0l110 695h65l217 -596l411 596h66l-110 -695h-69l86 544l-378 -544h-46l-198 542l-86 -542h-68z" />
    <glyph glyph-name="N" unicode="N" horiz-adv-x="885" 
d="M140 0l111 698h60l383 -579l92 579h69l-110 -698h-63l-383 581l-91 -581h-68z" />
    <glyph glyph-name="O" unicode="O" horiz-adv-x="843" 
d="M416 -15q-154 0 -233.5 70.5t-55.5 222.5l23 144q12 77 46 134t85.5 90.5t113.5 49.5t136 16q156 0 237.5 -69.5t57.5 -220.5l-22 -144q-24 -151 -128.5 -222t-259.5 -71zM427 53q115 0 199.5 57.5t112.5 169.5l22 138q7 112 -59.5 169.5t-181.5 57.5q-113 0 -195 -58
t-109 -169l-22 -138q-8 -111 55.5 -169t177.5 -58z" />
    <glyph glyph-name="P" unicode="P" horiz-adv-x="748" 
d="M140 0l110 695h300q123 0 172.5 -54t30.5 -175q-41 -255 -281 -255h-229l-33 -211h-70zM253 275h230q84 0 134.5 51t64.5 139q13 85 -22 125t-121 40h-229z" />
    <glyph glyph-name="Q" unicode="Q" horiz-adv-x="843" 
d="M632 -122l-174 108q-15 -1 -42 -1q-154 0 -233.5 70.5t-55.5 222.5l23 144q12 77 46 134t85.5 90.5t113.5 49.5t136 16q156 0 237.5 -69.5t57.5 -220.5l-22 -144q-35 -218 -242 -274l122 -77zM427 53q123 0 204 53.5t100 171.5l22 144q19 117 -45.5 170t-187.5 53
q-120 0 -199.5 -53.5t-97.5 -169.5l-23 -144q-18 -117 44 -171t183 -54z" />
    <glyph glyph-name="R" unicode="R" horiz-adv-x="807" 
d="M140 0l111 698h294q121 0 178 -51t38 -170q-27 -169 -181 -219l131 -258h-85l-124 244l-10 -1q-20 -2 -35 -2h-211l-38 -241h-68zM256 304h213q89 0 148 42.5t73 129.5q13 84 -30 119t-130 35h-222z" />
    <glyph glyph-name="S" unicode="S" horiz-adv-x="815" 
d="M408 -17q-107 0 -178.5 34.5t-129.5 119.5l52 50q52 -76 114 -106.5t153 -30.5q47 0 95.5 12t92.5 45t52 82q5 32 -4.5 55t-32.5 36.5t-45 21t-54 13.5l-79 13q-59 9 -93.5 18t-79 29.5t-62 59.5t-8.5 95q8 53 41 91t81.5 56.5t95 26.5t96.5 8q199 0 290 -148l-54 -47
q-46 69 -106 99t-142 30q-214 0 -233 -116q-8 -55 25.5 -85t91.5 -38l126 -21q52 -8 87 -17.5t71.5 -30.5t51.5 -58t6 -91q-11 -72 -66.5 -120.5t-120.5 -67t-134 -18.5z" />
    <glyph glyph-name="T" unicode="T" horiz-adv-x="696" 
d="M314 0l99 629h-262l10 66h595l-10 -66h-262l-100 -629h-70z" />
    <glyph glyph-name="U" unicode="U" horiz-adv-x="833" 
d="M423 -17q-316 0 -265 312l63 400h70l-63 -400q-39 -243 206 -243q225 0 265 243l63 400h71l-63 -400q-50 -312 -347 -312z" />
    <glyph glyph-name="V" unicode="V" horiz-adv-x="812" 
d="M355 -3l-189 701h78l163 -611l380 611h80l-438 -701h-74z" />
    <glyph glyph-name="W" unicode="W" horiz-adv-x="1086" 
d="M270 0l-90 695h74l74 -579l286 564h66l97 -566l274 581h75l-331 -695h-71l-95 562l-288 -562h-71z" />
    <glyph glyph-name="X" unicode="X" horiz-adv-x="763" 
d="M46 0l345 353l-231 342h87l202 -298l291 298h86l-334 -343l227 -352h-85l-203 305l-298 -305h-87z" />
    <glyph glyph-name="Y" unicode="Y" horiz-adv-x="789" 
d="M362 0l42 266l-242 429h84l204 -360l315 360h83l-372 -427l-43 -268h-71z" />
    <glyph glyph-name="Z" unicode="Z" horiz-adv-x="711" 
d="M80 0l9 56l563 576h-508l11 66h608l-8 -55l-568 -577h497l-11 -66h-593z" />
    <glyph glyph-name="bracketleft" unicode="[" horiz-adv-x="355" 
d="M55 -132l146 919h266l-10 -67h-196l-124 -785h195l-10 -67h-267z" />
    <glyph glyph-name="backslash" unicode="\" horiz-adv-x="320" 
d="M205 -131l-57 919h70l58 -919h-71z" />
    <glyph glyph-name="bracketright" unicode="]" horiz-adv-x="355" 
d="M-9 -132l11 67h195l124 785h-195l11 67h266l-145 -919h-267z" />
    <glyph glyph-name="underscore" unicode="_" horiz-adv-x="482" 
d="M22 -47l10 67h426l-10 -67h-426z" />
    <glyph glyph-name="a" unicode="a" horiz-adv-x="584" 
d="M275 -14q-49 0 -84.5 11.5t-65.5 40.5t-37 79t2 127q40 257 268 257q95 0 156 -26l2 13h64l-78 -488h-62l3 18q-70 -32 -168 -32zM285 51q48 0 96.5 12t72.5 34l47 296q-13 22 -58.5 33.5t-94.5 11.5q-69 0 -123 -43.5t-71 -150.5q-9 -47 -3 -80.5t17 -55.5t31.5 -34.5
t41 -17.5t44.5 -5z" />
    <glyph glyph-name="b" unicode="b" horiz-adv-x="601" 
d="M323 -14q-97 0 -159 33l-3 -19h-63l108 684h66l-33 -209q69 26 165 26q226 0 185 -258q-41 -257 -266 -257zM334 51q31 0 58.5 8.5t55 28.5t48 60t29.5 96q16 108 -23 151t-108 43q-51 0 -99.5 -11.5t-68.5 -33.5l-47 -296q17 -22 62 -34t93 -12z" />
    <glyph glyph-name="c" unicode="c" horiz-adv-x="574" 
d="M280 -14q-39 0 -70.5 7.5t-59.5 25t-43 46.5t-22 73.5t5 104.5q40 256 272 258h3q83 -1 135 -42.5t62 -142.5l-67 2q-10 63 -49.5 90.5t-92.5 29.5q-32 -1 -60.5 -10.5t-57.5 -30.5t-50 -60t-30 -93q-17 -106 24.5 -149.5t113.5 -43.5q119 0 176 115h70
q-80 -178 -256 -180h-3z" />
    <glyph glyph-name="d" unicode="d" horiz-adv-x="594" 
d="M278 -14q-49 0 -85 11.5t-66 40.5t-37 79t2 127q40 257 268 257q95 0 156 -26l33 209h64l-109 -684h-62l3 18q-70 -32 -167 -32zM288 51q47 0 95.5 12t72.5 34l47 296q-13 22 -58.5 33.5t-94.5 11.5q-69 0 -123 -43.5t-71 -150.5q-9 -47 -3 -80.5t17 -55.5t31.5 -34.5
t41 -17.5t45.5 -5z" />
    <glyph glyph-name="e" unicode="e" horiz-adv-x="541" 
d="M280 -14q-39 0 -70.5 7.5t-59.5 25t-43 46.5t-22 73.5t5 104.5q40 256 271 258h4q230 -2 188 -262l-17 -17l-384 1q-8 -94 33.5 -133t107.5 -39q119 0 176 115h70q-80 -178 -256 -180h-3zM165 287h327q3 80 -37 114t-101 37q-150 -6 -189 -151z" />
    <glyph glyph-name="f" unicode="f" horiz-adv-x="427" 
d="M128 0l69 436h-75l10 62h75q21 96 75.5 138.5t142.5 47.5h3q50 0 103 -28l-13 -80q-55 40 -99 40q-123 -7 -148 -118h196l-10 -62h-196l-70 -436h-63z" />
    <glyph glyph-name="g" unicode="g" horiz-adv-x="566" 
d="M254 -195q-133 0 -189 95l53 51q47 -81 145 -81q153 0 174 132l3 15q-73 -31 -165 -31q-103 0 -155.5 57.5t-29.5 199.5q40 258 268 258q95 0 156 -26l2 13h62l-4 -21l-73 -468q-17 -108 -80 -151t-167 -43zM285 51q47 0 94.5 11.5t72.5 33.5l49 297q-14 22 -59 33.5
t-94 11.5q-69 0 -123 -43.5t-71 -150.5q-9 -47 -3 -80.5t17 -55.5t31.5 -34.5t41 -17.5t44.5 -5z" />
    <glyph glyph-name="h" unicode="h" horiz-adv-x="585" 
d="M98 0l108 684h66l-33 -209q69 26 165 26q226 0 185 -258l-39 -243h-64l38 243q17 108 -22 151.5t-108 43.5q-50 0 -99 -11.5t-69 -33.5l-65 -393h-63z" />
    <glyph glyph-name="i" unicode="i" horiz-adv-x="251" 
d="M218 586q-22 0 -33 12.5t-8 33.5q4 21 19 34.5t36 13.5q22 0 32.5 -13t7.5 -35q-4 -21 -18 -33.5t-36 -12.5zM92 0l77 488h63l-77 -488h-63z" />
    <glyph glyph-name="j" unicode="j" horiz-adv-x="296" 
d="M234 586q-21 0 -32.5 12.5t-7.5 33.5q3 21 19 34.5t36 13.5q22 0 33 -13.5t7 -34.5q-7 -46 -55 -46zM-51 -193q-56 0 -102 28l12 79q58 -41 99 -41q131 11 152 138l76 477h63l-75 -475q-17 -108 -73.5 -155t-149.5 -51h-2z" />
    <glyph glyph-name="k" unicode="k" horiz-adv-x="563" 
d="M93 0l108 684h64l-60 -377l292 181h106l-392 -244l315 -244h-106l-235 178l-28 -178h-64z" />
    <glyph glyph-name="l" unicode="l" horiz-adv-x="249" 
d="M92 0l108 684h64l-108 -684h-64z" />
    <glyph glyph-name="m" unicode="m" horiz-adv-x="931" 
d="M441 -2l38 245q7 60 3 97.5t-23.5 59.5t-41 30t-49.5 8q-44 0 -88 -11.5t-63 -32.5l-63 -394h-61l77 488h62l-2 -12q62 25 148 25q125 0 159 -99q70 99 189 99q204 0 163 -258l-38 -243h-63l38 243q32 193 -110 193q-61 0 -108.5 -43t-64.5 -152l-39 -243h-63z" />
    <glyph glyph-name="n" unicode="n" horiz-adv-x="624" 
d="M93 0l77 488h65l-2 -13q69 26 166 26q226 0 185 -258l-39 -243h-64l38 243q17 108 -22 151.5t-108 43.5q-51 0 -100 -11.5t-69 -33.5l-64 -393h-63z" />
    <glyph glyph-name="o" unicode="o" horiz-adv-x="573" 
d="M280 -14q-39 0 -70.5 7.5t-59.5 25t-43 46.5t-22 73.5t5 104.5q40 256 271 258h4q229 -2 189 -258q-41 -255 -271 -257h-3zM293 51q69 0 123.5 43.5t71.5 149.5q9 54 0 93t-31 60t-47 30.5t-56 10.5q-32 -1 -61 -10.5t-58 -30.5t-50 -60t-30 -93q-17 -106 24.5 -149.5
t113.5 -43.5z" />
    <glyph glyph-name="p" unicode="p" horiz-adv-x="594" 
d="M55 -181l106 669h64l-3 -17q71 30 169 30q225 0 184 -257q-41 -258 -266 -258q-96 0 -157 28l-31 -195h-66zM319 51q31 0 58.5 8.5t55.5 28.5t48.5 60t29.5 96q16 108 -23 151t-107 43q-48 0 -96.5 -12t-73.5 -35l-46 -296q13 -21 58.5 -32.5t95.5 -11.5z" />
    <glyph glyph-name="q" unicode="q" horiz-adv-x="598" 
d="M420 -181l31 195q-70 -28 -165 -28q-227 0 -186 259q40 256 267 256q98 0 158 -30l3 17h63l-106 -669h-65zM297 51q49 0 98 11.5t69 32.5l47 296q-18 22 -62.5 34.5t-91.5 12.5q-68 0 -121.5 -43.5t-70.5 -150.5t23 -150t109 -43z" />
    <glyph glyph-name="r" unicode="r" horiz-adv-x="453" 
d="M93 0l77 488h65l-2 -13q69 26 166 26q61 0 109 -22l-12 -76q-58 35 -107 35q-129 0 -169 -41l-64 -397h-63z" />
    <glyph glyph-name="s" unicode="s" horiz-adv-x="517" 
d="M269 -14q-147 0 -198 121l57 43q43 -97 150 -97q50 0 89.5 17.5t45.5 51.5q8 49 -68 69l-115 26q-66 14 -92 47t-17 93q12 75 74 109.5t152 34.5q133 0 203 -117l-56 -45q-57 97 -157 97q-56 0 -98 -18.5t-48 -59.5q-10 -57 66 -78l115 -26q127 -30 110 -131
q-10 -66 -70.5 -101.5t-142.5 -35.5z" />
    <glyph glyph-name="t" unicode="t" horiz-adv-x="481" 
d="M310 -15h-3q-91 4 -131.5 52t-23.5 157l38 239h-67l10 65h67l29 186h64l-29 -186h247l-10 -65h-248l-38 -240q-21 -130 108 -139q46 2 112 40l-13 -81q-64 -28 -112 -28z" />
    <glyph glyph-name="u" unicode="u" horiz-adv-x="624" 
d="M308 -14q-227 0 -186 259l38 243h66l-39 -243q-17 -108 23 -151t109 -43q49 0 98 11.5t70 32.5l63 393h63l-78 -488h-64l2 14q-70 -28 -165 -28z" />
    <glyph glyph-name="v" unicode="v" horiz-adv-x="523" 
d="M229 0l-140 488h74l111 -389l241 389h74l-303 -488h-57z" />
    <glyph glyph-name="w" unicode="w" horiz-adv-x="741" 
d="M174 0l-84 488h75l59 -372l191 372h63l68 -372l184 372h73l-248 -488h-59l-69 372l-193 -372h-60z" />
    <glyph glyph-name="x" unicode="x" horiz-adv-x="499" 
d="M393 -1l-113 200l-175 -199h-85l222 248l-143 240h85l113 -190l172 190h86l-221 -240l144 -249h-85z" />
    <glyph glyph-name="y" unicode="y" horiz-adv-x="539" 
d="M117 -181l117 191l-139 478h79l112 -394l235 394h78l-407 -669h-75z" />
    <glyph glyph-name="z" unicode="z" horiz-adv-x="467" 
d="M51 0l8 50l337 373h-290l10 65h388l-8 -47l-338 -376h294l-10 -65h-391z" />
    <glyph glyph-name="braceleft" unicode="{" horiz-adv-x="331" 
d="M151 -150q-41 0 -68 9.5t-36.5 23.5t-13.5 31.5t1 32.5q10 63 96 163q66 78 71 112q3 17 -6 28.5t-40 20t-86 8.5l11 68h24q116 3 126 56q5 37 -35 113q-55 99 -45 162q14 97 148 97q68 0 126 -20l-24 -65q-54 17 -111 17q-64 0 -68 -32q-6 -39 38 -121
q17 -30 25.5 -48.5t15 -47t2.5 -54.5q-9 -62 -65 -92q47 -30 36 -90q-8 -57 -91 -150q-70 -82 -76 -121q-6 -32 58 -32q69 0 117 21l3 -70q-65 -20 -133 -20z" />
    <glyph glyph-name="bar" unicode="|" horiz-adv-x="259" 
d="M76 -116l146 923h70l-146 -923h-70z" />
    <glyph glyph-name="braceright" unicode="}" horiz-adv-x="336" 
d="M134 -150q-68 0 -128 20l26 69q42 -20 110 -20q62 0 68 32q6 41 -38 121q-16 30 -25 48.5t-15.5 47.5t-3.5 54q12 62 66 90q-46 28 -37 92q4 26 20 55t30.5 47t41.5 48q24 29 35 42.5t24.5 37t16.5 41.5q2 17 -13 24.5t-45 7.5q-59 0 -116 -17l-4 65q60 20 133 20
q76 0 99 -28.5t16 -68.5q-10 -62 -94 -162q-66 -76 -72 -113q-3 -23 22.5 -39t85.5 -17h25l-11 -68h-21q-120 0 -129 -57q-6 -33 35 -112q16 -30 25.5 -51t16 -52.5t2.5 -59.5q-17 -97 -146 -97z" />
    <glyph glyph-name="exclamdown" unicode="&#xa1;" horiz-adv-x="279" 
d="M203 399q-50 0 -43 51q9 54 60 54t43 -54q-9 -51 -60 -51zM77 -181l85 539h69l-86 -539h-68z" />
    <glyph glyph-name="cent" unicode="&#xa2;" horiz-adv-x="568" 
d="M259 1l15 91q-87 7 -133.5 59t-29.5 158l13 80q16 104 78.5 155.5t152.5 59.5l13 80h69l-13 -80q124 -17 162 -118l-61 -40q-30 78 -111 91l-60 -376q83 10 143 88l49 -39l-11 -15q-66 -88 -192 -102l-14 -92h-70zM285 160l59 377q-130 -17 -151 -148l-13 -81
q-11 -70 19 -105.5t86 -42.5z" />
    <glyph glyph-name="sterling" unicode="&#xa3;" horiz-adv-x="610" 
d="M403 628q-71 0 -112.5 -29.5t-49.5 -79.5q-8 -51 25 -142l6 -18h262l-11 -64h-230q12 -56 4 -101q-11 -75 -80 -126h356l-11 -68h-524l10 64q64 11 116.5 45.5t60.5 83.5q8 44 -10 102h-131l10 64h99q-33 95 -23 163q14 88 80.5 131t161.5 43q172 0 230 -156l-62 -39
q-47 127 -177 127z" />
    <glyph glyph-name="yen" unicode="&#xa5;" horiz-adv-x="607" 
d="M268 0l22 138h-174l10 65h174l16 95h-174l10 65h144l-176 321h84l162 -303l255 303h83l-276 -321h143l-10 -65h-174l-15 -95h174l-10 -65h-174l-22 -138h-72z" />
    <glyph glyph-name="brokenbar" unicode="&#xa6;" horiz-adv-x="259" 
d="M152 365l70 442h70l-70 -442h-70zM76 -116l70 445h70l-70 -445h-70z" />
    <glyph glyph-name="copyright" unicode="&#xa9;" horiz-adv-x="696" 
d="M346 -14q-64 0 -115 14.5t-93.5 46t-66 89t-23.5 137.5v140q0 78 23.5 135t66 88t93.5 45.5t115 14.5q51 0 94 -8.5t82.5 -29t67 -52.5t44 -81t16.5 -112v-140q0 -80 -24 -137.5t-67.5 -89t-96 -46t-116.5 -14.5zM346 47q115 0 177.5 57t62.5 167v142q0 111 -62 167.5
t-178 56.5q-114 0 -174.5 -56.5t-60.5 -167.5v-142q0 -111 60.5 -167.5t174.5 -56.5zM356 124q-85 0 -137 41t-52 133v105q0 91 52.5 131.5t137.5 40.5q126 0 180 -114l-49 -37q-44 84 -130 84q-124 0 -124 -105v-106q0 -58 35.5 -83t88.5 -25h7q35 0 68.5 21.5t56.5 66.5
l50 -40l-6 -15q-55 -98 -178 -98z" />
    <glyph glyph-name="guillemotleft" unicode="&#xab;" horiz-adv-x="498" 
d="M228 20l-171 221l5 33l241 222l40 -42l-208 -194l146 -197zM416 20l-171 221l5 33l241 222l40 -42l-208 -194l146 -197z" />
    <glyph glyph-name="registered" unicode="&#xae;" horiz-adv-x="676" 
d="M335 700q125 0 202 -56.5t77 -183.5v-50q0 -68 -22 -117t-61.5 -77t-88 -40.5t-107.5 -12.5q-57 0 -104 12.5t-85.5 40.5t-60.5 77t-22 117v50q0 66 22 114t60.5 74.5t85.5 39t104 12.5zM551 409v51q0 90 -55.5 135.5t-160.5 45.5q-209 0 -209 -181v-51
q0 -92 53.5 -138.5t155.5 -46.5q101 0 156 44h-60l-74 108h-83v-108h-60v347h153q116 0 116 -107v-16q0 -81 -62 -106l76 -113q54 46 54 136zM368 434q26 0 40.5 15.5t14.5 42.5v15q0 50 -55 50h-94v-123h94z" />
    <glyph glyph-name="degree" unicode="&#xb0;" horiz-adv-x="426" 
d="M267 344q-73 0 -115.5 35.5t-29.5 114.5l8 51q13 79 65.5 114.5t126.5 35.5q48 0 82 -13t53 -48t10 -89l-8 -51q-13 -79 -65.5 -114.5t-126.5 -35.5zM277 408h4q41 0 73.5 20.5t40.5 66.5l7 50q8 47 -19.5 67t-70.5 20q-41 0 -74 -20.5t-41 -66.5l-8 -50q-7 -46 20 -66.5
t68 -20.5z" />
    <glyph glyph-name="periodcentered" unicode="&#xb7;" horiz-adv-x="163" 
d="M125 285q-50 0 -41 53q7 54 58 54q53 0 44 -54q-8 -53 -61 -53z" />
    <glyph glyph-name="guillemotright" unicode="&#xbb;" horiz-adv-x="498" 
d="M90 21l-41 42l209 197l-147 194l54 42l170 -222l-6 -33zM277 21l-40 42l209 197l-148 194l54 42l171 -222l-5 -33z" />
    <glyph glyph-name="questiondown" unicode="&#xbf;" horiz-adv-x="555" 
d="M388 406q-18 0 -28 11t-7 31q4 19 17.5 30t30.5 11q43 0 35 -41q-6 -42 -48 -42zM237 -192q-98 0 -150 45t-38 135q19 119 172 197q50 28 78.5 54t35.5 65l5 38h71l-6 -37q-6 -36 -18 -61.5t-35.5 -46.5t-43 -33.5t-59.5 -34.5q-60 -32 -90 -62t-38 -78q-9 -54 24.5 -84
t103.5 -30q69 0 125 36t90 106l54 -30q-85 -179 -281 -179z" />
    <glyph glyph-name="multiply" unicode="&#xd7;" horiz-adv-x="656" 
d="M159 125l-38 48l195 154l-145 152l53 45l146 -156l197 156l41 -45l-195 -153l146 -155l-55 -45l-147 156z" />
    <glyph glyph-name="divide" unicode="&#xf7;" horiz-adv-x="607" 
d="M377 422q-53 0 -43 53q8 51 59 51q53 0 45 -51q-8 -53 -61 -53zM108 293l11 64h483l-10 -64h-484zM331 129q-54 0 -46 53q9 51 62 51q52 0 45 -51q-9 -53 -61 -53z" />
    <glyph glyph-name="uni0302" unicode="&#x302;" 
d="M-189 503l-44 32l159 193h49l98 -194l-54 -29l-82 143z" />
    <glyph glyph-name="uni0304" unicode="&#x304;" 
d="M-280 596l11 65h347l-10 -65h-348z" />
    <glyph glyph-name="uni0306" unicode="&#x306;" 
d="M-79 510q-142 0 -113 183l5 31h67l-6 -35q-7 -52 7 -82.5t50 -30.5q78 0 96 116l5 32h65l-4 -31q-14 -89 -57.5 -136t-114.5 -47z" />
    <glyph glyph-name="uni0307" unicode="&#x307;" 
d="M23 578q-45 0 -38 49q7 46 53 46t39 -46q-4 -22 -18.5 -35.5t-35.5 -13.5z" />
    <glyph glyph-name="uni0308" unicode="&#x308;" 
d="M-167 560q-46 0 -39 49q8 45 53 45q47 0 39 -45q-8 -49 -53 -49zM20 560q-21 0 -32 13.5t-7 35.5q7 45 54 45q46 0 40 -45q-8 -49 -55 -49z" />
    <glyph glyph-name="uni030A" unicode="&#x30a;" 
d="M-79 515q-67 0 -98 28t-23 82l2 15q9 53 49 81t107 28q68 0 99.5 -28t23.5 -81l-3 -15q-16 -110 -157 -110zM-70 575q78 0 86 51l2 13q4 25 -14 37.5t-56 12.5q-75 0 -83 -50l-2 -13q-4 -25 13.5 -38t53.5 -13z" />
    <glyph glyph-name="uni030B" unicode="&#x30b;" 
d="M-205 507l-49 22l138 222l61 -30zM-88 501l-38 36l178 194l47 -44z" />
    <glyph glyph-name="uni030C" unicode="&#x30c;" 
d="M-109 510l-97 196l54 28l81 -142l127 145l44 -33l-159 -194h-50z" />
    <glyph glyph-name="uni0312" unicode="&#x312;" 
d="M4 546q-45 0 -67 29.5t-15 74.5q8 47 42 77.5t98 31.5q4 0 44 -4l-1 -60q-31 4 -49 4q-66 0 -73 -49q-2 -11 0 -22q18 20 45 20q22 0 32.5 -14t7.5 -35q-4 -24 -21.5 -38.5t-42.5 -14.5z" />
    <glyph glyph-name="uni0326" unicode="&#x326;" 
d="M-165 -218q-7 0 -27 2l-20 2l5 61q30 -5 47 -5q31 1 49.5 14.5t21.5 34.5q2 15 1 21q-17 -19 -45 -19q-22 0 -32 14t-7 34q8 53 65 53q44 0 65.5 -29t14.5 -74q-17 -109 -138 -109z" />
    <glyph glyph-name="uni0327" unicode="&#x327;" 
d="M-106 -15q41 -5 62 -27.5t15 -58.5q-6 -40 -39.5 -59.5t-80.5 -19.5q-23 0 -66 8l-25 6l27 61q38 -16 71 -16q48 0 51 20q2 14 -15.5 22.5t-51.5 8.5h-29l38 114h63z" />
    <glyph glyph-name="uni0328" unicode="&#x328;" 
d="M-169 -179q-46 0 -65 20.5t-14 56.5q7 48 60 91t122 65l50 -36q-67 -24 -115 -55.5t-53 -61.5q-2 -7 5 -12t23 -5q35 0 85 20l2 -59q-48 -24 -100 -24z" />
    <glyph glyph-name="uni0335" unicode="&#x335;" 
d="M-379 263l10 66h398l-10 -66h-398z" />
    <glyph glyph-name="uni0336" unicode="&#x336;" 
d="M-664 273l10 65h645l-10 -65h-645z" />
    <glyph glyph-name="uni0337" unicode="&#x337;" 
d="M-352 165l-19 60l381 193l23 -57z" />
    <glyph glyph-name="endash" unicode="&#x2013;" horiz-adv-x="583" 
d="M93 274l11 65h483l-10 -65h-484z" />
    <glyph glyph-name="emdash" unicode="&#x2014;" horiz-adv-x="731" 
d="M93 274l11 65h631l-10 -65h-632z" />
    <glyph glyph-name="quoteleft" unicode="&#x2018;" horiz-adv-x="189" 
d="M174 472q-38 0 -55.5 31.5t-9.5 83.5q10 64 49 102.5t106 38.5h18l4 -57q-47 0 -78.5 -22.5t-37.5 -59.5q-2 -13 -1 -19q13 8 26 8q23 0 32.5 -14.5t6.5 -35.5q-4 -26 -20 -41t-40 -15z" />
    <glyph glyph-name="quoteright" unicode="&#x2019;" horiz-adv-x="196" 
d="M98 474v59h26q33 2 57 24t29 57q2 12 2 17q-11 -6 -25 -6q-21 0 -32.5 15t-8.5 35q4 25 21.5 40t40.5 15q37 0 55.5 -32t10.5 -83q-10 -63 -49.5 -102t-106.5 -39h-20z" />
    <glyph glyph-name="quotesinglbase" unicode="&#x201a;" horiz-adv-x="664" 
d="M14 -161l-40 1l15 62l33 -1q34 1 56 19.5t27 50.5q2 16 2 23q-11 -6 -24 -6q-22 0 -33 15.5t-7 37.5q4 27 21 41.5t40 14.5q38 0 56.5 -34t9.5 -91q-10 -62 -49 -97.5t-107 -35.5z" />
    <glyph glyph-name="quotedblleft" unicode="&#x201c;" horiz-adv-x="311" 
d="M318 578q23 0 32.5 -14.5t6.5 -35.5q-5 -26 -20.5 -41t-39.5 -15q-50 0 -64 51q-5 -23 -21 -37t-38 -14q-38 0 -55.5 31.5t-9.5 83.5q10 64 49 102.5t106 38.5h18l3 -36q39 36 102 36h17l4 -57q-46 0 -77.5 -22.5t-37.5 -59.5q-1 -7 -1 -19q11 8 26 8zM231 587
q8 51 34 84h-6q-34 0 -58.5 -22.5t-30.5 -59.5q-2 -13 -1 -19q13 8 26 8q24 0 34 -17q0 8 2 26z" />
    <glyph glyph-name="quotedblright" unicode="&#x201d;" horiz-adv-x="310" 
d="M327 730q37 0 55 -31.5t10 -83.5q-10 -63 -49.5 -102t-106.5 -39h-19v37q-40 -37 -103 -37h-20v58q46 0 76.5 22t36.5 60q1 7 1 18q-12 -7 -26 -7q-23 0 -33 14.5t-7 35.5q4 25 21.5 40t40.5 15q50 0 63 -54q10 54 60 54zM331 614q1 7 1 19q-13 -8 -26 -8q-26 0 -35 19
q0 -1 -1 -12t-2 -17q-8 -50 -32 -82q39 5 64.5 26.5t30.5 54.5z" />
    <glyph glyph-name="quotedblbase" unicode="&#x201e;" horiz-adv-x="183" 
d="M14 -161l-40 1l15 62l33 -1q34 1 56 19.5t27 50.5q2 16 2 23q-11 -6 -24 -6q-22 0 -33 15.5t-7 37.5q4 27 21 41.5t40 14.5q38 0 56.5 -34t9.5 -91q-10 -62 -49 -97.5t-107 -35.5z" />
    <glyph glyph-name="bullet" unicode="&#x2022;" horiz-adv-x="210" 
d="M148 275q-71 0 -59 76q11 73 82 73q74 0 63 -73q-12 -76 -86 -76z" />
    <glyph glyph-name="guilsinglleft" unicode="&#x2039;" horiz-adv-x="311" 
d="M229 20l-172 221l5 33l242 222l40 -42l-209 -194l147 -197z" />
    <glyph glyph-name="guilsinglright" unicode="&#x203a;" horiz-adv-x="309" 
d="M90 21l-41 42l209 197l-147 194l54 42l171 -222l-6 -33z" />
    <glyph glyph-name="fraction" unicode="&#x2044;" horiz-adv-x="654" 
d="M136 -60l-67 16l566 836l65 -18z" />
    <glyph glyph-name="Euro" unicode="&#x20ac;" horiz-adv-x="646" 
d="M360 56q83 0 139.5 42.5t95.5 128.5l57 -32l-9 -17q-88 -192 -295 -192q-120 0 -181 67t-39 220h-60l11 66h60l6 41h-60l10 64h60q47 270 314 270q199 0 234 -181l-68 -38q-24 149 -177 149q-190 0 -232 -200h314l-11 -64h-313l-7 -41h314l-10 -66h-314
q-33 -217 161 -217z" />
    <glyph glyph-name="trademark" unicode="&#x2122;" horiz-adv-x="1003" 
d="M197 260v355h-165v69h402v-69h-166v-355h-71zM454 260v424h61l157 -275l159 275h63v-424h-69l1 279l-132 -225h-45l-128 223l1 -277h-68z" />
    <glyph glyph-name="minus" unicode="&#x2212;" horiz-adv-x="607" 
d="M108 293l11 64h483l-10 -64h-484z" />
    <glyph glyph-name="_FSHallmark" horiz-adv-x="848" 
d="M45 586v91h767v-91h-767zM647 157q-35 0 -63 8q-32 10 -54 26q-24 17 -38 43q-15 25 -15 61l89 -2q0 -2 5 -14q1 -12 13 -24q11 -11 23 -15q15 -9 43 -9q32 0 49 10q18 11 18 25q0 29 -73 42q-79 23 -112 42q-46 22 -46 76q0 42 31 69q25 21 67 37q44 7 63 7q40 0 86 -18
q45 -18 62 -60q10 -27 10 -45h-92q0 9 -7 21q-5 7 -17 16q-3 1 -10.5 4.5t-11.5 4.5q-3 0 -10.5 2t-11.5 2q-21 0 -44 -13q-18 -11 -18 -27q0 -28 17 -37q24 -12 40 -15l34 -9l28 -6q24 -6 27 -6q17 -4 22 -7q14 -6 19 -9q21 -13 29 -25q11 -18 12 -41q1 -24 -10 -45
q-22 -40 -68 -55q-41 -14 -86 -14zM45 157v381h323v-86h-222v-87h185v-84h-185v-124h-101zM405 159q-16 0 -30 14q-16 13 -16 30q0 20 14 33q13 12 32 12q20 0 37 -14q16 -13 16 -31t-16 -32q-17 -12 -37 -12zM44 19v91h767v-91h-767z" />
    <glyph glyph-name="_Fontastica" horiz-adv-x="660" 
d="M41 115q-1 2 -1 4v559h419v-85h-322v-230h322v-86h-322v-162h-96zM197 117v86h324v230h-324v87h324v158h95v-561h-419zM528 25q-1 0 -3.5 1t-6 2t-6.5 2q-7 12 -8 19q0 12 7 19q9 9 17 9q11 0 22 -9l-5 -7l-4 4q-1 1 -9 1h-4h-2q-1 -1 -2.5 -2t-2.5 -3q-5 -5 -5 -9
q0 -5 3 -11q6 -6 9 -6q11 0 17 6l5 -6q-8 -10 -22 -10zM41 27v47h35v-8h-23v-13h22v-7h-22v-19h-12zM119 24q-6 0 -10 3q-15 5 -15 21q0 13 7 20q6 6 19 6q17 0 24 -11q8 -11 2 -22q-4 -13 -21 -16zM207 25q-1 0 -2 1t-2.5 2t-2.5 2l-6 8q0 1 -5 6l-8 12v-29h-12v47h9
q4 -1 5 -5l11 -13q2 -3 6 -7.5t4 -5.5v31h10v-47h-4q-2 -2 -3 -2zM249 27v39h-16v8h41v-8h-15v-39h-10zM376 25q-14 0 -22 9v1l1 2q0 1 2 4l15 -6h7l4 3q0 8 -11 10q-3 0 -3 1h-5q-7 3 -7 12q-3 6 7 12q1 0 4 0.5t6 0.5q11 0 20 -3l-4 -8l-4 2h-5q-1 0 -2 1h-7l-3 -1
q-1 -2 3 -9q3 0 7.5 -2t5.5 -2q9 0 9 -11q0 -12 -8 -14q-1 -2 -10 -2zM426 27v39h-17v8h43v-8h-15v-39h-11zM472 27v47h11v-47h-11zM566 27q12 20 19 47h13l11 -22q1 -2 2.5 -7t2.5 -7q0 -1 2 -5.5t4 -5.5h-11l-5 10h-23l-5 -10h-10zM286 27l20 46h12q0 -4 4 -10l6 -12
q4 -12 4 -13t5 -11h-12q-1 1 -1 3l-2 7h-24v-8l-2 -2h-10zM120 35h5q9 4 9 14v2q0 8 -4 12q-3 3 -11 3q-1 -1 -4 -1l-1 -1q-1 -1 -3 -3.5t-4 -4.5q-6 -5 -1 -10q3 -11 14 -11zM302 46h17l-1 3q-2 1 -3 3q0 1 -1 1q-1 3 -1 6q-1 1 -1 3t-1 3zM585 46h15l-2 3q0 3 -1 4
q-3 3 -3 6q0 4 -2 6z" />
    </font>
</defs>
</svg>
