<?xml version="1.0" standalone="no"?>
<!DOCTYPE svg PUBLIC "-//W3C//DTD SVG 1.1//EN" "http://www.w3.org/Graphics/SVG/1.1/DTD/svg11.dtd" >
<svg xmlns="http://www.w3.org/2000/svg" xmlns:xlink="http://www.w3.org/1999/xlink" version="1.1">
<metadata>
Created by FontForge 20170731 at Tue Feb 11 13:45:44 2020
 By Aleksey,,,
Copyright (c) 2020 by Fontastica. All rights reserved.
</metadata>
<defs>
<font id="Ripple-HeavyItalic" horiz-adv-x="0" >
  <font-face 
    font-family="Ripple Heavy Italic"
    font-weight="900"
    font-style="italic"
    font-stretch="normal"
    units-per-em="1000"
    panose-1="0 0 10 0 0 0 0 0 0 0"
    ascent="800"
    descent="-200"
    x-height="488"
    cap-height="698"
    bbox="-667 -201 1126 783"
    underline-thickness="50"
    underline-position="-200"
    unicode-range="U+0020-2212"
  />
<missing-glyph horiz-adv-x="556" 
d="M46 -191l151 955h403l-151 -955h-403zM89 -163h325l143 900h-325zM139 -114l168 404l-41 392h38l35 -327l135 327h38l-163 -393l38 -403h-38l-32 334l-140 -334h-38z" />
    <glyph glyph-name=".notdef" horiz-adv-x="556" 
d="M46 -191l151 955h403l-151 -955h-403zM89 -163h325l143 900h-325zM139 -114l168 404l-41 392h38l35 -327l135 327h38l-163 -393l38 -403h-38l-32 334l-140 -334h-38z" />
    <glyph glyph-name=".null" 
 />
    <glyph glyph-name="nonmarkingreturn" horiz-adv-x="333" 
 />
    <glyph glyph-name="space" unicode=" " horiz-adv-x="157" 
 />
    <glyph glyph-name="exclam" unicode="!" horiz-adv-x="310" 
d="M201 125q38 -10 31 -65q-11 -71 -78 -71t-56 71q9 54 52 65h-26l86 545h103l-86 -545h-26z" />
    <glyph glyph-name="quotedbl" unicode="&#x22;" horiz-adv-x="385" 
d="M129 361l48 347h107l-59 -347h-96zM244 361l49 347h106l-57 -347h-98z" />
    <glyph glyph-name="numbersign" unicode="#" horiz-adv-x="757" 
d="M100 0l54 144h-89l38 100h89l68 177h-93l33 100h97l56 149h105l-57 -149h199l58 149h104l-58 -149h93l-33 -100h-96l-68 -177h101l-38 -100h-101l-55 -144h-105l55 144h-199l-55 -144h-103zM297 244h199l67 177h-199z" />
    <glyph glyph-name="dollar" unicode="$" horiz-adv-x="641" 
d="M271 -32l10 68q-146 22 -197 169l93 61q21 -65 62 -98t114 -33q61 0 100 19.5t44 52.5q5 26 -14 43.5t-66 28.5l-114 29q-164 42 -142 173q22 144 216 160l10 62h104l-10 -65q61 -8 104.5 -41.5t80.5 -103.5l-85 -71q-31 62 -73 90.5t-109 28.5q-125 0 -134 -59
q-4 -25 15.5 -43.5t63.5 -28.5l119 -30q81 -20 116 -61.5t24 -111.5q-13 -77 -73 -119.5t-144 -51.5l-11 -68h-104z" />
    <glyph glyph-name="percent" unicode="%" horiz-adv-x="772" 
d="M572 316q71 0 110.5 -34t27.5 -111l-6 -39q-12 -75 -63 -109.5t-121 -34.5q-73 0 -113 34.5t-28 109.5l7 39q4 32 18 58l-217 -230h-130l358 379q-44 -25 -109 -25q-72 0 -112 33.5t-28 107.5l7 44q12 74 62.5 107.5t122.5 33.5t113 -33.5t29 -107.5l-7 -44
q-5 -28 -15 -49l213 225h129l-358 -379q44 25 110 25zM398 537q4 24 -12.5 35t-42.5 11q-65 0 -72 -46l-7 -40q-4 -25 13 -35.5t45 -10.5h3q59 0 67 46zM614 171q4 25 -13 36.5t-44 11.5q-66 0 -74 -48l-6 -37q-6 -44 59 -48q64 0 72 48z" />
    <glyph glyph-name="ampersand" unicode="&#x26;" horiz-adv-x="627" 
d="M293 -12q-51 0 -91 11t-70.5 34t-42.5 64t-3 96q17 110 91 155q-44 54 -32 137q16 98 88 146.5t178 48.5q82 0 141 -33t104 -118l-91 -63q-54 112 -168 112q-131 0 -146 -95q-6 -41 13.5 -65.5t67.5 -24.5h349l-16 -100h-52l-11 -69q-12 -74 -42.5 -123.5t-76 -72.5
t-89.5 -31.5t-101 -8.5zM309 92h2q83 0 129.5 28.5t58.5 105.5l10 67h-193q-50 0 -84 -25t-42 -73q-7 -45 26 -72.5t93 -30.5z" />
    <glyph glyph-name="quotesingle" unicode="'" horiz-adv-x="268" 
d="M145 361l48 347h107l-59 -347h-96z" />
    <glyph glyph-name="parenleft" unicode="(" horiz-adv-x="362" 
d="M294 -126q-268 0 -217 324l43 266q49 316 357 316l-16 -101q-204 0 -238 -217l-42 -264q-35 -221 168 -221l-16 -103h-39z" />
    <glyph glyph-name="parenright" unicode=")" horiz-adv-x="362" 
d="M-12 -126l16 103h39q165 0 200 221l42 264q17 110 -24.5 163.5t-145.5 53.5l17 101q54 0 97 -9.5t79.5 -31.5t56.5 -58.5t28.5 -90t-4.5 -126.5l-43 -266q-14 -91 -47 -155.5t-81.5 -100.5t-104.5 -52t-125 -16z" />
    <glyph glyph-name="asterisk" unicode="*" horiz-adv-x="487" 
d="M361 254l-56 135l-99 -135l-82 61l111 134l-128 29l42 105l130 -38l20 159h111l-32 -160l144 39l8 -105l-137 -28l67 -134z" />
    <glyph glyph-name="plus" unicode="+" horiz-adv-x="611" 
d="M269 84l30 186h-194l15 98h195l30 186h98l-29 -186h192l-16 -98h-193l-29 -186h-99z" />
    <glyph glyph-name="comma" unicode="," horiz-adv-x="210" 
d="M123 128q44 0 65.5 -36t11.5 -98q-10 -66 -51.5 -104.5t-114.5 -38.5l-58 3l22 95l50 -1q41 2 51 40h-2q-29 0 -43.5 20t-9.5 49q6 34 27.5 52.5t51.5 18.5zM104 2l-2 -2v-2q0 2 2 4z" />
    <glyph glyph-name="hyphen" unicode="-" horiz-adv-x="475" 
d="M90 252l16 99h375l-16 -99h-375z" />
    <glyph glyph-name="period" unicode="." horiz-adv-x="194" 
d="M94 -11q-66 0 -55 71q11 69 77 69q67 0 57 -69q-11 -71 -79 -71z" />
    <glyph glyph-name="slash" unicode="/" horiz-adv-x="347" 
d="M4 -121l335 886h107l-336 -886h-106z" />
    <glyph glyph-name="zero" unicode="0" horiz-adv-x="682" 
d="M337 -12q-57 0 -102 14t-79.5 44.5t-47.5 86t-1 132.5l22 139q23 147 109.5 211.5t208.5 64.5q59 0 105 -14t80.5 -44.5t47.5 -86t1 -131.5l-22 -139q-24 -148 -110.5 -212.5t-211.5 -64.5zM353 91q175 0 202 174l22 139q14 87 -24 131t-122 44q-82 0 -133 -44t-65 -131
l-21 -139q-14 -86 22.5 -130t118.5 -44z" />
    <glyph glyph-name="one" unicode="1" horiz-adv-x="382" 
d="M157 0l86 544l-79 -34l-22 95l153 65h70l-106 -670h-102z" />
    <glyph glyph-name="two" unicode="2" horiz-adv-x="585" 
d="M67 0l13 80l260 214q131 114 143 193q7 44 -18.5 67.5t-79.5 23.5q-121 0 -191 -141l-84 50q105 193 293 193q97 0 149.5 -47.5t37.5 -143.5q-11 -68 -56 -130.5t-131 -135.5l-147 -121h328l-16 -102h-501z" />
    <glyph glyph-name="three" unicode="3" horiz-adv-x="600" 
d="M615 493q-15 -93 -89 -146q69 -51 54 -144q-18 -112 -94.5 -163.5t-188.5 -51.5q-93 0 -147 49.5t-70 165.5l101 47q9 -80 41 -119t92 -39q144 0 162 111q6 43 -25 66t-87 23h-143l16 100h143q56 0 88 26.5t40 71.5q7 43 -20 65.5t-83 22.5q-123 0 -196 -141l-80 50
q101 193 293 193q101 0 154 -46t39 -141z" />
    <glyph glyph-name="four" unicode="4" horiz-adv-x="569" 
d="M350 0l18 113h-337l11 73l363 484h123l-344 -455h200l35 224h105l-36 -224h94l-16 -102h-94l-18 -113h-104z" />
    <glyph glyph-name="five" unicode="5" horiz-adv-x="588" 
d="M286 -12q-191 0 -211 218l100 47q14 -162 127 -162q150 0 167 112q9 52 -24.5 74.5t-107.5 22.5h-209l58 370h449l-16 -104h-347l-26 -165h111q134 0 183.5 -50t33.5 -148q-18 -113 -96 -164t-192 -51z" />
    <glyph glyph-name="six" unicode="6" horiz-adv-x="640" 
d="M401 412q127 0 179 -51t37 -150q-18 -112 -96.5 -167.5t-191.5 -55.5q-46 0 -82 8t-67.5 27t-48.5 50.5t-25 79t4 112.5l22 138q44 277 308 277q187 0 225 -189l-97 -59q-30 147 -144 147q-162 0 -190 -175q-2 -20 -6 -40q83 48 173 48zM510 211q8 48 -22.5 73.5
t-105.5 25.5q-65 0 -113 -27t-55 -71q-7 -49 21.5 -84.5t110.5 -35.5q70 0 112.5 30.5t51.5 88.5z" />
    <glyph glyph-name="seven" unicode="7" horiz-adv-x="516" 
d="M86 0l353 566h-352l16 104h482l-11 -70l-370 -600h-118z" />
    <glyph glyph-name="eight" unicode="8" horiz-adv-x="631" 
d="M647 483q-15 -91 -90 -141q75 -50 60 -150q-32 -204 -305 -204q-126 0 -190 49.5t-47 154.5q17 101 104 152q-56 49 -42 139q31 197 285 197q123 0 182 -46t43 -151zM241 481q-7 -44 25.5 -67t109.5 -23q153 0 167 90q8 48 -26 72.5t-111 24.5q-150 0 -165 -97zM513 195
q7 46 -30 69.5t-123 23.5q-165 0 -181 -93q-8 -51 29.5 -77t120.5 -26q167 0 184 103z" />
    <glyph glyph-name="nine" unicode="9" horiz-adv-x="630" 
d="M416 680q121 0 180.5 -64t35.5 -222l-20 -126q-45 -280 -311 -280q-191 0 -225 204l102 48q19 -149 138 -149q162 0 190 177l4 25q-76 -46 -171 -46q-128 0 -179 53t-34 158q18 113 97 167.5t193 54.5zM358 348q66 0 113.5 28t55.5 77q7 50 -21 88t-107 38
q-71 0 -114.5 -31.5t-52.5 -89.5q-9 -53 21.5 -81.5t104.5 -28.5z" />
    <glyph glyph-name="colon" unicode=":" horiz-adv-x="194" 
d="M146 318q-66 0 -55 70q11 68 77 68q32 0 47 -17.5t10 -50.5q-11 -70 -79 -70zM103 44q-66 0 -55 69t77 69q31 0 46 -17.5t10 -51.5q-11 -69 -78 -69z" />
    <glyph glyph-name="semicolon" unicode=";" horiz-adv-x="211" 
d="M175 458q32 0 47.5 -17.5t10.5 -50.5t-26 -51.5t-53 -18.5q-31 0 -46.5 18.5t-10.5 51.5q5 32 26.5 50t51.5 18zM123 128q44 0 65.5 -36t11.5 -98q-10 -66 -51.5 -104.5t-114.5 -38.5l-58 3l22 95l50 -1q41 2 51 40h-2q-29 0 -43.5 20t-9.5 49q6 34 27.5 52.5t51.5 18.5z
M104 2l-2 -2v-2q0 2 2 4z" />
    <glyph glyph-name="less" unicode="&#x3c;" horiz-adv-x="567" 
d="M459 56l-359 228l10 65l431 226l41 -83l-332 -175l276 -174z" />
    <glyph glyph-name="equal" unicode="=" horiz-adv-x="609" 
d="M117 346l15 98h485l-16 -98h-484zM91 180l16 101h484l-16 -101h-484z" />
    <glyph glyph-name="greater" unicode="&#x3e;" horiz-adv-x="564" 
d="M124 56l-39 87l332 174l-277 175l66 83l362 -226l-11 -65z" />
    <glyph glyph-name="question" unicode="?" horiz-adv-x="588" 
d="M223 144l9 52q5 36 18.5 63.5t38 49.5t42.5 34.5t54 32.5q49 28 76 54.5t32 60.5q7 42 -19 64.5t-83 22.5t-105 -35t-79 -104l-86 46q91 195 287 195q100 0 153 -46.5t38 -141.5q-10 -67 -54.5 -115t-117.5 -86q-82 -44 -95 -96l-3 -51h-106zM247 -4q-61 0 -50 63
q10 63 70 63q63 0 53 -63q-9 -63 -73 -63z" />
    <glyph glyph-name="at" unicode="@" horiz-adv-x="804" 
d="M396 -109q-355 0 -299 358l11 66q14 91 53.5 157.5t96.5 104.5t122.5 55.5t141.5 17.5q340 0 288 -334l-12 -73q-9 -54 -29 -92.5t-47 -58.5t-54 -28.5t-56 -8.5q-52 0 -79 30q-61 -37 -137 -37q-82 0 -127 45t-28 151l3 23q32 194 218 194q48 0 88 -16l1 9h99l-39 -247
q-8 -52 19 -52q23 0 40.5 23t24.5 64l14 76q9 104 -43 168t-160 64q-114 0 -192.5 -65t-103.5 -166l-11 -71q-10 -117 42.5 -187.5t170.5 -70.5q64 0 142 16t125 34l5 -105q-164 -44 -288 -44zM415 147q56 0 91 30q0 6 1.5 15.5t2.5 15.5l20 125q-19 25 -81 28h-3
q-37 -2 -65 -25t-35 -71l-3 -17q-16 -101 72 -101z" />
    <glyph glyph-name="A" unicode="A" horiz-adv-x="748" 
d="M37 0l417 700h69l188 -700h-115l-38 152h-319l-87 -152h-115zM298 250h234l-72 277z" />
    <glyph glyph-name="B" unicode="B" horiz-adv-x="798" 
d="M798 500q-16 -99 -98 -152q65 -49 50 -148q-31 -200 -290 -200h-320l111 700h320q120 0 181.5 -47t45.5 -153zM339 600l-32 -200h218q156 0 172 99q8 51 -27 76t-113 25h-218zM650 201q8 55 -32 77t-109 22h-218l-32 -200h219q156 0 172 101z" />
    <glyph glyph-name="C" unicode="C" horiz-adv-x="797" 
d="M416 -15q-154 0 -233 72t-55 225l21 136q12 78 46.5 136t86 92t113.5 50t136 16q137 0 219 -67.5t83 -210.5h-102q-12 175 -216 175q-94 0 -166 -51.5t-98 -143.5l-20 -129q-4 -92 52 -144t150 -52q199 0 268 170h105q-49 -141 -152 -207.5t-238 -66.5z" />
    <glyph glyph-name="D" unicode="D" horiz-adv-x="858" 
d="M140 0l110 695h286q76 0 132.5 -13.5t100 -44t61 -87t4.5 -136.5l-21 -130q-13 -82 -47.5 -139t-87.5 -88t-114 -44t-138 -13h-286zM262 102h178q111 0 182.5 40.5t88.5 141.5l20 130q8 52 -5 88.5t-45 55.5t-71.5 27.5t-91.5 8.5h-179z" />
    <glyph glyph-name="E" unicode="E" horiz-adv-x="819" 
d="M140 0l111 698h564l-17 -102h-458l-30 -190h458l-15 -99l-459 1l-32 -206h459l-16 -102h-565z" />
    <glyph glyph-name="F" unicode="F" horiz-adv-x="754" 
d="M140 0l111 698h564l-17 -102h-458l-30 -190h458l-15 -99l-459 1l-49 -308h-105z" />
    <glyph glyph-name="G" unicode="G" horiz-adv-x="840" 
d="M436 -15q-75 0 -134.5 16.5t-104 51t-63 93t-6.5 136.5l21 136q12 78 46.5 136t86 92t113.5 50t136 16q137 0 219 -67.5t83 -210.5h-102q-12 175 -216 175q-94 0 -166 -51.5t-98 -143.5l-20 -129q-4 -88 56 -142t167 -54q141 0 221 39l28 175h-257l16 101h361l-53 -335
q-138 -84 -326 -84h-8z" />
    <glyph glyph-name="H" unicode="H" horiz-adv-x="869" 
d="M140 0l110 695h106l-46 -289h378l46 289h105l-110 -695h-105l48 303h-379l-48 -303h-105z" />
    <glyph glyph-name="I" unicode="I" horiz-adv-x="385" 
d="M140 0l111 698h105l-111 -698h-105z" />
    <glyph glyph-name="J" unicode="J" horiz-adv-x="775" 
d="M361 -17q-317 0 -262 355h106q-40 -249 173 -249q194 0 227 210l63 396h106l-63 -396q-24 -154 -111.5 -235t-238.5 -81z" />
    <glyph glyph-name="K" unicode="K" horiz-adv-x="856" 
d="M140 0l111 698h105l-53 -336l452 336h153l-373 -281l241 -417h-123l-205 354l-166 -125l-37 -229h-105z" />
    <glyph glyph-name="L" unicode="L" horiz-adv-x="707" 
d="M140 0l110 695h106l-94 -592l425 -1l-16 -102h-531z" />
    <glyph glyph-name="M" unicode="M" horiz-adv-x="1035" 
d="M140 0l110 695h93l197 -539l372 539h93l-110 -695h-104l72 455l-316 -455h-67l-165 451l-71 -451h-104z" />
    <glyph glyph-name="N" unicode="N" horiz-adv-x="891" 
d="M140 0l111 698h85l339 -510l81 510h105l-110 -698h-89l-338 512l-80 -512h-104z" />
    <glyph glyph-name="O" unicode="O" horiz-adv-x="845" 
d="M416 -15q-154 0 -233 72t-55 225l21 136q12 78 46.5 136t86 92t113.5 50t136 16q156 0 238 -70.5t58 -223.5l-22 -136q-24 -153 -129 -225t-260 -72zM433 89q96 0 170.5 51.5t102.5 145.5l20 127q2 93 -56.5 144.5t-154.5 51.5q-94 0 -166 -51.5t-98 -143.5l-20 -129
q-4 -93 52 -144.5t150 -51.5z" />
    <glyph glyph-name="P" unicode="P" horiz-adv-x="757" 
d="M140 0l110 695h302q127 0 178 -55.5t31 -179.5q-41 -261 -288 -261h-196l-32 -199h-105zM293 299h196q70 0 112 43t54 117q11 70 -18.5 103t-100.5 33h-196z" />
    <glyph glyph-name="Q" unicode="Q" horiz-adv-x="845" 
d="M624 -120l-172 106q-11 -1 -36 -1q-154 0 -233 72t-55 225l21 136q12 78 46.5 136t86 92t113.5 50t136 16q156 0 238 -70.5t58 -223.5l-22 -136q-30 -196 -201 -263l101 -63zM433 89q107 0 178 46t87 147l21 136q16 100 -40.5 145.5t-163.5 45.5q-104 0 -172.5 -45.5
t-84.5 -145.5l-22 -136q-16 -101 38 -147t159 -46z" />
    <glyph glyph-name="R" unicode="R" horiz-adv-x="831" 
d="M768 469q-28 -158 -162 -215l129 -254h-127l-116 229q-20 -2 -34 -2h-178l-36 -227h-104l111 698h297q253 0 220 -229zM661 469q11 69 -24.5 97.5t-108.5 28.5h-190l-43 -269h181q75 0 124 35.5t61 107.5z" />
    <glyph glyph-name="S" unicode="S" horiz-adv-x="831" 
d="M416 -17q-105 0 -178 37t-136 129l81 77q52 -77 109.5 -108t139.5 -31q67 0 131 27.5t73 83.5q4 24 -4.5 42t-28 28.5t-38 17t-45.5 11.5l-73 13q-45 7 -74.5 13.5t-68.5 22t-61 36t-34.5 56t-5.5 82.5q9 56 43 96t83 59.5t96.5 28t97.5 8.5q197 0 296 -162l-82 -72
q-48 71 -103 101.5t-128 30.5q-183 0 -198 -90q-7 -43 21 -66.5t77 -30.5l118 -19q51 -8 87 -19t72.5 -33t52 -60.5t6.5 -93.5q-9 -56 -43 -99.5t-82.5 -67.5t-99.5 -36t-101 -12z" />
    <glyph glyph-name="T" unicode="T" horiz-adv-x="702" 
d="M299 0l94 594h-248l16 101h601l-16 -101h-248l-94 -594h-105z" />
    <glyph glyph-name="U" unicode="U" horiz-adv-x="838" 
d="M425 -17q-316 0 -267 316l63 396h106l-63 -396q-34 -210 178 -210q194 0 227 210l63 396h107l-63 -396q-50 -316 -351 -316z" />
    <glyph glyph-name="V" unicode="V" horiz-adv-x="833" 
d="M355 -3l-189 701h117l146 -548l341 548h119l-438 -701h-96z" />
    <glyph glyph-name="W" unicode="W" horiz-adv-x="1086" 
d="M270 0l-90 695h111l63 -500l249 487h89l84 -491l237 504h113l-331 -695h-96l-83 489l-250 -489h-96z" />
    <glyph glyph-name="X" unicode="X" horiz-adv-x="808" 
d="M46 0l345 353l-231 342h133l182 -270l265 270h130l-333 -343l227 -352h-130l-185 277l-270 -277h-133z" />
    <glyph glyph-name="Y" unicode="Y" horiz-adv-x="827" 
d="M364 0l42 264l-244 431h128l185 -325l284 325h127l-374 -429l-42 -266h-106z" />
    <glyph glyph-name="Z" unicode="Z" horiz-adv-x="715" 
d="M78 0l13 80l505 516h-458l17 102h614l-12 -79l-510 -517h446l-16 -102h-599z" />
    <glyph glyph-name="bracketleft" unicode="[" horiz-adv-x="373" 
d="M57 -122l140 887h285l-16 -102h-180l-109 -683h181l-16 -102h-285z" />
    <glyph glyph-name="backslash" unicode="\" horiz-adv-x="347" 
d="M198 -121l-54 886h106l55 -886h-107z" />
    <glyph glyph-name="bracketright" unicode="]" horiz-adv-x="373" 
d="M-7 -122l16 102h179l109 683h-180l16 102h285l-140 -887h-285z" />
    <glyph glyph-name="underscore" unicode="_" horiz-adv-x="488" 
d="M22 -43l16 100h432l-16 -100h-432z" />
    <glyph glyph-name="a" unicode="a" horiz-adv-x="588" 
d="M485 488h98l-77 -488h-97l1 7q-54 -19 -133 -19q-39 0 -69.5 7t-58.5 24t-42.5 46t-21.5 73.5t5 105.5q40 257 270 257q69 0 125 -17v4zM427 117l40 257q-28 29 -122 29q-131 0 -157 -159q-14 -87 18.5 -122.5t86.5 -35.5q87 0 134 31z" />
    <glyph glyph-name="b" unicode="b" horiz-adv-x="605" 
d="M326 -12q-73 0 -130 20l-1 -8h-97l106 670h100l-30 -186q62 17 132 17q227 0 186 -258q-40 -255 -266 -255zM341 86q53 0 96 35.5t57 122.5q14 88 -17.5 123.5t-85.5 35.5q-98 0 -134 -29l-41 -257q36 -31 125 -31z" />
    <glyph glyph-name="c" unicode="c" horiz-adv-x="584" 
d="M285 -12h-3q-40 0 -71.5 7.5t-60 24.5t-43 46t-21.5 73t4 104q40 256 274 258h2q84 -1 137 -48.5t64 -161.5l-101 2q-10 57 -42.5 82.5t-73.5 27.5q-56 -3 -101.5 -39.5t-59.5 -119.5q-5 -48 0 -78.5t24 -48t39.5 -24.5t46.5 -7q96 0 149 106h104q-90 -202 -267 -204z
" />
    <glyph glyph-name="d" unicode="d" horiz-adv-x="598" 
d="M516 670h98l-106 -670h-97l1 7q-54 -19 -132 -19q-40 0 -70.5 7t-58.5 24t-42.5 46t-21.5 73.5t5 105.5q40 257 270 257q69 0 125 -17zM429 117l40 257q-28 29 -122 29q-131 0 -157 -159q-14 -87 18.5 -122.5t87.5 -35.5q86 0 133 31z" />
    <glyph glyph-name="e" unicode="e" horiz-adv-x="548" 
d="M285 -12h-3q-40 0 -71.5 7.5t-60 24.5t-43 46t-21.5 73t4 104q40 256 273 258h3q230 -2 188 -268l-5 -29l-363 1q1 -63 33.5 -91t79.5 -28q96 0 149 106h104q-90 -202 -267 -204zM205 304h256q-6 93 -112 99q-111 -6 -144 -99z" />
    <glyph glyph-name="f" unicode="f" horiz-adv-x="437" 
d="M122 0l64 402h-69l15 96h71q22 92 75 129.5t142 42.5h4q52 0 114 -34l-20 -121q-70 52 -107 52q-84 -4 -109 -69h178l-15 -96h-182l-64 -402h-97z" />
    <glyph glyph-name="g" unicode="g" horiz-adv-x="570" 
d="M485 488h96l-6 -38l-67 -431q-18 -111 -81.5 -155t-169.5 -44q-132 0 -195 108l80 78q50 -87 131 -87q113 0 135 89q-63 -20 -131 -20q-39 0 -70 7t-58.5 24t-42 46t-21.5 73t5 105q40 258 270 258q69 0 125 -17v4zM426 118l41 256q-29 29 -122 29q-131 0 -157 -159
q-14 -87 18.5 -122.5t86.5 -35.5q86 0 133 32z" />
    <glyph glyph-name="h" unicode="h" horiz-adv-x="589" 
d="M98 0l106 670h100l-30 -186q62 17 132 17q227 0 186 -258l-38 -243h-99l39 243q5 49 0.5 80t-22.5 49t-37.5 24.5t-43.5 6.5q-96 0 -135 -30l-61 -373h-97z" />
    <glyph glyph-name="i" unicode="i" horiz-adv-x="283" 
d="M226 540q-29 0 -44 17t-10 45t25 46t49 18t43.5 -18t9.5 -46t-24 -45t-49 -17zM90 0l78 488h98l-78 -488h-98z" />
    <glyph glyph-name="j" unicode="j" horiz-adv-x="310" 
d="M225 540q-27 0 -42 17.5t-11 44.5q4 28 25 46t48 18q29 0 43.5 -18t9.5 -46t-24 -45t-49 -17zM-37 -178q-55 0 -113 34l19 121q76 -55 107 -55q103 11 119 108l72 458h98l-72 -457q-18 -110 -75 -157.5t-153 -51.5h-2z" />
    <glyph glyph-name="k" unicode="k" horiz-adv-x="612" 
d="M93 0l106 670h98l-52 -330l240 148h167l-393 -244l316 -244h-167l-194 147l-23 -147h-98z" />
    <glyph glyph-name="l" unicode="l" horiz-adv-x="283" 
d="M92 0l106 670h98l-106 -670h-98z" />
    <glyph glyph-name="m" unicode="m" horiz-adv-x="911" 
d="M702 501q208 0 168 -258l-39 -243h-98l39 243q24 159 -85 159q-112 0 -136 -161l-39 -243h-99l39 245q14 89 -12.5 124.5t-73.5 35.5q-84 0 -117 -27l-60 -376h-96l77 488h97v-3q57 16 114 16q109 0 150 -74q69 74 171 74z" />
    <glyph glyph-name="n" unicode="n" horiz-adv-x="628" 
d="M401 501q227 0 186 -258l-38 -243h-99l39 243q5 49 0.5 80t-22.5 49t-37.5 24.5t-43.5 6.5q-97 0 -135 -29l-61 -374h-97l77 488h99l-1 -5q66 18 133 18z" />
    <glyph glyph-name="o" unicode="o" horiz-adv-x="575" 
d="M285 -12h-2q-108 1 -161.5 58t-31.5 197q40 256 273 258h3q230 -2 190 -258q-40 -253 -271 -255zM299 86q56 0 100 35.5t58 122.5q7 44 0 75.5t-24.5 49t-38 25.5t-45.5 9q-56 -3 -101 -39.5t-59 -119.5q-5 -48 0 -78.5t24 -48t39.5 -24.5t46.5 -7z" />
    <glyph glyph-name="p" unicode="p" horiz-adv-x="598" 
d="M393 501q48 0 84 -11t66 -40t37.5 -79t-1.5 -127q-41 -256 -268 -256q-70 0 -127 17l-27 -172h-99l103 655h98l-1 -6q60 19 135 19zM480 244q14 88 -17.5 123.5t-84.5 35.5q-92 0 -136 -32l-40 -256q13 -13 50 -21t75 -8q53 0 96 35.5t57 122.5z" />
    <glyph glyph-name="q" unicode="q" horiz-adv-x="602" 
d="M392 -167l27 172q-60 -17 -130 -17q-39 0 -70 7t-59 24t-43 46t-22 73.5t5 106.5q40 256 269 256q74 0 127 -19l1 6h97l-104 -655h-98zM304 86q94 0 132 29l41 256q-33 32 -123 32q-129 0 -155 -159q-14 -87 18 -122.5t87 -35.5z" />
    <glyph glyph-name="r" unicode="r" horiz-adv-x="465" 
d="M401 501q63 0 118 -28l-18 -115q-75 45 -115 45q-99 0 -135 -26l-61 -377h-97l77 488h99l-1 -5q66 18 133 18z" />
    <glyph glyph-name="s" unicode="s" horiz-adv-x="535" 
d="M277 -12q-146 0 -204 135l88 64q44 -99 131 -99q38 0 68 11t33 33q4 29 -50 45l-105 24q-70 14 -96.5 49t-16.5 99q13 79 76 115.5t154 36.5q134 0 210 -130l-85 -68q-58 99 -140 99q-103 0 -112 -52q-5 -37 49 -53l106 -24q132 -32 114 -140q-11 -70 -73.5 -107.5
t-146.5 -37.5z" />
    <glyph glyph-name="t" unicode="t" horiz-adv-x="491" 
d="M311 -13h-4q-94 4 -136 52.5t-24 158.5l32 201h-62l16 99h61l28 172h98l-27 -172h229l-16 -99h-229l-32 -202q-16 -99 84 -108q35 2 124 53l-20 -123q-74 -32 -122 -32z" />
    <glyph glyph-name="u" unicode="u" horiz-adv-x="628" 
d="M519 488h97l-77 -488h-99l1 6q-66 -18 -130 -18q-39 0 -70 7t-59 24t-43 46t-22 73.5t5 106.5l38 243h100l-38 -243q-14 -88 17.5 -123.5t86.5 -35.5q93 0 133 29z" />
    <glyph glyph-name="v" unicode="v" horiz-adv-x="545" 
d="M229 0l-140 488h112l94 -330l204 330h112l-304 -488h-78z" />
    <glyph glyph-name="w" unicode="w" horiz-adv-x="739" 
d="M174 0l-84 488h111l48 -300l154 300h86l55 -300l148 300h110l-249 -488h-82l-56 303l-157 -303h-84z" />
    <glyph glyph-name="x" unicode="x" horiz-adv-x="542" 
d="M393 -1l-96 171l-149 -170h-128l222 248l-143 240h126l98 -161l146 161h129l-223 -240l144 -249h-126z" />
    <glyph glyph-name="y" unicode="y" horiz-adv-x="560" 
d="M109 -167l120 196l-134 459h116l95 -333l200 333h115l-399 -655h-113z" />
    <glyph glyph-name="z" unicode="z" horiz-adv-x="475" 
d="M51 0l11 72l286 318h-247l15 98h397l-11 -69l-289 -320h252l-15 -99h-399z" />
    <glyph glyph-name="braceleft" unicode="{" horiz-adv-x="351" 
d="M161 -138q-44 0 -73 10.5t-39 26.5t-14 35.5t1 36.5q4 28 21 60t31.5 50.5t41.5 50.5q56 69 60 92q6 33 -124 33l16 102h41q89 3 94 32q4 27 -31 93q-54 99 -44 161q19 108 160 108q68 0 138 -24l-35 -98q-66 21 -117 21q-38 0 -41 -10q-4 -25 30 -94l4 -6
q51 -89 41 -150q-8 -53 -47 -85q29 -32 21 -83q-10 -61 -89 -150q-61 -69 -65 -100q0 -3 4 -5.5t12.5 -3.5t20.5 -1q58 0 124 29l3 -107q-79 -24 -145 -24z" />
    <glyph glyph-name="bar" unicode="|" horiz-adv-x="293" 
d="M77 -107l141 890h104l-141 -890h-104z" />
    <glyph glyph-name="braceright" unicode="}" horiz-adv-x="357" 
d="M149 -138q-68 0 -140 24l40 106q54 -28 114 -28q38 0 39 10q6 33 -33 100q-16 30 -24.5 48t-15 47t-2.5 55q9 51 47 83q-29 32 -21 85q4 26 19.5 55t30.5 48t40 47q60 70 65 100q0 3 -4 5.5t-12 3.5t-20 1q-50 0 -122 -21l-8 97q77 25 149 25q81 0 104.5 -32t16.5 -77
q-11 -61 -92 -160q-56 -66 -60 -93q-5 -29 83 -32h42l-16 -102h-40q-91 0 -96 -33q-3 -24 26 -82l5 -10q52 -96 41 -161q-17 -109 -156 -109z" />
    <glyph glyph-name="exclamdown" unicode="&#xa1;" horiz-adv-x="310" 
d="M235 504q67 0 56 -70q-9 -59 -61 -65h35l-85 -536h-102l85 536h35q-50 6 -40 65q11 70 77 70z" />
    <glyph glyph-name="cent" unicode="&#xa2;" horiz-adv-x="578" 
d="M244 1l13 86q-79 13 -120.5 65.5t-26.5 152.5l12 73q15 97 74 150t141 66l13 76h103l-12 -78q108 -20 151 -130l-91 -61q-28 73 -77 88l-47 -297q55 18 107 85l74 -59l-22 -29q-61 -82 -175 -101l-14 -87h-103zM274 191l47 300q-83 -24 -97 -113l-11 -74q-15 -91 61 -113
z" />
    <glyph glyph-name="sterling" unicode="&#xa3;" horiz-adv-x="609" 
d="M320 198q-9 -54 -46 -96h302l-16 -102h-522l15 95q59 10 106.5 37.5t53.5 64.5q6 38 -5 75h-128l16 98h80q-23 73 -13 131q14 90 81 134.5t164 44.5q172 0 234 -169l-94 -59q-45 127 -154 127q-57 0 -89 -22t-38 -59q-6 -41 23 -122l2 -6h248l-16 -98h-204q5 -42 0 -74z
" />
    <glyph glyph-name="yen" unicode="&#xa5;" horiz-adv-x="637" 
d="M266 0l20 127h-160l16 99h160l8 49h-161l16 98h114l-161 297h124l142 -265l223 265h125l-256 -297h115l-16 -98h-160l-8 -49h161l-16 -99h-160l-21 -127h-105z" />
    <glyph glyph-name="brokenbar" unicode="&#xa6;" horiz-adv-x="293" 
d="M322 783l-71 -447l-70 -443h-104l71 450l70 440h104z" />
    <glyph glyph-name="copyright" unicode="&#xa9;" horiz-adv-x="688" 
d="M342 -12q-294 0 -294 283v129q0 78 23 134t65 87t92.5 45t113.5 14t115 -14t94.5 -45t66.5 -87.5t24 -133.5v-129q0 -79 -24 -136t-67 -88t-94 -45t-115 -14zM342 82q97 0 149 47.5t52 139.5v131q0 94 -51.5 141t-149.5 47q-96 0 -146.5 -47.5t-50.5 -140.5v-131
q0 -93 50.5 -140t146.5 -47zM344 157q-83 0 -128 39t-45 112v64q0 73 45 111.5t128 38.5q78 0 125 -39t55 -112h-78q-13 82 -102 82q-40 0 -65.5 -22t-29.5 -61v-60q4 -39 30 -61.5t65 -22.5q87 0 101 81h80q-10 -72 -57 -111t-124 -39z" />
    <glyph glyph-name="guillemotleft" unicode="&#xab;" horiz-adv-x="511" 
d="M229 10l-173 224l7 46l244 224l61 -65l-193 -179l135 -183zM402 10l-173 224l7 46l244 224l62 -64l-194 -180l135 -183z" />
    <glyph glyph-name="registered" unicode="&#xae;" horiz-adv-x="672" 
d="M333 684q124 0 200.5 -56.5t76.5 -183.5v-46q0 -68 -22 -117.5t-61 -77t-87 -40.5t-107 -13q-56 0 -102.5 13t-85 40.5t-60.5 77t-22 117.5v46q0 87 39 142.5t97 76.5t134 21zM531 402v35q0 90 -54.5 129.5t-142.5 39.5q-85 0 -138 -40t-53 -129v-35q0 -92 53 -133
t138 -41q97 0 147 45h-85l-58 83h-36v-83h-83v306h136q56 0 82 -24.5t26 -76.5v-13q0 -60 -40 -89l65 -97q43 45 43 123zM381 478q0 20 -25 20h-54v-58h54q25 0 25 25v13z" />
    <glyph glyph-name="degree" unicode="&#xb0;" horiz-adv-x="439" 
d="M268 317q-75 0 -118.5 37.5t-30.5 120.5l8 47q13 84 68 121t131 37q77 0 120.5 -37t30.5 -121l-8 -47q-13 -84 -68 -121t-133 -37zM284 416h4q72 0 82 60l7 46q5 33 -14.5 47t-52.5 14q-30 0 -54.5 -14t-29.5 -47l-7 -46q-5 -32 15 -46t50 -14z" />
    <glyph glyph-name="periodcentered" unicode="&#xb7;" horiz-adv-x="194" 
d="M137 263q-66 0 -55 68q12 69 77 69q67 0 57 -69q-11 -68 -79 -68z" />
    <glyph glyph-name="guillemotright" unicode="&#xbb;" horiz-adv-x="511" 
d="M113 11l-62 65l194 184l-136 180l82 64l172 -224l-7 -46zM286 11l-61 66l194 183l-138 180l83 64l174 -224l-8 -46z" />
    <glyph glyph-name="questiondown" unicode="&#xbf;" horiz-adv-x="561" 
d="M380 374q-24 0 -37.5 15.5t-9.5 42.5q4 28 22.5 42.5t43.5 14.5q58 0 49 -57q-9 -58 -68 -58zM242 -177q-99 0 -151.5 46.5t-38.5 138.5q19 119 170 199q84 46 94 93l7 54h106l-9 -53q-6 -37 -18 -63.5t-36 -48t-42.5 -33.5t-59.5 -35q-50 -26 -75.5 -50.5t-31.5 -61.5
q-7 -40 20 -62.5t82 -22.5q57 0 106 35.5t82 104.5l82 -46q-93 -195 -287 -195z" />
    <glyph glyph-name="multiply" unicode="&#xd7;" horiz-adv-x="679" 
d="M181 107l-58 73l179 141l-134 140l81 69l135 -145l182 145l62 -69l-179 -141l134 -143l-84 -68l-136 144z" />
    <glyph glyph-name="divide" unicode="&#xf7;" horiz-adv-x="609" 
d="M372 389q-33 0 -47.5 18t-9.5 50q11 67 78 67q69 0 58 -67q-11 -68 -79 -68zM105 270l15 98h485l-16 -98h-484zM329 119q-34 0 -49 18t-10 51q11 66 80 66t58 -66q-11 -69 -79 -69z" />
    <glyph glyph-name="uni0302" unicode="&#x302;" 
d="M-198 456l-71 51l167 203h67l103 -205l-85 -45l-71 123z" />
    <glyph glyph-name="uni0304" unicode="&#x304;" 
d="M-299 549l16 100h359l-16 -100h-359z" />
    <glyph glyph-name="uni0306" unicode="&#x306;" 
d="M-94 470q-150 0 -121 188l8 48h103l-12 -52q-7 -84 37 -84q52 0 67 87l7 49h98l-6 -48q-14 -91 -60 -139.5t-121 -48.5z" />
    <glyph glyph-name="uni0307" unicode="&#x307;" 
d="M-1 533q-29 0 -42 17.5t-8 47.5q9 61 70 61q63 0 53 -61q-5 -30 -24 -47.5t-49 -17.5z" />
    <glyph glyph-name="uni0308" unicode="&#x308;" 
d="M-175 516q-30 0 -43.5 17.5t-8.5 47.5q9 61 72 61q61 0 52 -61q-5 -31 -23.5 -48t-48.5 -17zM-3 516q-28 0 -41.5 17.5t-9.5 47.5q4 29 23.5 45t47.5 16q30 0 44 -15.5t9 -45.5t-24 -47.5t-49 -17.5z" />
    <glyph glyph-name="uni030A" unicode="&#x30a;" 
d="M-96 474q-70 0 -103 31t-24 91l2 13q20 120 166 120q72 0 105.5 -30.5t24.5 -89.5l-2 -13q-19 -122 -169 -122zM-81 569q52 0 57 28l2 11q2 13 -10 20t-38 7q-50 0 -54 -27l-2 -11q-2 -13 10 -20.5t35 -7.5z" />
    <glyph glyph-name="uni030B" unicode="&#x30b;" 
d="M-210 462l-77 35l149 240l92 -44zM-108 454l-60 57l193 210l69 -66z" />
    <glyph glyph-name="uni030C" unicode="&#x30c;" 
d="M-138 470l-104 207l87 45l70 -124l111 127l69 -51l-167 -204h-66z" />
    <glyph glyph-name="uni0312" unicode="&#x312;" 
d="M95 638q-50 6 -65 6q-26 0 -37 -9q6 1 16 1q30 0 44 -18.5t10 -45.5q-5 -31 -27 -50t-55 -19q-50 0 -75 33.5t-17 82.5q8 51 45.5 85t106.5 35q9 0 26 -3q5 0 32 -3z" />
    <glyph glyph-name="uni0326" unicode="&#x326;" 
d="M-113 33q50 0 74 -32t16 -82q-19 -120 -150 -120q-8 0 -26 2l-34 3l6 98q58 -9 65 -9q20 2 30 9q-4 -1 -12 -1q-29 0 -43 19t-9 45q11 68 83 68z" />
    <glyph glyph-name="uni0327" unicode="&#x327;" 
d="M-91 19q78 -23 66 -93q-7 -46 -44 -69t-90 -23q-27 0 -60 7l-47 11l43 98q1 0 4 -2t5 -2l45 134h98zM-146 -72q22 0 24 -2q2 10 -45 10h-20q24 -8 41 -8z" />
    <glyph glyph-name="uni0328" unicode="&#x328;" 
d="M-199 -165q-52 0 -74 24.5t-16 66.5q8 50 64 95.5t130 69.5l81 -59q-170 -63 -177 -104q2 5 9 5q34 0 97 26l2 -93q-65 -31 -116 -31z" />
    <glyph glyph-name="uni0335" unicode="&#x335;" 
d="M-391 242l16 101h406l-16 -101h-406z" />
    <glyph glyph-name="uni0336" unicode="&#x336;" 
d="M-667 252l15 98h634l-16 -98h-633z" />
    <glyph glyph-name="uni0337" unicode="&#x337;" 
d="M-364 144l-28 91l388 197l34 -87z" />
    <glyph glyph-name="endash" unicode="&#x2013;" horiz-adv-x="585" 
d="M90 252l16 99h484l-15 -99h-485z" />
    <glyph glyph-name="emdash" unicode="&#x2014;" horiz-adv-x="721" 
d="M90 252l16 99h621l-16 -99h-621z" />
    <glyph glyph-name="quoteleft" unicode="&#x2018;" horiz-adv-x="220" 
d="M207 572q31 0 44.5 -19.5t8.5 -46.5q-5 -32 -26.5 -51.5t-52.5 -19.5q-43 0 -64 34.5t-12 91.5q10 67 52 108t113 41h33l5 -92q-86 0 -104 -46h3z" />
    <glyph glyph-name="quoteright" unicode="&#x2019;" horiz-adv-x="226" 
d="M222 712q42 0 64 -35t13 -91q-10 -66 -52.5 -107.5t-114.5 -41.5h-34v94h45q44 5 57 45h-3q-28 0 -43.5 19.5t-11.5 46.5q5 32 27.5 51t52.5 19z" />
    <glyph glyph-name="quotesinglbase" unicode="&#x201a;" horiz-adv-x="691" 
d="M123 128q44 0 65.5 -36t11.5 -98q-10 -66 -51.5 -104.5t-114.5 -38.5l-58 3l22 95l50 -1q41 2 51 40h-2q-29 0 -43.5 20t-9.5 49q6 34 27.5 52.5t51.5 18.5zM104 2l-2 -2v-2q0 2 2 4z" />
    <glyph glyph-name="quotedblleft" unicode="&#x201c;" horiz-adv-x="333" 
d="M320 572q30 0 43.5 -19.5t9.5 -46.5q-5 -32 -26 -51.5t-52 -19.5q-37 0 -57 23q-23 -23 -57 -23q-43 0 -64 34.5t-12 91.5q10 67 52 108t113 41h33l1 -18q33 18 80 18h31l7 -92q-87 0 -105 -46h3zM203 572h4q8 0 12 -1q5 21 12 39q-20 -11 -28 -38z" />
    <glyph glyph-name="quotedblright" unicode="&#x201d;" horiz-adv-x="330" 
d="M332 712q43 0 63.5 -34.5t11.5 -91.5q-10 -66 -52.5 -107.5t-112.5 -41.5h-36v17q-34 -17 -77 -17h-35v93q84 0 102 46h-4q-32 0 -45 19t-9 47q5 32 27.5 51t52.5 19q35 0 57 -24q22 24 57 24zM284 547q20 12 26 29h-4q-10 0 -15 1q-4 -20 -7 -30z" />
    <glyph glyph-name="quotedblbase" unicode="&#x201e;" horiz-adv-x="210" 
d="M123 128q44 0 65.5 -36t11.5 -98q-10 -66 -51.5 -104.5t-114.5 -38.5l-58 3l22 95l50 -1q41 2 51 40h-2q-29 0 -43.5 20t-9.5 49q6 34 27.5 52.5t51.5 18.5zM104 2l-2 -2v-2q0 2 2 4z" />
    <glyph glyph-name="bullet" unicode="&#x2022;" horiz-adv-x="238" 
d="M158 253q-40 0 -59 23t-12 67q14 87 99 87q88 0 74 -87q-14 -90 -102 -90z" />
    <glyph glyph-name="guilsinglleft" unicode="&#x2039;" horiz-adv-x="338" 
d="M230 10l-174 224l7 46l245 224l61 -65l-193 -179l135 -183z" />
    <glyph glyph-name="guilsinglright" unicode="&#x203a;" horiz-adv-x="337" 
d="M113 11l-62 65l195 184l-137 180l82 64l173 -224l-7 -46z" />
    <glyph glyph-name="fraction" unicode="&#x2044;" horiz-adv-x="672" 
d="M170 -58l-99 24l545 806l98 -26z" />
    <glyph glyph-name="Euro" unicode="&#x20ac;" horiz-adv-x="656" 
d="M541 364h-458l-2 -11l17 105h58q53 256 315 256q92 0 155.5 -48t83.5 -152l-104 -57q-23 151 -152 151q-150 0 -191 -150h293zM368 92q70 0 121 42.5t90 128.5l86 -50l-15 -31q-94 -196 -299 -196q-57 0 -100.5 14t-76.5 44t-46.5 84t-4.5 128l1 1h-58l15 96l458 1
l-15 -97h-294q-18 -165 138 -165z" />
    <glyph glyph-name="trademark" unicode="&#x2122;" horiz-adv-x="975" 
d="M776 670h90v-430h-103v203l-90 -154h-64l-87 152v-201h-101v326h-132v-326h-105v326h-152v104h476l133 -234z" />
    <glyph glyph-name="minus" unicode="&#x2212;" horiz-adv-x="609" 
d="M105 270l15 98h485l-16 -98h-484z" />
    <glyph glyph-name="_FSHallmark" horiz-adv-x="848" 
d="M45 586v91h767v-91h-767zM647 157q-35 0 -63 8q-32 10 -54 26q-24 17 -38 43q-15 25 -15 61l89 -2q0 -2 5 -14q1 -12 13 -24q11 -11 23 -15q15 -9 43 -9q32 0 49 10q18 11 18 25q0 29 -73 42q-79 23 -112 42q-46 22 -46 76q0 42 31 69q25 21 67 37q44 7 63 7q40 0 86 -18
q45 -18 62 -60q10 -27 10 -45h-92q0 9 -7 21q-5 7 -17 16q-3 1 -10.5 4.5t-11.5 4.5q-3 0 -10.5 2t-11.5 2q-21 0 -44 -13q-18 -11 -18 -27q0 -28 17 -37q24 -12 40 -15l34 -9l28 -6q24 -6 27 -6q17 -4 22 -7q14 -6 19 -9q21 -13 29 -25q11 -18 12 -41q1 -24 -10 -45
q-22 -40 -68 -55q-41 -14 -86 -14zM45 157v381h323v-86h-222v-87h185v-84h-185v-124h-101zM405 159q-16 0 -30 14q-16 13 -16 30q0 20 14 33q13 12 32 12q20 0 37 -14q16 -13 16 -31t-16 -32q-17 -12 -37 -12zM44 19v91h767v-91h-767z" />
    <glyph glyph-name="_Fontastica" horiz-adv-x="660" 
d="M41 115q-1 2 -1 4v559h419v-85h-322v-230h322v-86h-322v-162h-96zM197 117v86h324v230h-324v87h324v158h95v-561h-419zM528 25q-1 0 -3.5 1t-6 2t-6.5 2q-7 12 -8 19q0 12 7 19q9 9 17 9q11 0 22 -9l-5 -7l-4 4q-1 1 -9 1h-4h-2q-1 -1 -2.5 -2t-2.5 -3q-5 -5 -5 -9
q0 -5 3 -11q6 -6 9 -6q11 0 17 6l5 -6q-8 -10 -22 -10zM41 27v47h35v-8h-23v-13h22v-7h-22v-19h-12zM119 24q-6 0 -10 3q-15 5 -15 21q0 13 7 20q6 6 19 6q17 0 24 -11q8 -11 2 -22q-4 -13 -21 -16zM207 25q-1 0 -2 1t-2.5 2t-2.5 2l-6 8q0 1 -5 6l-8 12v-29h-12v47h9
q4 -1 5 -5l11 -13q2 -3 6 -7.5t4 -5.5v31h10v-47h-4q-2 -2 -3 -2zM249 27v39h-16v8h41v-8h-15v-39h-10zM376 25q-14 0 -22 9v1l1 2q0 1 2 4l15 -6h7l4 3q0 8 -11 10q-3 0 -3 1h-5q-7 3 -7 12q-3 6 7 12q1 0 4 0.5t6 0.5q11 0 20 -3l-4 -8l-4 2h-5q-1 0 -2 1h-7l-3 -1
q-1 -2 3 -9q3 0 7.5 -2t5.5 -2q9 0 9 -11q0 -12 -8 -14q-1 -2 -10 -2zM426 27v39h-17v8h43v-8h-15v-39h-11zM472 27v47h11v-47h-11zM566 27q12 20 19 47h13l11 -22q1 -2 2.5 -7t2.5 -7q0 -1 2 -5.5t4 -5.5h-11l-5 10h-23l-5 -10h-10zM286 27l20 46h12q0 -4 4 -10l6 -12
q4 -12 4 -13t5 -11h-12q-1 1 -1 3l-2 7h-24v-8l-2 -2h-10zM120 35h5q9 4 9 14v2q0 8 -4 12q-3 3 -11 3q-1 -1 -4 -1l-1 -1q-1 -1 -3 -3.5t-4 -4.5q-6 -5 -1 -10q3 -11 14 -11zM302 46h17l-1 3q-2 1 -3 3q0 1 -1 1q-1 3 -1 6q-1 1 -1 3t-1 3zM585 46h15l-2 3q0 3 -1 4
q-3 3 -3 6q0 4 -2 6z" />
    </font>
</defs>
</svg>
