<?xml version="1.0" standalone="no"?>
<!DOCTYPE svg PUBLIC "-//W3C//DTD SVG 1.1//EN" "http://www.w3.org/Graphics/SVG/1.1/DTD/svg11.dtd" >
<svg xmlns="http://www.w3.org/2000/svg" xmlns:xlink="http://www.w3.org/1999/xlink" version="1.1">
<metadata>
Created by FontForge 20170731 at Tue Feb 11 13:46:47 2020
 By Aleksey,,,
Copyright (c) 2020 by Fontastica. All rights reserved.
</metadata>
<defs>
<font id="Ripple-LightItalic" horiz-adv-x="0" >
  <font-face 
    font-family="Ripple Light Italic"
    font-weight="300"
    font-style="italic"
    font-stretch="normal"
    units-per-em="1000"
    panose-1="0 0 4 0 0 0 0 0 0 0"
    ascent="800"
    descent="-200"
    x-height="488"
    cap-height="698"
    bbox="-661 -230 1126 825"
    underline-thickness="50"
    underline-position="-200"
    unicode-range="U+0020-2212"
  />
<missing-glyph horiz-adv-x="556" 
d="M46 -191l151 955h403l-151 -955h-403zM89 -163h325l143 900h-325zM139 -114l168 404l-41 392h38l35 -327l135 327h38l-163 -393l38 -403h-38l-32 334l-140 -334h-38z" />
    <glyph glyph-name=".notdef" horiz-adv-x="556" 
d="M46 -191l151 955h403l-151 -955h-403zM89 -163h325l143 900h-325zM139 -114l168 404l-41 392h38l35 -327l135 327h38l-163 -393l38 -403h-38l-32 334l-140 -334h-38z" />
    <glyph glyph-name=".null" 
 />
    <glyph glyph-name="nonmarkingreturn" horiz-adv-x="333" 
 />
    <glyph glyph-name="space" unicode=" " horiz-adv-x="181" 
 />
    <glyph glyph-name="exclam" unicode="!" horiz-adv-x="256" 
d="M128 143l88 551h44l-88 -551h-44zM126 -11q-38 0 -32 43q7 40 46 40q40 0 33 -40q-6 -43 -47 -43z" />
    <glyph glyph-name="quotedbl" unicode="&#x22;" horiz-adv-x="343" 
d="M138 415l44 324h47l-54 -324h-37zM271 415l45 324h46l-53 -324h-38z" />
    <glyph glyph-name="numbersign" unicode="#" horiz-adv-x="767" 
d="M500 0h-44l63 166h-305l-63 -166h-43l63 166h-103l16 40h102l106 278h-110l14 41h111l64 169h44l-65 -169h305l65 169h44l-65 -169h108l-14 -41h-109l-105 -278h115l-13 -40h-118zM230 206h305l106 278h-306z" />
    <glyph glyph-name="dollar" unicode="$" horiz-adv-x="625" 
d="M402 622q-178 0 -195 -106q-14 -90 113 -120l136 -34q79 -19 113.5 -58t24.5 -103q-9 -54 -47.5 -91t-88 -53t-108.5 -18l-12 -75h-45l12 75q-89 4 -144 39t-79 109l37 25q21 -65 72.5 -98t147.5 -33q87 0 143.5 32.5t64.5 87.5q7 44 -19.5 73t-94.5 46l-132 33
q-160 41 -140 162q23 146 243 148l11 69h45l-11 -70q74 -5 123.5 -34.5t83.5 -93.5l-34 -29q-30 61 -81 89t-139 28z" />
    <glyph glyph-name="percent" unicode="%" horiz-adv-x="725" 
d="M271 405q-66 0 -103.5 30t-26.5 96l8 49q11 67 57 96.5t113 29.5q66 0 103.5 -30t27.5 -96l-8 -49q-10 -66 -57.5 -96t-113.5 -30zM61 -1l658 695h53l-656 -695h-55zM280 443q45 0 79.5 21.5t42.5 69.5l7 45q8 48 -21 69t-75 21t-82 -21.5t-44 -68.5l-7 -45
q-8 -49 21 -70t76 -21h3zM516 -14q-66 0 -103.5 30.5t-26.5 97.5l7 47q11 67 57.5 97t113.5 30q65 0 102 -30t26 -97l-7 -47q-10 -67 -57 -97.5t-112 -30.5zM522 25q47 0 82 21t43 70l7 45q8 47 -21 69t-75 22t-82 -22t-44 -69l-7 -45q-8 -48 21 -69t76 -22z" />
    <glyph glyph-name="ampersand" unicode="&#x26;" horiz-adv-x="637" 
d="M293 -14q-107 0 -166 47.5t-43 151.5q22 138 141 173q-42 18 -62 61.5t-11 100.5q15 94 86 140.5t177 46.5q85 0 142 -28t97 -101l-38 -26q-54 112 -206 112q-90 0 -144.5 -37.5t-65.5 -109.5q-11 -64 19.5 -101.5t104.5 -37.5h364l-7 -42h-60l-19 -116
q-9 -59 -32 -102.5t-51.5 -68.5t-69 -39.5t-76 -19t-80.5 -4.5zM298 31h3q112 0 176 41t82 150l18 114h-260q-73 0 -124 -37.5t-62 -111.5q-12 -74 31 -114.5t136 -41.5z" />
    <glyph glyph-name="quotesingle" unicode="'" horiz-adv-x="208" 
d="M154 415l44 324h47l-54 -324h-37z" />
    <glyph glyph-name="parenleft" unicode="(" horiz-adv-x="334" 
d="M296 -144q-273 0 -220 334l49 306q51 326 331 326l-7 -43q-119 0 -188 -70t-92 -215l-48 -304q-23 -148 23.5 -219.5t164.5 -71.5l-6 -43h-7z" />
    <glyph glyph-name="parenright" unicode=")" horiz-adv-x="334" 
d="M-15 -144l7 43h7q115 0 182.5 71.5t90.5 219.5l48 304q23 145 -23.5 215t-165.5 70l7 43q280 0 228 -326l-49 -306q-28 -181 -115 -257.5t-217 -76.5z" />
    <glyph glyph-name="asterisk" unicode="*" horiz-adv-x="459" 
d="M380 308l-73 177l-130 -177l-36 27l139 168l-164 36l20 48l161 -48l24 196h49l-39 -197l178 49l3 -48l-174 -35l85 -169z" />
    <glyph glyph-name="plus" unicode="+" horiz-adv-x="609" 
d="M299 98l34 212h-222l6 39h223l34 213h40l-34 -213h222l-6 -39h-223l-34 -212h-40z" />
    <glyph glyph-name="comma" unicode="," horiz-adv-x="163" 
d="M-1 -171l-27 1l9 37l21 -1q92 0 106 89q6 33 -1 53q-12 -20 -34 -20q-18 0 -26 11.5t-5 29.5q8 44 49 44q33 0 48.5 -31.5t7.5 -85.5q-21 -127 -148 -127z" />
    <glyph glyph-name="hyphen" unicode="-" horiz-adv-x="457" 
d="M96 290l6 39h357l-6 -39h-357z" />
    <glyph glyph-name="period" unicode="." horiz-adv-x="140" 
d="M66 -11q-37 0 -31 43q7 42 45 42q41 0 34 -42q-6 -43 -48 -43z" />
    <glyph glyph-name="slash" unicode="/" horiz-adv-x="300" 
d="M1 -139l358 944h45l-358 -944h-45z" />
    <glyph glyph-name="zero" unicode="0" horiz-adv-x="690" 
d="M341 -14q-125 0 -191 66t-42 217l25 158q24 150 111 215.5t211 65.5q60 0 106.5 -14.5t82 -45.5t48.5 -87t1 -134l-25 -158q-24 -151 -112 -217t-215 -66zM348 30q235 0 274 239l25 158q19 118 -32.5 178t-166.5 60q-113 0 -181.5 -60t-87.5 -178l-25 -158
q-19 -119 31 -179t163 -60z" />
    <glyph glyph-name="one" unicode="1" horiz-adv-x="330" 
d="M163 0l102 646l-109 -47l-9 39l134 56h36l-110 -694h-44z" />
    <glyph glyph-name="two" unicode="2" horiz-adv-x="581" 
d="M63 0l6 38l286 236q162 137 179 248q11 69 -26.5 105.5t-117.5 36.5q-164 0 -237 -145l-35 20q90 168 281 168q96 0 146.5 -45.5t36.5 -137.5q-12 -70 -60 -136t-139 -142l-245 -203h433l-7 -43h-501z" />
    <glyph glyph-name="three" unicode="3" horiz-adv-x="593" 
d="M611 530q-10 -61 -46.5 -106t-89.5 -65l-19 4q67 -15 96.5 -58.5t19.5 -108.5q-18 -110 -94.5 -160t-188.5 -50q-93 0 -146 43.5t-67 146.5l42 20q10 -84 52.5 -124.5t126.5 -40.5q203 0 229 165q11 68 -33.5 103.5t-125.5 35.5h-128l6 42h129q82 0 129.5 39.5
t58.5 109.5q10 67 -28 102.5t-120 35.5q-165 0 -243 -145l-33 20q90 168 284 168q98 0 150.5 -44t38.5 -133z" />
    <glyph glyph-name="four" unicode="4" horiz-adv-x="573" 
d="M401 0l21 131h-388l5 35l397 528h54l-394 -521h332l41 256h44l-41 -256h107l-6 -42h-107l-21 -131h-44z" />
    <glyph glyph-name="five" unicode="5" horiz-adv-x="582" 
d="M280 -14q-191 0 -210 193l43 20q12 -169 174 -169q207 0 233 166q13 80 -32.5 114.5t-148.5 34.5h-204l55 349h441l-7 -43h-397l-41 -264h164q134 0 183 -48t34 -143q-18 -110 -95.5 -160t-191.5 -50z" />
    <glyph glyph-name="six" unicode="6" horiz-adv-x="638" 
d="M329 -14q-263 0 -218 283l24 157q45 282 311 282q186 0 223 -166l-42 -25q-30 148 -188 148q-222 0 -259 -238q-12 -76 -19 -126q35 44 97.5 70.5t144.5 26.5q127 0 178 -48.5t36 -144.5q-18 -111 -96 -165t-192 -54zM337 31q99 0 160 45t74 129q12 74 -30.5 112.5
t-147.5 38.5q-93 0 -160 -40.5t-78 -109.5q-5 -31 0.5 -59t23 -55.5t58 -44t100.5 -16.5z" />
    <glyph glyph-name="seven" unicode="7" horiz-adv-x="512" 
d="M120 0l405 651h-425l7 43h478l-6 -33l-405 -661h-54z" />
    <glyph glyph-name="eight" unicode="8" horiz-adv-x="637" 
d="M316 -14q-129 0 -193.5 48t-48.5 150q21 135 169 170q-120 36 -98 164q29 189 285 189q122 0 182 -44.5t44 -144.5q-20 -125 -145 -162l-38 5q171 -24 148 -177q-32 -198 -305 -198zM378 374q211 0 233 141q11 74 -35 111.5t-153 37.5q-210 0 -233 -149
q-11 -68 35 -104.5t153 -36.5zM323 31q228 0 253 156q12 70 -38 107t-167 37q-229 0 -251 -144q-12 -77 38 -116.5t165 -39.5z" />
    <glyph glyph-name="nine" unicode="9" horiz-adv-x="626" 
d="M294 -14q-191 0 -222 178l43 21q23 -155 185 -155q223 0 261 242l7 41q5 28 10 71q-33 -46 -96 -73t-145 -27q-127 0 -177.5 51t-34.5 154q18 111 97 165t192 54q122 0 182 -66t35 -227l-23 -143q-45 -286 -314 -286zM348 325q91 0 157.5 42t78.5 116q2 24 2 49t-12 49
t-30.5 42.5t-53.5 30t-82 11.5q-100 0 -161.5 -46t-75.5 -130q-12 -80 29.5 -122t147.5 -42z" />
    <glyph glyph-name="colon" unicode=":" horiz-adv-x="140" 
d="M126 365q-39 0 -31 43q6 42 44 42q41 0 35 -42q-8 -43 -48 -43zM76 50q-38 0 -31 43q6 42 44 42q41 0 35 -42q-7 -43 -48 -43z" />
    <glyph glyph-name="semicolon" unicode=";" horiz-adv-x="164" 
d="M137 367q-39 0 -33 43q8 42 46 42q41 0 35 -42q-8 -43 -48 -43zM-1 -171l-27 1l9 37l21 -1q92 0 106 89q6 33 -1 53q-12 -20 -34 -20q-18 0 -26 11.5t-5 29.5q8 44 49 44q33 0 48.5 -31.5t7.5 -85.5q-21 -127 -148 -127z" />
    <glyph glyph-name="less" unicode="&#x3c;" horiz-adv-x="544" 
d="M473 78l-369 233l5 32l442 232l16 -34l-406 -214l338 -213z" />
    <glyph glyph-name="equal" unicode="=" horiz-adv-x="607" 
d="M125 397l6 39h483l-7 -39h-482zM95 208l6 40h483l-7 -40h-482z" />
    <glyph glyph-name="greater" unicode="&#x3e;" horiz-adv-x="541" 
d="M95 78l-15 36l407 213l-339 214l26 34l369 -232l-5 -32z" />
    <glyph glyph-name="question" unicode="?" horiz-adv-x="578" 
d="M242 165l1 7l2 18q4 28 15 51t22.5 38t34 32t37.5 25.5t46 25.5q68 40 102.5 75t43.5 90q11 66 -27 101.5t-120 35.5q-79 0 -140 -36t-93 -108l-37 19q81 168 277 168q98 0 150 -44.5t38 -133.5q-11 -68 -55 -114.5t-120 -85.5q-31 -17 -48 -27.5t-37 -27.5t-31 -38.5
t-15 -48.5l-3 -22h-43zM234 -4q-34 0 -28 35t39 35q35 0 29 -35q-5 -35 -40 -35z" />
    <glyph glyph-name="at" unicode="@" horiz-adv-x="833" 
d="M409 -126q-371 0 -312 375l12 76q15 94 56 163t101 108.5t129 58t148 18.5q77 0 135.5 -17.5t102 -56.5t59.5 -108t1 -165l-13 -83q-16 -98 -64 -139t-106 -41q-64 0 -83 51q-62 -59 -165 -59q-36 0 -64.5 9t-51.5 29.5t-32 59t0 91.5l4 27q16 100 73 142t134 42
q91 0 134 -48l6 41h40l-39 -247q-15 -97 53 -97q44 0 75.5 36t41.5 100l16 88q21 144 -46.5 224t-217.5 80q-158 0 -258.5 -81.5t-124.5 -221.5l-13 -81q-22 -159 45 -246t230 -87q77 0 156.5 13.5t122.5 29.5v-43q-154 -41 -285 -41zM420 95q97 0 147 59q0 25 4 48l25 158
q-30 50 -124 55h-6q-134 -2 -157 -148l-3 -19q-24 -153 114 -153z" />
    <glyph glyph-name="A" unicode="A" horiz-adv-x="708" 
d="M85 0h-48l417 700h29l188 -700h-47l-44 167h-399zM204 203h367l-113 436z" />
    <glyph glyph-name="B" unicode="B" horiz-adv-x="784" 
d="M140 0l111 700h316q116 0 175.5 -43.5t43.5 -141.5q-10 -63 -48 -105.5t-94 -57.5l-50 6q78 -9 115 -52.5t25 -120.5q-29 -185 -278 -185h-316zM241 369h275q209 0 233 145q11 75 -35 111.5t-151 36.5h-276zM188 38h276q209 0 233 148q12 80 -41.5 112.5t-145.5 32.5
h-275z" />
    <glyph glyph-name="C" unicode="C" horiz-adv-x="788" 
d="M416 -15q-154 0 -233.5 69.5t-56.5 220.5l24 149q16 102 71.5 168t132 93t177.5 27q137 0 218.5 -56t82.5 -177h-43q-6 100 -76.5 146t-187.5 46q-130 0 -219 -60.5t-115 -188.5l-23 -146q-14 -127 55.5 -188t199.5 -61q246 0 322 186h44q-42 -118 -140 -173t-233 -55z
" />
    <glyph glyph-name="D" unicode="D" horiz-adv-x="850" 
d="M140 0l110 695h281q75 0 131 -13t99 -43.5t60 -85.5t5 -133l-22 -142q-13 -80 -47 -135.5t-86.5 -86t-113 -43.5t-137.5 -13h-280zM191 40h234q66 0 118.5 10.5t100 36t78.5 74t42 117.5l23 142q10 68 -6 115.5t-56 73t-89 36t-114 10.5h-234z" />
    <glyph glyph-name="E" unicode="E" horiz-adv-x="805" 
d="M140 0l111 698h550l-7 -40h-505l-45 -283h505l-5 -36l-506 1l-47 -300h506l-6 -40h-551z" />
    <glyph glyph-name="F" unicode="F" horiz-adv-x="740" 
d="M140 0l111 698h550l-7 -40h-505l-45 -283h505l-5 -36l-506 1l-54 -340h-44z" />
    <glyph glyph-name="G" unicode="G" horiz-adv-x="832" 
d="M484 335l6 38h324l-50 -314q-117 -74 -320 -74h-8q-75 0 -135 16t-104.5 49t-63.5 90.5t-7 134.5l24 149q16 102 71.5 168t132 93t177.5 27q137 0 218.5 -56t82.5 -177h-43q-6 100 -76.5 146t-187.5 46q-130 0 -219 -60.5t-115 -188.5l-23 -146q-13 -119 60.5 -184
t215.5 -65q185 0 284 57l39 251h-283z" />
    <glyph glyph-name="H" unicode="H" horiz-adv-x="859" 
d="M140 0l110 695h44l-50 -319h490l50 319h46l-111 -695h-45l53 335h-490l-53 -335h-44z" />
    <glyph glyph-name="I" unicode="I" horiz-adv-x="324" 
d="M140 0l111 698h44l-111 -698h-44z" />
    <glyph glyph-name="J" unicode="J" horiz-adv-x="766" 
d="M357 -17q-315 0 -263 317h44q-43 -274 226 -274q249 0 292 267l64 402h44l-64 -402q-48 -310 -343 -310z" />
    <glyph glyph-name="K" unicode="K" horiz-adv-x="792" 
d="M140 0l111 698h44l-65 -412l554 412h58l-357 -267l249 -431h-47l-235 407l-231 -174l-37 -233h-44z" />
    <glyph glyph-name="L" unicode="L" horiz-adv-x="689" 
d="M140 0l110 695h44l-103 -654l468 -1l-6 -40h-513z" />
    <glyph glyph-name="M" unicode="M" horiz-adv-x="1041" 
d="M140 0l110 695h45l231 -637l440 637h45l-110 -695h-43l97 609l-423 -609h-32l-221 609l-97 -609h-42z" />
    <glyph glyph-name="N" unicode="N" horiz-adv-x="881" 
d="M140 0l111 698h41l416 -629l99 629h45l-111 -698h-45l-415 631l-99 -631h-42z" />
    <glyph glyph-name="O" unicode="O" horiz-adv-x="843" 
d="M416 -15q-154 0 -233.5 69.5t-56.5 220.5l24 149q16 102 71.5 168t132 93t177.5 27q156 0 237 -68.5t58 -219.5l-24 -149q-12 -77 -47 -134t-87 -90.5t-115 -49.5t-137 -16zM423 27q131 0 222 60.5t119 188.5l23 146q7 66 -10 115t-54 77.5t-86 42.5t-112 14
q-130 0 -219 -60.5t-115 -188.5l-23 -146q-14 -128 55.5 -188.5t199.5 -60.5z" />
    <glyph glyph-name="P" unicode="P" horiz-adv-x="742" 
d="M140 0l110 695h298q120 0 169.5 -53t30.5 -172q-19 -121 -88 -186t-188 -65h-253l-35 -219h-44zM225 257h253q95 0 152 57t72 155q16 97 -24 142t-137 45h-253z" />
    <glyph glyph-name="Q" unicode="Q" horiz-adv-x="843" 
d="M531 712q156 0 237 -68.5t58 -219.5l-24 -149q-38 -236 -275 -279l142 -90l-32 -30l-175 110q-15 -1 -46 -1q-154 0 -233.5 69.5t-56.5 220.5l24 149q16 102 71.5 168t132 93t177.5 27zM779 424q21 130 -49.5 188.5t-204.5 58.5q-133 0 -220 -59t-108 -188l-23 -148
q-21 -130 47 -189.5t202 -59.5t223 59t110 190z" />
    <glyph glyph-name="R" unicode="R" horiz-adv-x="789" 
d="M756 483q-30 -179 -196 -220l133 -263h-53l-131 254l-18 -1q-24 -2 -36 -2h-233l-40 -251h-42l111 698h292q120 0 176 -49.5t37 -165.5zM464 288q99 0 165 48t81 146q15 95 -33 134.5t-145 39.5h-246l-58 -368h236z" />
    <glyph glyph-name="S" unicode="S" horiz-adv-x="803" 
d="M402 -17q-107 0 -178 32.5t-126 112.5l32 30q50 -74 115 -104.5t163 -30.5q38 0 79 8.5t82 26t70.5 50t36.5 75.5q6 37 -4.5 64t-36 42.5t-50 23.5t-60.5 14l-82 15q-23 3 -83 14q-82 14 -128.5 58.5t-33.5 123.5q8 51 41 87.5t81 54t94 25t95 7.5q201 0 286 -138
l-34 -29q-44 68 -107.5 97.5t-152.5 29.5q-238 0 -259 -134q-10 -64 27.5 -98.5t103.5 -44.5l88 -14q13 -2 42.5 -6.5t45.5 -7.5q90 -15 137 -57t34 -127q-8 -53 -41 -93.5t-80.5 -63t-97 -33t-99.5 -10.5z" />
    <glyph glyph-name="T" unicode="T" horiz-adv-x="692" 
d="M324 0l104 655h-273l6 40h591l-6 -40h-274l-103 -655h-45z" />
    <glyph glyph-name="U" unicode="U" horiz-adv-x="829" 
d="M421 -17q-313 0 -264 310l64 402h44l-63 -402q-43 -267 226 -267q249 0 292 267l64 402h45l-64 -402q-49 -310 -344 -310z" />
    <glyph glyph-name="V" unicode="V" horiz-adv-x="796" 
d="M355 -3l-189 701h49l177 -657l409 657h51l-438 -701h-59z" />
    <glyph glyph-name="W" unicode="W" horiz-adv-x="1086" 
d="M270 0l-90 695h47l81 -636l316 621h47l107 -623l300 638h48l-331 -695h-53l-105 615l-314 -615h-53z" />
    <glyph glyph-name="X" unicode="X" horiz-adv-x="730" 
d="M46 0l345 353l-231 342h53l217 -318l310 318h52l-333 -343l227 -352h-52l-216 326l-319 -326h-53z" />
    <glyph glyph-name="Y" unicode="Y" horiz-adv-x="761" 
d="M360 0l42 268l-240 427h52l218 -386l337 386h52l-372 -425l-43 -270h-46z" />
    <glyph glyph-name="Z" unicode="Z" horiz-adv-x="709" 
d="M82 0l6 38l605 620h-545l7 40h604l-5 -37l-610 -621h534l-7 -40h-589z" />
    <glyph glyph-name="bracketleft" unicode="[" horiz-adv-x="341" 
d="M54 -140l149 943h253l-6 -41h-207l-136 -860h207l-7 -42h-253z" />
    <glyph glyph-name="backslash" unicode="\" horiz-adv-x="300" 
d="M209 -139l-58 944h45l59 -944h-46z" />
    <glyph glyph-name="bracketright" unicode="]" horiz-adv-x="341" 
d="M-10 -140l7 42h207l136 860h-207l6 41h253l-149 -943h-253z" />
    <glyph glyph-name="underscore" unicode="_" horiz-adv-x="478" 
d="M21 -49l7 41h422l-6 -41h-423z" />
    <glyph glyph-name="a" unicode="a" horiz-adv-x="582" 
d="M539 488h39l-78 -488h-37l5 30q-68 -44 -195 -44q-224 0 -183 258q40 257 266 257q125 0 179 -37zM474 83l52 324q-14 27 -66.5 42t-109.5 15q-36 0 -68 -9.5t-64 -32.5t-55.5 -69t-33.5 -110q-10 -53 -3.5 -91t19.5 -62.5t36 -39t46.5 -20t51.5 -5.5q55 0 111.5 15.5
t83.5 42.5z" />
    <glyph glyph-name="b" unicode="b" horiz-adv-x="599" 
d="M402 501q226 0 185 -258q-40 -257 -265 -257q-124 0 -182 45l-5 -31h-37l110 694h40l-36 -230q64 37 190 37zM328 25q36 0 67.5 9.5t63 32.5t55 68t33.5 109q10 53 3.5 91.5t-19.5 63.5t-36.5 39.5t-47 20t-51.5 5.5q-57 0 -114 -15t-79 -42l-52 -324q18 -27 70 -42.5
t107 -15.5z" />
    <glyph glyph-name="c" unicode="c" horiz-adv-x="568" 
d="M279 -14q-230 2 -189 257q40 256 270 258h5q178 -2 195 -166l-43 1q-21 124 -160 128q-37 -1 -70 -11t-66 -33.5t-57 -68t-34 -107.5q-10 -64 -0.5 -109t35 -68t55.5 -32.5t67 -9.5q137 0 198 121h43q-69 -158 -246 -160h-3z" />
    <glyph glyph-name="d" unicode="d" horiz-adv-x="592" 
d="M573 694h39l-110 -694h-37l5 30q-68 -44 -194 -44q-225 0 -184 258q40 257 266 257q125 0 179 -37zM476 83l52 324q-14 27 -66.5 42t-109.5 15q-36 0 -68 -9.5t-64 -32.5t-55.5 -69t-33.5 -110q-10 -53 -3.5 -91t19.5 -62.5t36.5 -39t47 -20t51.5 -5.5q54 0 110.5 15.5
t83.5 42.5z" />
    <glyph glyph-name="e" unicode="e" horiz-adv-x="539" 
d="M278 -14q-229 2 -188 257q40 256 269 258h5q228 -2 188 -258l-9 -8l-414 1q-8 -60 2.5 -103.5t35.5 -66t54.5 -32t65.5 -9.5q137 0 198 121h43q-69 -158 -246 -160h-4zM136 275h379q8 101 -38.5 144t-120.5 45q-75 -2 -135.5 -45t-84.5 -144z" />
    <glyph glyph-name="f" unicode="f" horiz-adv-x="419" 
d="M425 652q-72 -3 -117 -37.5t-59 -116.5h208l-6 -36h-208l-73 -462h-38l73 462h-79l6 36h79q17 103 71.5 147t145.5 49h2q53 0 95 -24l-8 -48q-41 30 -92 30z" />
    <glyph glyph-name="g" unicode="g" horiz-adv-x="564" 
d="M252 -207q-134 0 -184 86l32 31q44 -77 155 -77q178 0 202 155l7 40q-71 -42 -191 -42q-224 0 -183 257q40 258 266 258q125 0 179 -37l4 24h36l-2 -9l-76 -494q-17 -107 -79.5 -149.5t-165.5 -42.5zM279 25q54 0 110 15t83 42l54 325q-14 27 -66.5 42t-109.5 15
q-36 0 -68 -9.5t-64 -32.5t-55.5 -68.5t-33.5 -109.5q-10 -53 -3.5 -91.5t19.5 -63t36 -39t46.5 -20t51.5 -5.5z" />
    <glyph glyph-name="h" unicode="h" horiz-adv-x="583" 
d="M98 0l110 694h40l-36 -230q64 37 190 37q226 0 185 -258l-39 -243h-40l39 243q10 54 3.5 92.5t-19.5 63.5t-36.5 39.5t-47 20t-51.5 5.5q-56 0 -113.5 -15t-79.5 -42l-68 -407h-37z" />
    <glyph glyph-name="i" unicode="i" horiz-adv-x="227" 
d="M211 620q-16 0 -24.5 9.5t-5.5 24.5q2 16 13.5 26t27.5 10q35 0 30 -36q-2 -15 -13.5 -24.5t-27.5 -9.5zM92 0l77 488h38l-77 -488h-38z" />
    <glyph glyph-name="j" unicode="j" horiz-adv-x="286" 
d="M242 620q-16 0 -24.5 9.5t-6.5 24.5q2 16 13.5 26t28.5 10q16 0 24 -10t5 -26q-2 -15 -13 -24.5t-27 -9.5zM-60 -205q-52 0 -96 24l8 48q43 -31 92 -31q73 5 118.5 41.5t58.5 119.5l78 491h38l-77 -489q-17 -107 -72 -153.5t-147 -50.5h-1z" />
    <glyph glyph-name="k" unicode="k" horiz-adv-x="527" 
d="M93 0l110 694h38l-65 -411l331 205h60l-392 -244l315 -244h-61l-266 202l-32 -202h-38z" />
    <glyph glyph-name="l" unicode="l" horiz-adv-x="223" 
d="M92 0l110 694h38l-110 -694h-38z" />
    <glyph glyph-name="m" unicode="m" horiz-adv-x="946" 
d="M461 -2l39 245q8 67 2.5 110t-28 68t-47.5 34t-57 9q-51 0 -103 -15t-73 -42l-66 -407h-35l77 488h37l-4 -23q60 36 173 36q141 0 164 -126q33 61 85.5 93.5t117.5 32.5q202 0 162 -258l-39 -243h-37l38 243q35 219 -129 219q-25 0 -48 -5.5t-48 -20.5t-44.5 -39t-36 -64
t-24.5 -92l-39 -243h-37z" />
    <glyph glyph-name="n" unicode="n" horiz-adv-x="622" 
d="M93 0l77 488h40l-4 -24q64 37 191 37q226 0 185 -258l-39 -243h-40l39 243q10 54 3.5 92.5t-19.5 63.5t-36.5 39.5t-47 20t-51.5 5.5q-57 0 -114.5 -15t-79.5 -42l-67 -407h-37z" />
    <glyph glyph-name="o" unicode="o" horiz-adv-x="571" 
d="M278 -14q-229 2 -188 257q40 256 269 258h5q228 -2 188 -258q-41 -255 -271 -257h-3zM286 25q37 0 69.5 9.5t65.5 32.5t57 68t34 109q10 63 0 107.5t-35.5 68t-55 33.5t-65.5 11q-37 -1 -70 -11t-65.5 -33.5t-56.5 -68t-34 -107.5q-10 -64 -0.5 -109t35 -68t55 -32.5
t66.5 -9.5z" />
    <glyph glyph-name="p" unicode="p" horiz-adv-x="592" 
d="M389 501q225 0 184 -257q-40 -258 -266 -258q-125 0 -179 38l-34 -215h-40l107 679h39l-5 -30q67 43 194 43zM313 25q79 0 140 49t81 171q10 53 3.5 91t-19.5 63t-36.5 39.5t-47 20t-51.5 5.5q-53 0 -110.5 -16t-84.5 -43l-51 -324q13 -27 66 -41.5t110 -14.5z" />
    <glyph glyph-name="q" unicode="q" horiz-adv-x="596" 
d="M551 488h38l-108 -679h-39l34 215q-67 -38 -191 -38q-226 0 -185 259q40 256 265 256q127 0 182 -43zM485 81l51 324q-18 28 -70 43.5t-107 15.5q-36 0 -67.5 -9.5t-63 -32.5t-55 -68.5t-33.5 -109.5q-10 -53 -3.5 -91.5t19.5 -63t36.5 -39t47 -20t51.5 -5.5q56 0 114 15
t80 41z" />
    <glyph glyph-name="r" unicode="r" horiz-adv-x="443" 
d="M93 0l77 488h40l-4 -24q64 37 191 37q60 0 101 -18l-7 -46q-44 27 -100 27q-58 0 -114.5 -13.5t-79.5 -39.5l-67 -411h-37z" />
    <glyph glyph-name="s" unicode="s" horiz-adv-x="504" 
d="M263 -14q-146 0 -194 109l35 27q42 -95 164 -95q58 0 105 22t54 65q6 36 -15.5 56t-64.5 31l-123 28q-64 14 -89.5 46t-16.5 88q12 72 73.5 105t150.5 33q134 0 196 -107l-34 -28q-57 96 -169 96q-42 0 -76.5 -8.5t-62 -31.5t-33.5 -58q-12 -73 78 -96l123 -28
q122 -30 107 -125q-10 -62 -69 -95.5t-139 -33.5z" />
    <glyph glyph-name="t" unicode="t" horiz-adv-x="473" 
d="M310 -15h-2q-90 4 -130 51t-23 154l42 268h-70l6 40h71l31 196h38l-31 -196h262l-7 -40h-261l-43 -269q-13 -85 21 -121.5t105 -39.5q51 0 102 30l-7 -49q-53 -24 -104 -24z" />
    <glyph glyph-name="u" unicode="u" horiz-adv-x="622" 
d="M307 -14q-226 0 -185 259l38 243h41l-39 -243q-10 -54 -3.5 -92t19.5 -63t36.5 -39.5t47 -20t51.5 -5.5q56 0 114 15t80 41l66 407h38l-78 -488h-39l4 24q-67 -38 -191 -38z" />
    <glyph glyph-name="v" unicode="v" horiz-adv-x="507" 
d="M229 0l-140 488h47l123 -434l267 434h48l-304 -488h-41z" />
    <glyph glyph-name="w" unicode="w" horiz-adv-x="741" 
d="M174 0l-84 488h49l67 -426l219 426h46l77 -425l209 425h46l-246 -488h-43l-77 423l-221 -423h-42z" />
    <glyph glyph-name="x" unicode="x" horiz-adv-x="468" 
d="M393 -1l-125 222l-195 -221h-53l222 248l-143 240h54l125 -212l191 212h54l-220 -240l144 -249h-54z" />
    <glyph glyph-name="y" unicode="y" horiz-adv-x="523" 
d="M123 -191l114 187l-142 492h52l124 -439l262 439h51l-414 -679h-47z" />
    <glyph glyph-name="z" unicode="z" horiz-adv-x="461" 
d="M51 0l5 34l376 414h-322l6 40h382l-5 -31l-376 -418h325l-6 -39h-385z" />
    <glyph glyph-name="braceleft" unicode="{" horiz-adv-x="315" 
d="M144 -158q-39 0 -64.5 8.5t-34.5 21t-12.5 28t0.5 29.5q5 29 22 61t31.5 51t43.5 53q72 83 79 126q5 34 -24.5 54.5t-112.5 20.5l6 43h12q138 1 149 74q3 20 -3 44t-13 38.5t-23 45.5q-19 36 -26.5 53.5t-15 49.5t-2.5 60q14 88 138 88q69 0 117 -16l-13 -41
q-48 14 -108 14q-82 0 -90 -48q-3 -22 3 -47.5t14.5 -42.5t24.5 -46q18 -33 26 -50t15 -46t3 -55q-12 -75 -91 -97q72 -24 61 -96q-4 -25 -20 -53.5t-30.5 -47t-41.5 -49.5q-26 -30 -39 -46.5t-28 -42.5t-18 -48q-4 -25 15 -36.5t59 -11.5q77 0 113 16v-43q-46 -16 -122 -16
z" />
    <glyph glyph-name="bar" unicode="|" horiz-adv-x="234" 
d="M75 -122l150 947h45l-150 -947h-45z" />
    <glyph glyph-name="braceright" unicode="}" horiz-adv-x="320" 
d="M123 -158q-76 0 -119 16l16 42q32 -15 107 -15q81 0 89 48q3 22 -3 47.5t-14.5 43t-24.5 46.5q-17 31 -26 49t-15.5 47t-2.5 54q12 72 92 96q-73 22 -61 97q4 26 20 55t29 46t42 50q27 31 39.5 46.5t27.5 41.5t18 48q4 25 -14.5 36.5t-58.5 11.5q-62 0 -112 -14l-2 41
q53 16 123 16q73 0 94.5 -25.5t15.5 -62.5q-5 -28 -22 -59.5t-30.5 -49.5t-43.5 -54q-25 -30 -37 -45t-25.5 -39t-16.5 -44q-5 -32 23 -52.5t102 -21.5h11l-6 -43h-7q-143 0 -154 -75q-6 -43 38 -126q18 -33 27 -52.5t16 -51.5t2 -61q-14 -87 -137 -87z" />
    <glyph glyph-name="exclamdown" unicode="&#xa1;" horiz-adv-x="256" 
d="M195 422q-39 0 -33 40q6 42 46 42q41 0 33 -42q-6 -40 -46 -40zM75 -191l86 541h44l-86 -541h-44z" />
    <glyph glyph-name="cent" unicode="&#xa2;" horiz-adv-x="560" 
d="M271 1l15 95q-92 5 -141.5 56.5t-32.5 160.5l13 84q17 108 82.5 158.5t160.5 56.5l13 82h44l-13 -82q133 -11 169 -108l-37 -25q-32 81 -139 91l-68 -431q107 7 170 89l30 -24l-4 -5q-68 -93 -203 -102l-15 -96h-44zM293 138l68 432q-71 -5 -124.5 -46t-67.5 -127
l-13 -85q-14 -87 26 -128t111 -46z" />
    <glyph glyph-name="sterling" unicode="&#xa3;" horiz-adv-x="612" 
d="M38 0l6 41q67 12 124 51.5t66 96.5q9 54 -14 123h-134l7 39h114l-4 10q-10 28 -14 41.5t-11 42.5t-5.5 44.5t3.5 48.5q14 85 79 127.5t159 42.5q172 0 228 -146l-39 -25q-45 128 -194 128q-82 0 -130 -35t-58 -95q-9 -55 27 -158l10 -26h270l-6 -39h-251q19 -66 10 -122
q-15 -98 -123 -147h413l-7 -43h-526z" />
    <glyph glyph-name="yen" unicode="&#xa5;" horiz-adv-x="585" 
d="M270 0l23 146h-184l6 39h185l20 131h-184l6 39h166l-186 339h52l177 -331l280 331h53l-292 -339h164l-6 -39h-184l-20 -131h183l-6 -39h-184l-23 -146h-46z" />
    <glyph glyph-name="brokenbar" unicode="&#xa6;" horiz-adv-x="234" 
d="M155 387l70 438h45l-70 -438h-45zM75 -122l70 441h45l-70 -441h-45z" />
    <glyph glyph-name="copyright" unicode="&#xa9;" horiz-adv-x="702" 
d="M348 -14q-64 0 -115.5 14.5t-94.5 46.5t-66.5 90t-23.5 138v148q0 79 23.5 136t66.5 88.5t94.5 46t115.5 14.5q65 0 118 -14.5t97 -46t68.5 -88.5t24.5 -136v-148q0 -80 -24.5 -138t-68.5 -90t-97 -46.5t-118 -14.5zM348 21q130 0 199.5 63.5t69.5 188.5v150
q0 125 -69 188t-200 63q-128 0 -195.5 -63t-67.5 -188v-150q0 -126 67.5 -189t195.5 -63zM360 132q-84 0 -135.5 39.5t-51.5 128.5v112q0 88 52 127.5t136 39.5q124 0 172 -101l-29 -22q-43 82 -142 82q-146 0 -146 -126v-113q0 -69 42 -98.5t104 -29.5h7q93 0 137 85
l30 -25l-2 -5q-51 -94 -174 -94z" />
    <glyph glyph-name="guillemotleft" unicode="&#xab;" horiz-adv-x="488" 
d="M227 28l-169 219l4 23l238 220l24 -25l-219 -205l154 -207zM427 28l-170 219l4 23l239 220l23 -25l-220 -205l154 -207z" />
    <glyph glyph-name="registered" unicode="&#xae;" horiz-adv-x="679" 
d="M337 173q-58 0 -105 12.5t-86 40.5t-61 77t-22 117v52q0 127 76 183.5t198 56.5q125 0 202.5 -56.5t77.5 -183.5v-52q0 -68 -22 -117t-62 -77t-88.5 -40.5t-107.5 -12.5zM337 208q116 0 179 53.5t63 157.5v53q0 103 -62.5 154.5t-179.5 51.5q-115 0 -176 -51.5
t-61 -154.5v-53q0 -105 61 -158t176 -53zM222 268v355h157q113 0 113 -104v-17q0 -92 -77 -110l83 -124h-41l-83 120h-115v-120h-37zM259 422h121q35 0 55 21t20 59v16q0 38 -18.5 54t-56.5 16h-121v-166z" />
    <glyph glyph-name="degree" unicode="&#xb0;" horiz-adv-x="416" 
d="M266 364q-72 0 -113 34t-29 110l9 55q12 76 63.5 110t123.5 34q71 0 111.5 -34t28.5 -110l-9 -55q-12 -76 -63 -110t-122 -34zM275 402q49 0 88.5 25.5t48.5 81.5l9 53q9 57 -24 82t-83 25t-90 -25t-50 -82l-8 -53q-10 -57 23 -82t83 -25h3z" />
    <glyph glyph-name="periodcentered" unicode="&#xb7;" horiz-adv-x="140" 
d="M116 301q-39 0 -31 43q6 42 44 42q41 0 35 -42q-8 -43 -48 -43z" />
    <glyph glyph-name="guillemotright" unicode="&#xbb;" horiz-adv-x="488" 
d="M71 28l-24 25l220 207l-154 205l32 25l169 -220l-4 -23zM271 28l-24 25l220 207l-155 205l32 25l169 -220l-4 -23z" />
    <glyph glyph-name="questiondown" unicode="&#xbf;" horiz-adv-x="551" 
d="M393 430q-13 0 -19.5 8t-4.5 22q5 29 34 29t24 -29q-6 -30 -34 -30zM234 -204q-97 0 -149 44.5t-38 131.5q10 67 53.5 112.5t118.5 84.5q33 18 49 28t36.5 27t31 37t14.5 47l3 24h44l-1 -7l-2 -16q-5 -35 -17 -60t-36 -46.5t-42.5 -33t-59.5 -34.5q-69 -38 -103 -72
t-43 -90q-11 -64 28 -99.5t120 -35.5q79 0 140 36.5t95 108.5l34 -19q-80 -168 -276 -168z" />
    <glyph glyph-name="multiply" unicode="&#xd7;" horiz-adv-x="639" 
d="M144 138l-24 29l208 164l-155 162l33 27l155 -164l208 164l24 -27l-207 -163l155 -164l-33 -28l-156 166z" />
    <glyph glyph-name="divide" unicode="&#xf7;" horiz-adv-x="607" 
d="M381 447q-40 0 -34 41q7 40 47 40q41 0 34 -40q-6 -41 -47 -41zM111 310l6 39h483l-6 -39h-483zM332 137q-42 0 -36 41q7 39 48 39q42 0 35 -39q-6 -41 -47 -41z" />
    <glyph glyph-name="uni0302" unicode="&#x302;" 
d="M-182 538l-25 18l152 186h38l93 -186l-31 -17l-89 157z" />
    <glyph glyph-name="uni0304" unicode="&#x304;" 
d="M-265 631l6 40h338l-6 -40h-338z" />
    <glyph glyph-name="uni0306" unicode="&#x306;" 
d="M-68 540q-137 0 -108 179l3 18h41l-4 -22q-10 -63 8.5 -99t65.5 -36q96 0 118 138l3 19h40l-2 -18q-29 -179 -165 -179z" />
    <glyph glyph-name="uni0307" unicode="&#x307;" 
d="M40 612q-34 0 -27 37q4 34 38 34q36 0 30 -34q-2 -17 -13.5 -27t-27.5 -10z" />
    <glyph glyph-name="uni0308" unicode="&#x308;" 
d="M-161 593q-34 0 -28 37q5 33 39 33q35 0 29 -33q-5 -37 -40 -37zM36 593q-33 0 -27 37q6 33 39 33q34 0 30 -33q-6 -37 -42 -37z" />
    <glyph glyph-name="uni030A" unicode="&#x30a;" 
d="M-67 545q-64 0 -94 26t-23 76l3 16q15 100 148 100q64 0 94 -25.5t23 -74.5l-3 -16q-17 -102 -148 -102zM-62 579q96 0 107 69l2 14q5 33 -17 50t-68 17q-95 0 -106 -67l-2 -14q-5 -34 16.5 -51.5t67.5 -17.5z" />
    <glyph glyph-name="uni030B" unicode="&#x30b;" 
d="M-202 541l-27 12l130 208l38 -19zM-73 536l-21 20l167 183l30 -28z" />
    <glyph glyph-name="uni030C" unicode="&#x30c;" 
d="M-87 540l-93 188l31 16l88 -157l139 158l25 -19l-152 -186h-38z" />
    <glyph glyph-name="uni0312" unicode="&#x312;" 
d="M77 774q15 0 36 -3l-2 -33q-15 2 -35 2q-84 0 -94 -66q-6 -37 16 -53q6 35 44 35q17 0 24.5 -10.5t5.5 -26.5q-7 -41 -52 -41q-40 0 -60 27.5t-13 68.5q7 42 39 70.5t91 29.5z" />
    <glyph glyph-name="uni0326" unicode="&#x326;" 
d="M-103 -36q40 0 59.5 -26.5t12.5 -67.5q-7 -44 -37.5 -72t-91.5 -28q-6 0 -36 2l2 34q22 -3 35 -3q41 1 64.5 19t28.5 48q6 37 -16 53q-6 -36 -43 -36q-17 0 -24.5 10.5t-5.5 25.5q6 41 52 41z" />
    <glyph glyph-name="uni0327" unicode="&#x327;" 
d="M-119 -43q45 -3 69 -23.5t18 -54.5q-6 -35 -36.5 -52t-74.5 -17q-31 0 -78 10l15 35q30 -12 66 -12q64 0 70 36q4 21 -17.5 34t-64.5 13h-12l30 91h36z" />
    <glyph glyph-name="uni0328" unicode="&#x328;" 
d="M-145 -189q-41 0 -58.5 18t-12.5 49q7 45 57 86.5t116 61.5l25 -18q-62 -22 -108 -56t-52 -71q-2 -14 8 -23.5t34 -9.5q40 0 78 15l1 -34q-40 -18 -88 -18z" />
    <glyph glyph-name="uni0335" unicode="&#x335;" 
d="M-371 279l7 40h392l-7 -40h-392z" />
    <glyph glyph-name="uni0336" unicode="&#x336;" 
d="M-661 289l6 39h653l-7 -39h-652z" />
    <glyph glyph-name="uni0337" unicode="&#x337;" 
d="M-346 181l-11 36l378 191l14 -35z" />
    <glyph glyph-name="endash" unicode="&#x2013;" horiz-adv-x="583" 
d="M96 290l6 39h483l-7 -39h-482z" />
    <glyph glyph-name="emdash" unicode="&#x2014;" horiz-adv-x="739" 
d="M96 290l6 39h639l-6 -39h-639z" />
    <glyph glyph-name="quoteleft" unicode="&#x2018;" horiz-adv-x="166" 
d="M168 500q-33 0 -48 29t-8 78q10 60 47.5 97.5t99.5 37.5h8l1 -32q-48 0 -80.5 -27.5t-39.5 -73.5q-5 -31 3 -49q14 22 35 22q17 0 24 -11t5 -27q-7 -44 -47 -44z" />
    <glyph glyph-name="quoteright" unicode="&#x2019;" horiz-adv-x="174" 
d="M107 502h-9l1 33h10q42 1 72 28t37 72q5 29 -3 47q-11 -20 -35 -20q-16 0 -24 11t-6 27q4 20 17 32t31 12q32 0 48 -30t9 -77q-10 -61 -47 -98t-101 -37z" />
    <glyph glyph-name="quotesinglbase" unicode="&#x201a;" horiz-adv-x="644" 
d="M-1 -171l-27 1l9 37l21 -1q92 0 106 89q6 33 -1 53q-12 -20 -34 -20q-18 0 -26 11.5t-5 29.5q8 44 49 44q33 0 48.5 -31.5t7.5 -85.5q-21 -127 -148 -127z" />
    <glyph glyph-name="quotedblleft" unicode="&#x201c;" horiz-adv-x="295" 
d="M168 500q-33 0 -48 29t-8 78q10 60 47.5 97.5t99.5 37.5h8l1 -32h-8q-44 0 -74.5 -27.5t-37.5 -73.5q-5 -31 3 -49q14 22 35 22q17 0 24 -11t5 -27q-7 -44 -47 -44zM299 500q-34 0 -49.5 29t-7.5 78q10 60 47.5 97.5t99.5 37.5h8l2 -32q-48 0 -80.5 -27.5t-40.5 -73.5
q-5 -31 3 -49q14 22 35 22q18 0 25 -11t4 -27q-7 -44 -46 -44z" />
    <glyph glyph-name="quotedblright" unicode="&#x201d;" horiz-adv-x="295" 
d="M103 502h-8v32q47 0 79 27.5t40 73.5q4 30 -3 49q-14 -22 -35 -22q-18 0 -25 11t-5 27q4 20 17 32t30 12q33 0 49 -30t8 -77q-10 -61 -47.5 -98t-99.5 -37zM233 502h-8v32q47 0 79 27.5t40 73.5q4 30 -3 49q-14 -22 -35 -22q-18 0 -25 11t-4 27q3 20 16 32t31 12
q33 0 48.5 -29.5t7.5 -77.5q-10 -60 -47.5 -97.5t-99.5 -37.5z" />
    <glyph glyph-name="quotedblbase" unicode="&#x201e;" horiz-adv-x="163" 
d="M-1 -171l-27 1l9 37l21 -1q92 0 106 89q6 33 -1 53q-12 -20 -34 -20q-18 0 -26 11.5t-5 29.5q8 44 49 44q33 0 48.5 -31.5t7.5 -85.5q-21 -127 -148 -127z" />
    <glyph glyph-name="bullet" unicode="&#x2022;" horiz-adv-x="189" 
d="M140 291q-60 0 -50 66q10 63 71 63q62 0 52 -63q-11 -66 -73 -66z" />
    <glyph glyph-name="guilsinglleft" unicode="&#x2039;" horiz-adv-x="291" 
d="M228 28l-170 219l4 23l239 220l24 -25l-220 -205l155 -207z" />
    <glyph glyph-name="guilsinglright" unicode="&#x203a;" horiz-adv-x="289" 
d="M71 28l-24 25l221 207l-155 205l32 25l170 -220l-4 -23z" />
    <glyph glyph-name="fraction" unicode="&#x2044;" horiz-adv-x="640" 
d="M110 -62l-42 10l581 858l41 -11z" />
    <glyph glyph-name="Euro" unicode="&#x20ac;" horiz-adv-x="638" 
d="M463 670q-220 0 -262 -236h327l-6 -38h-327l-12 -72h328l-6 -39h-328l-2 -11q-38 -244 181 -244q91 0 151 42.5t99 128.5l35 -20l-2 -5q-44 -103 -117.5 -146.5t-175.5 -43.5q-262 0 -216 290l2 9h-62l6 39h62l11 72h-61l6 38h62q46 280 313 280q196 0 228 -167l-42 -24
q-24 147 -192 147z" />
    <glyph glyph-name="trademark" unicode="&#x2122;" horiz-adv-x="1024" 
d="M207 275v376h-175v43h396v-43h-176v-376h-45zM478 275v419h43l173 -305l178 305h43v-419h-43l1 335l-163 -278h-31l-159 276l2 -333h-44z" />
    <glyph glyph-name="minus" unicode="&#x2212;" horiz-adv-x="607" 
d="M111 310l6 39h483l-6 -39h-483z" />
    <glyph glyph-name="_FSHallmark" horiz-adv-x="848" 
d="M45 586v91h767v-91h-767zM647 157q-35 0 -63 8q-32 10 -54 26q-24 17 -38 43q-15 25 -15 61l89 -2q0 -2 5 -14q1 -12 13 -24q11 -11 23 -15q15 -9 43 -9q32 0 49 10q18 11 18 25q0 29 -73 42q-79 23 -112 42q-46 22 -46 76q0 42 31 69q25 21 67 37q44 7 63 7q40 0 86 -18
q45 -18 62 -60q10 -27 10 -45h-92q0 9 -7 21q-5 7 -17 16q-3 1 -10.5 4.5t-11.5 4.5q-3 0 -10.5 2t-11.5 2q-21 0 -44 -13q-18 -11 -18 -27q0 -28 17 -37q24 -12 40 -15l34 -9l28 -6q24 -6 27 -6q17 -4 22 -7q14 -6 19 -9q21 -13 29 -25q11 -18 12 -41q1 -24 -10 -45
q-22 -40 -68 -55q-41 -14 -86 -14zM45 157v381h323v-86h-222v-87h185v-84h-185v-124h-101zM405 159q-16 0 -30 14q-16 13 -16 30q0 20 14 33q13 12 32 12q20 0 37 -14q16 -13 16 -31t-16 -32q-17 -12 -37 -12zM44 19v91h767v-91h-767z" />
    <glyph glyph-name="_Fontastica" horiz-adv-x="660" 
d="M41 115q-1 2 -1 4v559h419v-85h-322v-230h322v-86h-322v-162h-96zM197 117v86h324v230h-324v87h324v158h95v-561h-419zM528 25q-1 0 -3.5 1t-6 2t-6.5 2q-7 12 -8 19q0 12 7 19q9 9 17 9q11 0 22 -9l-5 -7l-4 4q-1 1 -9 1h-4h-2q-1 -1 -2.5 -2t-2.5 -3q-5 -5 -5 -9
q0 -5 3 -11q6 -6 9 -6q11 0 17 6l5 -6q-8 -10 -22 -10zM41 27v47h35v-8h-23v-13h22v-7h-22v-19h-12zM119 24q-6 0 -10 3q-15 5 -15 21q0 13 7 20q6 6 19 6q17 0 24 -11q8 -11 2 -22q-4 -13 -21 -16zM207 25q-1 0 -2 1t-2.5 2t-2.5 2l-6 8q0 1 -5 6l-8 12v-29h-12v47h9
q4 -1 5 -5l11 -13q2 -3 6 -7.5t4 -5.5v31h10v-47h-4q-2 -2 -3 -2zM249 27v39h-16v8h41v-8h-15v-39h-10zM376 25q-14 0 -22 9v1l1 2q0 1 2 4l15 -6h7l4 3q0 8 -11 10q-3 0 -3 1h-5q-7 3 -7 12q-3 6 7 12q1 0 4 0.5t6 0.5q11 0 20 -3l-4 -8l-4 2h-5q-1 0 -2 1h-7l-3 -1
q-1 -2 3 -9q3 0 7.5 -2t5.5 -2q9 0 9 -11q0 -12 -8 -14q-1 -2 -10 -2zM426 27v39h-17v8h43v-8h-15v-39h-11zM472 27v47h11v-47h-11zM566 27q12 20 19 47h13l11 -22q1 -2 2.5 -7t2.5 -7q0 -1 2 -5.5t4 -5.5h-11l-5 10h-23l-5 -10h-10zM286 27l20 46h12q0 -4 4 -10l6 -12
q4 -12 4 -13t5 -11h-12q-1 1 -1 3l-2 7h-24v-8l-2 -2h-10zM120 35h5q9 4 9 14v2q0 8 -4 12q-3 3 -11 3q-1 -1 -4 -1l-1 -1q-1 -1 -3 -3.5t-4 -4.5q-6 -5 -1 -10q3 -11 14 -11zM302 46h17l-1 3q-2 1 -3 3q0 1 -1 1q-1 3 -1 6q-1 1 -1 3t-1 3zM585 46h15l-2 3q0 3 -1 4
q-3 3 -3 6q0 4 -2 6z" />
    </font>
</defs>
</svg>
